<?xml version="1.0" encoding="UTF-8"?>
<!--Generator: Apple Native CoreSVG 123-->
<!DOCTYPE svg
PUBLIC "-//W3C//DTD SVG 1.1//EN"
       "http://www.w3.org/Graphics/SVG/1.1/DTD/svg11.dtd">
<svg version="1.1" xmlns="http://www.w3.org/2000/svg" xmlns:xlink="http://www.w3.org/1999/xlink" width="3300" height="2200">
 <!--glyph: "uni1002F4.medium", point size: 100.000000, font version: "Version 15.0d7e11", template writer version: "5"-->
 <g id="Notes">
  <rect height="2200" id="artboard" style="fill:white;opacity:1" width="3300" x="0" y="0"/>
  <line id="" style="fill:none;stroke:black;opacity:1;stroke-width:0.5;" x1="263" x2="3036" y1="292" y2="292"/>
  <text style="stroke:none;fill:black;font-family:-apple-system,&quot;SF Pro Display&quot;,&quot;SF Pro Text&quot;,Helvetica,sans-serif;font-weight:bold;" transform="matrix(1 0 0 1 263 322)">Weight/Scale Variations</text>
  <text style="stroke:none;fill:black;font-family:-apple-system,&quot;SF Pro Display&quot;,&quot;SF Pro Text&quot;,Helvetica,sans-serif;text-anchor:middle;" transform="matrix(1 0 0 1 559.711 322)">Ultralight</text>
  <text style="stroke:none;fill:black;font-family:-apple-system,&quot;SF Pro Display&quot;,&quot;SF Pro Text&quot;,Helvetica,sans-serif;text-anchor:middle;" transform="matrix(1 0 0 1 856.422 322)">Thin</text>
  <text style="stroke:none;fill:black;font-family:-apple-system,&quot;SF Pro Display&quot;,&quot;SF Pro Text&quot;,Helvetica,sans-serif;text-anchor:middle;" transform="matrix(1 0 0 1 1153.13 322)">Light</text>
  <text style="stroke:none;fill:black;font-family:-apple-system,&quot;SF Pro Display&quot;,&quot;SF Pro Text&quot;,Helvetica,sans-serif;text-anchor:middle;" transform="matrix(1 0 0 1 1449.84 322)">Regular</text>
  <text style="stroke:none;fill:black;font-family:-apple-system,&quot;SF Pro Display&quot;,&quot;SF Pro Text&quot;,Helvetica,sans-serif;text-anchor:middle;" transform="matrix(1 0 0 1 1746.56 322)">Medium</text>
  <text style="stroke:none;fill:black;font-family:-apple-system,&quot;SF Pro Display&quot;,&quot;SF Pro Text&quot;,Helvetica,sans-serif;text-anchor:middle;" transform="matrix(1 0 0 1 2043.27 322)">Semibold</text>
  <text style="stroke:none;fill:black;font-family:-apple-system,&quot;SF Pro Display&quot;,&quot;SF Pro Text&quot;,Helvetica,sans-serif;text-anchor:middle;" transform="matrix(1 0 0 1 2339.98 322)">Bold</text>
  <text style="stroke:none;fill:black;font-family:-apple-system,&quot;SF Pro Display&quot;,&quot;SF Pro Text&quot;,Helvetica,sans-serif;text-anchor:middle;" transform="matrix(1 0 0 1 2636.69 322)">Heavy</text>
  <text style="stroke:none;fill:black;font-family:-apple-system,&quot;SF Pro Display&quot;,&quot;SF Pro Text&quot;,Helvetica,sans-serif;text-anchor:middle;" transform="matrix(1 0 0 1 2933.4 322)">Black</text>
  <line id="" style="fill:none;stroke:black;opacity:1;stroke-width:0.5;" x1="263" x2="3036" y1="1903" y2="1903"/>
  <g id="" transform="matrix(1 0 0 1 263 1933)">
   <path d="M 9.24805 0.830078 C 13.5547 0.830078 17.1387 -2.74414 17.1387 -7.05078 C 17.1387 -11.3574 13.5449 -14.9316 9.23828 -14.9316 C 4.94141 -14.9316 1.36719 -11.3574 1.36719 -7.05078 C 1.36719 -2.74414 4.95117 0.830078 9.24805 0.830078 Z M 9.24805 -0.654297 C 5.70312 -0.654297 2.87109 -3.49609 2.87109 -7.05078 C 2.87109 -10.6055 5.69336 -13.4473 9.23828 -13.4473 C 12.793 -13.4473 15.6348 -10.6055 15.6445 -7.05078 C 15.6543 -3.49609 12.8027 -0.654297 9.24805 -0.654297 Z M 9.22852 -3.42773 C 9.69727 -3.42773 9.9707 -3.74023 9.9707 -4.25781 L 9.9707 -6.31836 L 12.1973 -6.31836 C 12.6953 -6.31836 13.0371 -6.57227 13.0371 -7.04102 C 13.0371 -7.51953 12.7148 -7.7832 12.1973 -7.7832 L 9.9707 -7.7832 L 9.9707 -10.0098 C 9.9707 -10.5273 9.69727 -10.8496 9.22852 -10.8496 C 8.75977 -10.8496 8.50586 -10.5078 8.50586 -10.0098 L 8.50586 -7.7832 L 6.29883 -7.7832 C 5.78125 -7.7832 5.44922 -7.51953 5.44922 -7.04102 C 5.44922 -6.57227 5.80078 -6.31836 6.29883 -6.31836 L 8.50586 -6.31836 L 8.50586 -4.25781 C 8.50586 -3.75977 8.75977 -3.42773 9.22852 -3.42773 Z"/>
  </g>
  <g id="" transform="matrix(1 0 0 1 281.506 1933)">
   <path d="M 11.709 2.91016 C 17.1582 2.91016 21.6699 -1.60156 21.6699 -7.05078 C 21.6699 -12.4902 17.1484 -17.0117 11.6992 -17.0117 C 6.25977 -17.0117 1.74805 -12.4902 1.74805 -7.05078 C 1.74805 -1.60156 6.26953 2.91016 11.709 2.91016 Z M 11.709 1.25 C 7.09961 1.25 3.41797 -2.44141 3.41797 -7.05078 C 3.41797 -11.6504 7.08984 -15.3516 11.6992 -15.3516 C 16.3086 -15.3516 20 -11.6504 20.0098 -7.05078 C 20.0195 -2.44141 16.3184 1.25 11.709 1.25 Z M 11.6895 -2.41211 C 12.207 -2.41211 12.5195 -2.77344 12.5195 -3.33984 L 12.5195 -6.23047 L 15.5762 -6.23047 C 16.123 -6.23047 16.5039 -6.51367 16.5039 -7.03125 C 16.5039 -7.55859 16.1426 -7.86133 15.5762 -7.86133 L 12.5195 -7.86133 L 12.5195 -10.9277 C 12.5195 -11.5039 12.207 -11.8555 11.6895 -11.8555 C 11.1719 -11.8555 10.8789 -11.4844 10.8789 -10.9277 L 10.8789 -7.86133 L 7.83203 -7.86133 C 7.26562 -7.86133 6.89453 -7.55859 6.89453 -7.03125 C 6.89453 -6.51367 7.28516 -6.23047 7.83203 -6.23047 L 10.8789 -6.23047 L 10.8789 -3.33984 C 10.8789 -2.79297 11.1719 -2.41211 11.6895 -2.41211 Z"/>
  </g>
  <g id="" transform="matrix(1 0 0 1 304.924 1933)">
   <path d="M 14.9707 5.67383 C 21.9336 5.67383 27.6953 -0.078125 27.6953 -7.04102 C 27.6953 -14.0039 21.9238 -19.7559 14.9609 -19.7559 C 8.00781 -19.7559 2.25586 -14.0039 2.25586 -7.04102 C 2.25586 -0.078125 8.01758 5.67383 14.9707 5.67383 Z M 14.9707 3.85742 C 8.93555 3.85742 4.08203 -1.00586 4.08203 -7.04102 C 4.08203 -13.0762 8.92578 -17.9395 14.9609 -17.9395 C 21.0059 -17.9395 25.8594 -13.0762 25.8691 -7.04102 C 25.8789 -1.00586 21.0156 3.85742 14.9707 3.85742 Z M 14.9512 -1.06445 C 15.5176 -1.06445 15.8691 -1.45508 15.8691 -2.06055 L 15.8691 -6.13281 L 20.1074 -6.13281 C 20.6934 -6.13281 21.1133 -6.46484 21.1133 -7.02148 C 21.1133 -7.59766 20.7227 -7.93945 20.1074 -7.93945 L 15.8691 -7.93945 L 15.8691 -12.1875 C 15.8691 -12.8027 15.5176 -13.1934 14.9512 -13.1934 C 14.3848 -13.1934 14.0625 -12.7832 14.0625 -12.1875 L 14.0625 -7.93945 L 9.83398 -7.93945 C 9.21875 -7.93945 8.80859 -7.59766 8.80859 -7.02148 C 8.80859 -6.46484 9.23828 -6.13281 9.83398 -6.13281 L 14.0625 -6.13281 L 14.0625 -2.06055 C 14.0625 -1.47461 14.3848 -1.06445 14.9512 -1.06445 Z"/>
  </g>
  <text style="stroke:none;fill:black;font-family:-apple-system,&quot;SF Pro Display&quot;,&quot;SF Pro Text&quot;,Helvetica,sans-serif;font-weight:bold;" transform="matrix(1 0 0 1 263 1953)">Design Variations</text>
  <text style="stroke:none;fill:black;font-family:-apple-system,&quot;SF Pro Display&quot;,&quot;SF Pro Text&quot;,Helvetica,sans-serif;" transform="matrix(1 0 0 1 263 1971)">Symbols are supported in up to nine weights and three scales.</text>
  <text style="stroke:none;fill:black;font-family:-apple-system,&quot;SF Pro Display&quot;,&quot;SF Pro Text&quot;,Helvetica,sans-serif;" transform="matrix(1 0 0 1 263 1989)">For optimal layout with text and other symbols, vertically align</text>
  <text style="stroke:none;fill:black;font-family:-apple-system,&quot;SF Pro Display&quot;,&quot;SF Pro Text&quot;,Helvetica,sans-serif;" transform="matrix(1 0 0 1 263 2007)">symbols with the adjacent text.</text>
  <rect height="14" id="" style="fill:#00AEEF;stroke:none;opacity:0.4;" width="3" x="776" y="1919"/>
  <g id="" transform="matrix(1 0 0 1 779 1933)">
   <path d="M 10.5273 0 L 12.373 0 L 7.17773 -14.0918 L 5.43945 -14.0918 L 0.244141 0 L 2.08984 0 L 3.50586 -4.0332 L 9.11133 -4.0332 Z M 6.2793 -11.9531 L 6.33789 -11.9531 L 8.59375 -5.52734 L 4.02344 -5.52734 Z"/>
  </g>
  <rect height="14" id="" style="fill:#00AEEF;stroke:none;opacity:0.4;" width="3" x="791.617" y="1919"/>
  <text style="stroke:none;fill:black;font-family:-apple-system,&quot;SF Pro Display&quot;,&quot;SF Pro Text&quot;,Helvetica,sans-serif;font-weight:bold;" transform="matrix(1 0 0 1 776 1953)">Margins</text>
  <text style="stroke:none;fill:black;font-family:-apple-system,&quot;SF Pro Display&quot;,&quot;SF Pro Text&quot;,Helvetica,sans-serif;" transform="matrix(1 0 0 1 776 1971)">Leading and trailing margins on the left and right side of each symbol</text>
  <text style="stroke:none;fill:black;font-family:-apple-system,&quot;SF Pro Display&quot;,&quot;SF Pro Text&quot;,Helvetica,sans-serif;" transform="matrix(1 0 0 1 776 1989)">can be adjusted by modifying the width of the blue rectangles.</text>
  <text style="stroke:none;fill:black;font-family:-apple-system,&quot;SF Pro Display&quot;,&quot;SF Pro Text&quot;,Helvetica,sans-serif;" transform="matrix(1 0 0 1 776 2007)">Modifications are automatically applied proportionally to all</text>
  <text style="stroke:none;fill:black;font-family:-apple-system,&quot;SF Pro Display&quot;,&quot;SF Pro Text&quot;,Helvetica,sans-serif;" transform="matrix(1 0 0 1 776 2025)">scales and weights.</text>
  <g id="" transform="matrix(1 0 0 1 1289 1933)">
   <path d="M 2.83203 3.11523 L 4.375 4.6582 C 5.22461 5.48828 6.19141 5.41992 7.06055 4.46289 L 17.2754 -6.66016 C 17.7051 -6.36719 18.0957 -6.37695 18.5645 -6.47461 L 19.6094 -6.68945 L 20.3027 -5.99609 L 20.2539 -5.47852 C 20.1855 -4.95117 20.3516 -4.53125 20.8496 -4.0332 L 21.6602 -3.22266 C 22.168 -2.71484 22.8223 -2.68555 23.3008 -3.16406 L 26.5527 -6.41602 C 27.0312 -6.89453 27.0117 -7.54883 26.5039 -8.05664 L 25.6836 -8.87695 C 25.1855 -9.375 24.7754 -9.55078 24.2383 -9.47266 L 23.7109 -9.41406 L 23.0566 -10.0781 L 23.3398 -11.2207 C 23.4863 -11.7871 23.3398 -12.2559 22.7148 -12.8613 L 20.3027 -15.2539 C 16.7578 -18.7793 12.2266 -18.6719 9.11133 -15.5371 C 8.69141 -15.1074 8.64258 -14.5215 8.91602 -14.0918 C 9.15039 -13.7207 9.62891 -13.4961 10.2734 -13.6621 C 11.7871 -14.043 13.3008 -13.9258 14.7852 -12.9199 L 14.1602 -11.3379 C 13.9258 -10.752 13.9453 -10.2734 14.1797 -9.83398 L 3.01758 0.439453 C 2.08008 1.30859 1.97266 2.25586 2.83203 3.11523 Z M 10.6738 -15.1465 C 13.3398 -17.1387 16.6504 -16.8262 19.0527 -14.4141 L 21.6797 -11.8066 C 21.9141 -11.5723 21.9434 -11.3867 21.8848 -11.0938 L 21.5039 -9.53125 L 23.0762 -7.95898 L 24.043 -8.04688 C 24.3262 -8.07617 24.4141 -8.05664 24.6387 -7.83203 L 25.2637 -7.20703 L 22.5098 -4.46289 L 21.8848 -5.07812 C 21.6602 -5.30273 21.6406 -5.40039 21.6699 -5.68359 L 21.7578 -6.64062 L 20.1953 -8.20312 L 18.5742 -7.89062 C 18.291 -7.83203 18.1445 -7.83203 17.9102 -8.07617 L 15.7324 -10.2539 C 15.5078 -10.4883 15.4785 -10.625 15.6055 -10.9473 L 16.5527 -13.2227 C 14.9512 -14.7559 12.8418 -15.6055 10.8008 -14.9512 C 10.7129 -14.9219 10.6445 -14.9414 10.6152 -14.9805 C 10.5859 -15.0293 10.5859 -15.0781 10.6738 -15.1465 Z M 4.10156 2.41211 C 3.61328 1.91406 3.78906 1.61133 4.12109 1.30859 L 15.0781 -8.80859 L 16.3086 -7.57812 L 6.15234 3.34961 C 5.84961 3.68164 5.46875 3.7793 5.06836 3.37891 Z"/>
  </g>
  <text style="stroke:none;fill:black;font-family:-apple-system,&quot;SF Pro Display&quot;,&quot;SF Pro Text&quot;,Helvetica,sans-serif;font-weight:bold;" transform="matrix(1 0 0 1 1289 1953)">Exporting</text>
  <text style="stroke:none;fill:black;font-family:-apple-system,&quot;SF Pro Display&quot;,&quot;SF Pro Text&quot;,Helvetica,sans-serif;" transform="matrix(1 0 0 1 1289 1971)">Symbols should be outlined when exporting to ensure the</text>
  <text style="stroke:none;fill:black;font-family:-apple-system,&quot;SF Pro Display&quot;,&quot;SF Pro Text&quot;,Helvetica,sans-serif;" transform="matrix(1 0 0 1 1289 1989)">design is preserved when submitting to Xcode.</text>
  <text id="template-version" style="stroke:none;fill:black;font-family:-apple-system,&quot;SF Pro Display&quot;,&quot;SF Pro Text&quot;,Helvetica,sans-serif;text-anchor:end;" transform="matrix(1 0 0 1 3036 1933)">Template v.1.0</text>
  <text style="stroke:none;fill:black;font-family:-apple-system,&quot;SF Pro Display&quot;,&quot;SF Pro Text&quot;,Helvetica,sans-serif;text-anchor:end;" transform="matrix(1 0 0 1 3036 1951)">Generated from list.number</text>
  <text style="stroke:none;fill:black;font-family:-apple-system,&quot;SF Pro Display&quot;,&quot;SF Pro Text&quot;,Helvetica,sans-serif;text-anchor:end;" transform="matrix(1 0 0 1 3036 1969)">Typeset at 100 points</text>
  <text style="stroke:none;fill:black;font-family:-apple-system,&quot;SF Pro Display&quot;,&quot;SF Pro Text&quot;,Helvetica,sans-serif;" transform="matrix(1 0 0 1 263 726)">Small</text>
  <text style="stroke:none;fill:black;font-family:-apple-system,&quot;SF Pro Display&quot;,&quot;SF Pro Text&quot;,Helvetica,sans-serif;" transform="matrix(1 0 0 1 263 1156)">Medium</text>
  <text style="stroke:none;fill:black;font-family:-apple-system,&quot;SF Pro Display&quot;,&quot;SF Pro Text&quot;,Helvetica,sans-serif;" transform="matrix(1 0 0 1 263 1586)">Large</text>
 </g>
 <g id="Guides">
  <g id="H-reference" style="fill:#27AAE1;stroke:none;" transform="matrix(1 0 0 1 339 696)">
   <path d="M 54.9316 0 L 57.666 0 L 30.5664 -70.459 L 28.0762 -70.459 L 0.976562 0 L 3.66211 0 L 12.9395 -24.4629 L 45.7031 -24.4629 Z M 29.1992 -67.0898 L 29.4434 -67.0898 L 44.8242 -26.709 L 13.8184 -26.709 Z"/>
  </g>
  <line id="Baseline-S" style="fill:none;stroke:#27AAE1;opacity:1;stroke-width:0.577;" x1="263" x2="3036" y1="696" y2="696"/>
  <line id="Capline-S" style="fill:none;stroke:#27AAE1;opacity:1;stroke-width:0.577;" x1="263" x2="3036" y1="625.541" y2="625.541"/>
  <g id="H-reference" style="fill:#27AAE1;stroke:none;" transform="matrix(1 0 0 1 339 1126)">
   <path d="M 54.9316 0 L 57.666 0 L 30.5664 -70.459 L 28.0762 -70.459 L 0.976562 0 L 3.66211 0 L 12.9395 -24.4629 L 45.7031 -24.4629 Z M 29.1992 -67.0898 L 29.4434 -67.0898 L 44.8242 -26.709 L 13.8184 -26.709 Z"/>
  </g>
  <line id="Baseline-M" style="fill:none;stroke:#27AAE1;opacity:1;stroke-width:0.577;" x1="263" x2="3036" y1="1126" y2="1126"/>
  <line id="Capline-M" style="fill:none;stroke:#27AAE1;opacity:1;stroke-width:0.577;" x1="263" x2="3036" y1="1055.54" y2="1055.54"/>
  <g id="H-reference" style="fill:#27AAE1;stroke:none;" transform="matrix(1 0 0 1 339 1556)">
   <path d="M 54.9316 0 L 57.666 0 L 30.5664 -70.459 L 28.0762 -70.459 L 0.976562 0 L 3.66211 0 L 12.9395 -24.4629 L 45.7031 -24.4629 Z M 29.1992 -67.0898 L 29.4434 -67.0898 L 44.8242 -26.709 L 13.8184 -26.709 Z"/>
  </g>
  <line id="Baseline-L" style="fill:none;stroke:#27AAE1;opacity:1;stroke-width:0.577;" x1="263" x2="3036" y1="1556" y2="1556"/>
  <line id="Capline-L" style="fill:none;stroke:#27AAE1;opacity:1;stroke-width:0.577;" x1="263" x2="3036" y1="1485.54" y2="1485.54"/>
  <rect height="119.336" id="left-margin" style="fill:#00AEEF;stroke:none;opacity:0.4;" width="12.4512" x="1388.2" y="1030.79"/>
  <rect height="119.336" id="right-margin" style="fill:#00AEEF;stroke:none;opacity:0.4;" width="12.4512" x="1499.04" y="1030.79"/>
 </g>
 <g id="Symbols">
  <g id="Black-L" transform="matrix(1 0 0 1 2847.17 1556)">
   <path d="M 31.543 -60.5957 C 34.6191 -60.5957 36.7188 -62.3047 36.7188 -66.1621 L 36.7188 -87.1094 C 36.7188 -90.4785 34.2773 -92.5781 30.8594 -92.5781 C 28.2227 -92.5781 26.4648 -91.6992 24.3652 -90.332 L 19.873 -87.4023 C 18.3105 -86.4258 17.627 -85.4004 17.627 -83.7402 C 17.627 -81.543 19.0918 -80.127 20.9473 -80.2246 C 21.7773 -80.2734 22.3145 -80.3223 23.5352 -81.1035 L 26.0742 -82.7637 L 26.2695 -82.7637 L 26.2695 -66.1621 C 26.2695 -62.3047 28.3691 -60.5957 31.543 -60.5957 Z M 63.2812 -66.6992 L 147.168 -66.6992 C 152.295 -66.6992 156.396 -70.8008 156.396 -75.9766 C 156.396 -81.1035 152.344 -85.2051 147.168 -85.2051 L 63.2812 -85.2051 C 58.1543 -85.2051 54.0527 -81.1523 54.0527 -75.9766 C 54.0527 -70.8496 58.1055 -66.6992 63.2812 -66.6992 Z M 20.5078 -20.2637 L 38.1836 -20.2637 C 40.5273 -20.2637 42.2852 -21.6309 42.2852 -24.1211 C 42.2852 -26.4648 40.5273 -27.9785 38.1836 -27.9785 L 29.8828 -27.9785 L 29.8828 -28.1738 L 34.8145 -31.9824 C 39.1602 -35.3516 41.4062 -37.4023 41.4062 -41.748 C 41.4062 -47.5098 36.4746 -51.123 28.5156 -51.123 C 21.7285 -51.123 16.8457 -47.9492 16.8457 -43.6035 C 16.8457 -41.1133 18.5059 -39.7461 21.1914 -39.7461 C 22.7539 -39.7461 23.9258 -40.2832 25.293 -41.748 C 26.4648 -42.9688 27.3438 -43.5059 28.7109 -43.5059 C 30.2246 -43.5059 31.3477 -42.5293 31.3477 -40.9668 C 31.3477 -39.5996 30.5176 -38.5742 27.1484 -35.8398 L 18.5547 -28.9551 C 17.041 -27.7344 16.3574 -26.3672 16.3574 -24.4629 C 16.3574 -22.0215 17.9688 -20.2637 20.5078 -20.2637 Z M 63.2812 -25.9277 L 147.168 -25.9277 C 152.295 -25.9277 156.396 -29.9805 156.396 -35.2051 C 156.396 -40.332 152.344 -44.4336 147.168 -44.4336 L 63.2812 -44.4336 C 58.1543 -44.4336 54.0527 -40.3809 54.0527 -35.2051 C 54.0527 -30.0781 58.1055 -25.9277 63.2812 -25.9277 Z M 28.6621 21.2402 C 37.5 21.2402 42.4805 17.627 42.4805 11.6699 C 42.4805 7.8125 39.7949 5.32227 35.1074 4.93164 L 35.1074 4.6875 C 38.2324 4.05273 41.2109 1.70898 41.2109 -2.34375 C 41.2109 -7.91016 35.5957 -10.6445 28.6133 -10.6445 C 23.2422 -10.6445 16.8945 -8.39844 16.8945 -3.41797 C 16.8945 -1.26953 18.457 0.292969 21.0449 0.292969 C 22.6074 0.292969 23.3887 -0.292969 24.4629 -1.17188 C 26.1719 -2.63672 27.3438 -3.07617 28.6133 -3.07617 C 30.2734 -3.07617 31.6406 -2.39258 31.6406 -0.732422 C 31.6406 0.78125 30.3711 1.66016 28.1738 1.66016 L 27.2949 1.66016 C 25.3418 1.66016 24.0234 2.7832 24.0234 5.0293 C 24.0234 7.22656 25.2441 8.39844 27.2949 8.39844 L 28.2227 8.39844 C 30.5176 8.39844 31.7871 9.17969 31.8359 10.8398 C 31.8848 12.3047 30.4688 13.2324 28.6621 13.2324 C 26.3672 13.2324 24.7559 11.7676 23.5352 10.9863 C 22.7539 10.4492 21.9238 9.81445 20.5078 9.81445 C 17.9199 9.81445 16.0645 11.3281 16.0645 13.8672 C 16.0645 18.5547 22.5586 21.2402 28.6621 21.2402 Z M 63.2812 14.8438 L 147.168 14.8438 C 152.295 14.8438 156.396 10.791 156.396 5.56641 C 156.396 0.439453 152.344 -3.66211 147.168 -3.66211 L 63.2812 -3.66211 C 58.1543 -3.66211 54.0527 0.390625 54.0527 5.56641 C 54.0527 10.6934 58.1055 14.8438 63.2812 14.8438 Z"/>
  </g>
  <g id="Heavy-L" transform="matrix(1 0 0 1 2552.19 1556)">
   <path d="M 31.0059 -60.5469 C 33.8379 -60.5469 35.8398 -62.1094 35.8398 -65.6738 L 35.8398 -86.5234 C 35.8398 -89.6484 33.5938 -91.6016 30.3223 -91.6016 C 27.832 -91.6016 26.1719 -90.7715 24.2188 -89.502 L 19.7266 -86.5234 C 18.2617 -85.5469 17.5781 -84.6191 17.5781 -83.0078 C 17.5781 -81.0059 18.9941 -79.6387 20.7031 -79.7363 C 21.5332 -79.7852 22.0703 -79.834 23.2422 -80.6152 L 25.8789 -82.373 L 26.0254 -82.373 L 26.0254 -65.6738 C 26.0254 -62.1094 28.0273 -60.5469 31.0059 -60.5469 Z M 60.3027 -67.1875 L 144.824 -67.1875 C 149.365 -67.1875 152.93 -70.7031 152.93 -75.2441 C 152.93 -79.7852 149.365 -83.3496 144.824 -83.3496 L 60.3027 -83.3496 C 55.7617 -83.3496 52.1973 -79.834 52.1973 -75.2441 C 52.1973 -70.752 55.7617 -67.1875 60.3027 -67.1875 Z M 20.2637 -20.8008 L 37.5 -20.8008 C 39.6973 -20.8008 41.3086 -22.1191 41.3086 -24.4141 C 41.3086 -26.6113 39.6973 -28.0273 37.5 -28.0273 L 28.9551 -28.0273 L 28.9551 -28.2227 L 33.9844 -32.1777 C 38.3301 -35.5957 40.3809 -37.6465 40.3809 -41.7969 C 40.3809 -47.3145 35.6445 -50.8789 28.0762 -50.8789 C 21.4844 -50.8789 16.7969 -47.7051 16.7969 -43.457 C 16.7969 -41.1133 18.3105 -39.8438 20.8496 -39.8438 C 22.3633 -39.8438 23.4863 -40.3809 24.707 -41.7969 C 25.7812 -43.1152 26.709 -43.75 28.2227 -43.75 C 29.834 -43.75 31.0547 -42.7246 31.0547 -41.0645 C 31.0547 -39.6484 30.2246 -38.5254 26.9043 -35.8398 L 18.4082 -28.9551 C 16.9434 -27.7832 16.3086 -26.5137 16.3086 -24.7559 C 16.3086 -22.4121 17.8711 -20.8008 20.2637 -20.8008 Z M 60.3027 -27.0996 L 144.824 -27.0996 C 149.365 -27.0996 152.93 -30.6641 152.93 -35.2051 C 152.93 -39.6973 149.365 -43.2617 144.824 -43.2617 L 60.3027 -43.2617 C 55.7617 -43.2617 52.1973 -39.7461 52.1973 -35.2051 C 52.1973 -30.7129 55.7617 -27.0996 60.3027 -27.0996 Z M 28.1738 20.1172 C 36.6699 20.1172 41.5039 16.5527 41.5039 10.8398 C 41.5039 7.08008 38.8672 4.58984 34.2773 4.19922 L 34.2773 4.00391 C 37.4023 3.36914 40.2344 1.02539 40.2344 -2.83203 C 40.2344 -8.20312 34.9121 -10.8887 28.1738 -10.8887 C 22.9004 -10.8887 16.8457 -8.69141 16.8457 -3.90625 C 16.8457 -1.85547 18.3105 -0.439453 20.7031 -0.439453 C 22.2168 -0.439453 22.9492 -0.976562 23.9746 -1.9043 C 25.5859 -3.41797 26.8066 -3.85742 28.125 -3.85742 C 29.8828 -3.85742 31.2988 -3.07617 31.2988 -1.36719 C 31.2988 0.244141 29.9805 1.12305 27.6855 1.12305 L 26.7578 1.12305 C 24.9023 1.12305 23.6328 2.19727 23.6328 4.29688 C 23.6328 6.34766 24.8047 7.4707 26.7578 7.4707 L 27.6855 7.4707 C 30.1758 7.4707 31.4941 8.34961 31.543 10.1074 C 31.5918 11.6211 30.0781 12.6465 28.1738 12.6465 C 25.9277 12.6465 24.3164 11.2305 23.0957 10.3516 C 22.3145 9.76562 21.5332 9.17969 20.2148 9.17969 C 17.7734 9.17969 16.0645 10.5957 16.0645 12.9395 C 16.0645 17.4805 22.3633 20.1172 28.1738 20.1172 Z M 60.3027 12.9883 L 144.824 12.9883 C 149.365 12.9883 152.93 9.42383 152.93 4.88281 C 152.93 0.390625 149.365 -3.17383 144.824 -3.17383 L 60.3027 -3.17383 C 55.7617 -3.17383 52.1973 0.341797 52.1973 4.88281 C 52.1973 9.375 55.7617 12.9883 60.3027 12.9883 Z"/>
  </g>
  <g id="Bold-L" transform="matrix(1 0 0 1 2257.43 1556)">
   <path d="M 30.3711 -60.4492 C 33.0078 -60.4492 34.8633 -61.9141 34.8633 -65.1367 L 34.8633 -85.791 C 34.8633 -88.7207 32.7637 -90.5762 29.7852 -90.5762 C 27.3926 -90.5762 25.8789 -89.7461 24.1211 -88.5742 L 19.6289 -85.5469 C 18.1641 -84.6191 17.5293 -83.7402 17.5293 -82.2754 C 17.5293 -80.3711 18.8477 -79.1504 20.459 -79.1992 C 21.2891 -79.248 21.7773 -79.2969 22.9004 -80.0781 L 25.6836 -81.9824 L 25.8301 -81.9824 L 25.8301 -65.1367 C 25.8301 -61.9141 27.6367 -60.4492 30.3711 -60.4492 Z M 56.9336 -67.7246 L 142.236 -67.7246 C 146.045 -67.7246 149.023 -70.6543 149.023 -74.5117 C 149.023 -78.2715 146.045 -81.25 142.236 -81.25 L 56.9336 -81.25 C 53.125 -81.25 50.1465 -78.3203 50.1465 -74.5117 C 50.1465 -70.7031 53.125 -67.7246 56.9336 -67.7246 Z M 19.9707 -21.3867 L 36.7188 -21.3867 C 38.7207 -21.3867 40.1855 -22.6562 40.1855 -24.707 C 40.1855 -26.7578 38.7207 -28.0762 36.7188 -28.0762 L 27.9297 -28.0762 L 27.9297 -28.2715 L 33.0566 -32.373 C 37.3535 -35.8887 39.3066 -37.8906 39.3066 -41.8457 C 39.3066 -47.1191 34.7656 -50.6348 27.5391 -50.6348 C 21.2402 -50.6348 16.6992 -47.4609 16.6992 -43.3594 C 16.6992 -41.1621 18.1152 -39.9414 20.459 -39.9414 C 21.9238 -39.9414 22.9492 -40.4785 24.0234 -41.8945 C 25 -43.2617 26.0742 -43.9941 27.6855 -43.9941 C 29.3945 -43.9941 30.6641 -42.8711 30.6641 -41.2109 C 30.6641 -39.6973 29.834 -38.5254 26.5625 -35.8398 L 18.2129 -28.9551 C 16.8457 -27.832 16.2598 -26.6602 16.2598 -25.0488 C 16.2598 -22.9004 17.7246 -21.3867 19.9707 -21.3867 Z M 56.9336 -28.418 L 142.236 -28.418 C 146.045 -28.418 149.023 -31.3477 149.023 -35.2051 C 149.023 -38.9648 146.045 -41.9922 142.236 -41.9922 L 56.9336 -41.9922 C 53.125 -41.9922 50.1465 -39.0137 50.1465 -35.2051 C 50.1465 -31.3965 53.125 -28.418 56.9336 -28.418 Z M 27.6855 18.8477 C 35.6934 18.8477 40.332 15.4297 40.332 9.86328 C 40.332 6.25 37.8418 3.75977 33.3008 3.36914 L 33.3008 3.17383 C 36.5234 2.58789 39.1602 0.341797 39.1602 -3.4668 C 39.1602 -8.54492 34.1309 -11.2305 27.6367 -11.2305 C 22.5586 -11.2305 16.7969 -8.93555 16.7969 -4.49219 C 16.7969 -2.53906 18.1641 -1.2207 20.3125 -1.2207 C 21.7773 -1.2207 22.4609 -1.75781 23.4375 -2.68555 C 24.9512 -4.24805 26.1719 -4.6875 27.6367 -4.6875 C 29.4922 -4.6875 30.9082 -3.85742 30.9082 -2.05078 C 30.9082 -0.390625 29.4922 0.537109 27.0996 0.537109 L 26.1719 0.537109 C 24.4141 0.537109 23.1934 1.5625 23.1934 3.51562 C 23.1934 5.41992 24.3652 6.44531 26.1719 6.44531 L 27.1484 6.44531 C 29.7852 6.44531 31.2012 7.37305 31.2012 9.22852 C 31.25 10.8887 29.6875 12.0117 27.6855 12.0117 C 25.4395 12.0117 23.8281 10.6934 22.6074 9.61914 C 21.875 8.98438 21.1426 8.39844 19.873 8.39844 C 17.627 8.39844 16.0645 9.76562 16.0645 11.9141 C 16.0645 16.3574 22.168 18.8477 27.6855 18.8477 Z M 56.9336 10.8887 L 142.236 10.8887 C 146.045 10.8887 149.023 7.91016 149.023 4.10156 C 149.023 0.341797 146.045 -2.68555 142.236 -2.68555 L 56.9336 -2.68555 C 53.125 -2.68555 50.1465 0.292969 50.1465 4.10156 C 50.1465 7.91016 53.125 10.8887 56.9336 10.8887 Z"/>
  </g>
  <g id="Semibold-L" transform="matrix(1 0 0 1 1962.07 1556)">
   <path d="M 29.9316 -60.3516 C 32.4707 -60.3516 34.1797 -61.7676 34.1797 -64.7461 L 34.1797 -85.3516 C 34.1797 -88.0859 32.2266 -89.8438 29.3945 -89.8438 C 27.0996 -89.8438 25.6836 -89.0625 24.0234 -87.9395 L 19.5312 -84.8633 C 18.1641 -83.9355 17.4805 -83.1055 17.4805 -81.7383 C 17.4805 -79.9805 18.7988 -78.8086 20.3125 -78.8574 C 21.1426 -78.8574 21.582 -78.9551 22.6562 -79.6875 L 25.5371 -81.6895 L 25.6836 -81.6895 L 25.6836 -64.7461 C 25.6836 -61.7676 27.3926 -60.3516 29.9316 -60.3516 Z M 54.6387 -68.0664 L 140.43 -68.0664 C 143.75 -68.0664 146.338 -70.6543 146.338 -73.9258 C 146.338 -77.2461 143.75 -79.834 140.43 -79.834 L 54.6387 -79.834 C 51.3184 -79.834 48.7305 -77.2461 48.7305 -73.9258 C 48.7305 -70.6543 51.3184 -68.0664 54.6387 -68.0664 Z M 19.7266 -21.8262 L 36.1816 -21.8262 C 38.0371 -21.8262 39.4043 -22.998 39.4043 -24.9023 C 39.4043 -26.8555 38.0371 -28.0762 36.1816 -28.0762 L 27.2461 -28.0762 L 27.2461 -28.2715 L 32.4219 -32.5195 C 36.7188 -36.0352 38.5254 -38.0859 38.5254 -41.8457 C 38.5254 -47.0215 34.1309 -50.4395 27.1973 -50.4395 C 21.0449 -50.4395 16.6504 -47.2656 16.6504 -43.2617 C 16.6504 -41.1621 18.0176 -40.0391 20.166 -40.0391 C 21.582 -40.0391 22.6074 -40.5273 23.5352 -41.9434 C 24.4629 -43.4082 25.6348 -44.1895 27.3438 -44.1895 C 29.1016 -44.1895 30.4199 -43.0176 30.4199 -41.2598 C 30.4199 -39.7461 29.6387 -38.5254 26.3672 -35.8398 L 18.0664 -28.9551 C 16.7969 -27.8809 16.2598 -26.7578 16.2598 -25.2441 C 16.2598 -23.2422 17.627 -21.8262 19.7266 -21.8262 Z M 54.6387 -29.2969 L 140.43 -29.2969 C 143.75 -29.2969 146.338 -31.8848 146.338 -35.2051 C 146.338 -38.4766 143.75 -41.0645 140.43 -41.0645 L 54.6387 -41.0645 C 51.3184 -41.0645 48.7305 -38.5254 48.7305 -35.2051 C 48.7305 -31.8848 51.3184 -29.2969 54.6387 -29.2969 Z M 27.3438 17.9688 C 35.0586 17.9688 39.5508 14.5996 39.5508 9.22852 C 39.5508 5.66406 37.1094 3.22266 32.666 2.83203 L 32.666 2.63672 C 35.8887 2.05078 38.4277 -0.195312 38.4277 -3.85742 C 38.4277 -8.78906 33.5938 -11.4258 27.2949 -11.4258 C 22.3145 -11.4258 16.748 -9.17969 16.748 -4.88281 C 16.748 -3.02734 18.0664 -1.75781 20.0684 -1.75781 C 21.4844 -1.75781 22.1191 -2.29492 23.0469 -3.22266 C 24.5117 -4.83398 25.7324 -5.32227 27.2461 -5.32227 C 29.1992 -5.32227 30.6152 -4.39453 30.6152 -2.53906 C 30.6152 -0.830078 29.1992 0.146484 26.6602 0.146484 L 25.7812 0.146484 C 24.0723 0.146484 22.9004 1.12305 22.9004 2.97852 C 22.9004 4.73633 24.0234 5.76172 25.7812 5.76172 L 26.7578 5.76172 C 29.4922 5.76172 30.957 6.73828 31.0059 8.64258 C 31.0059 10.3516 29.3945 11.5234 27.3438 11.5234 C 25.0977 11.5234 23.4863 10.2539 22.2656 9.13086 C 21.5332 8.44727 20.8496 7.91016 19.6777 7.91016 C 17.5293 7.91016 16.0645 9.17969 16.0645 11.1816 C 16.0645 15.5273 22.0215 17.9688 27.3438 17.9688 Z M 54.6387 9.47266 L 140.43 9.47266 C 143.75 9.47266 146.338 6.88477 146.338 3.56445 C 146.338 0.292969 143.75 -2.29492 140.43 -2.29492 L 54.6387 -2.29492 C 51.3184 -2.29492 48.7305 0.244141 48.7305 3.56445 C 48.7305 6.88477 51.3184 9.47266 54.6387 9.47266 Z"/>
  </g>
  <g id="Medium-L" transform="matrix(1 0 0 1 1666.38 1556)">
   <path d="M 29.6387 -60.3027 C 32.0312 -60.3027 33.6426 -61.6699 33.6426 -64.4531 L 33.6426 -84.9609 C 33.6426 -87.5977 31.7871 -89.2578 29.1016 -89.2578 C 26.9043 -89.2578 25.5371 -88.5254 23.9258 -87.4512 L 19.4336 -84.375 C 18.1152 -83.4473 17.4805 -82.666 17.4805 -81.2988 C 17.4805 -79.6387 18.7012 -78.5156 20.2148 -78.5645 C 20.9961 -78.5645 21.3867 -78.6621 22.4609 -79.3945 L 25.4395 -81.4941 L 25.5371 -81.4941 L 25.5371 -64.4531 C 25.5371 -61.6699 27.1973 -60.3027 29.6387 -60.3027 Z M 52.8809 -68.3105 L 139.062 -68.3105 C 141.992 -68.3105 144.287 -70.6055 144.287 -73.5352 C 144.287 -76.4648 142.041 -78.7598 139.062 -78.7598 L 52.8809 -78.7598 C 49.9512 -78.7598 47.6562 -76.4648 47.6562 -73.5352 C 47.6562 -70.6055 49.9023 -68.3105 52.8809 -68.3105 Z M 19.5801 -22.1191 L 35.791 -22.1191 C 37.5 -22.1191 38.8184 -23.291 38.8184 -25.0977 C 38.8184 -26.9531 37.5488 -28.125 35.791 -28.125 L 26.709 -28.125 L 26.709 -28.2715 L 31.9336 -32.6172 C 36.2305 -36.1816 37.9395 -38.1836 37.9395 -41.8945 C 37.9395 -46.9238 33.6914 -50.293 26.9531 -50.293 C 20.8984 -50.293 16.6016 -47.1191 16.6016 -43.1641 C 16.6016 -41.1621 17.8711 -40.0879 19.9707 -40.0879 C 21.3867 -40.0879 22.3145 -40.5762 23.1934 -41.9434 C 24.0723 -43.5059 25.293 -44.3359 27.0508 -44.3359 C 28.9062 -44.3359 30.2734 -43.1152 30.2734 -41.3086 C 30.2734 -39.7461 29.4434 -38.5254 26.2207 -35.8398 L 17.9688 -28.9551 C 16.748 -27.9297 16.2109 -26.8555 16.2109 -25.4395 C 16.2109 -23.4863 17.5293 -22.1191 19.5801 -22.1191 Z M 52.8809 -29.9805 L 139.062 -29.9805 C 141.992 -29.9805 144.287 -32.2266 144.287 -35.2051 C 144.287 -38.1348 142.041 -40.3809 139.062 -40.3809 L 52.8809 -40.3809 C 49.9512 -40.3809 47.6562 -38.1348 47.6562 -35.2051 C 47.6562 -32.2754 49.9023 -29.9805 52.8809 -29.9805 Z M 27.0508 17.334 C 34.5215 17.334 38.9648 14.0137 38.9648 8.74023 C 38.9648 5.22461 36.5723 2.7832 32.1289 2.39258 L 32.1289 2.24609 C 35.4004 1.61133 37.8418 -0.537109 37.8418 -4.15039 C 37.8418 -8.93555 33.2031 -11.5723 27.002 -11.5723 C 22.1191 -11.5723 16.748 -9.32617 16.748 -5.17578 C 16.748 -3.36914 18.0176 -2.19727 19.873 -2.19727 C 21.2402 -2.19727 21.875 -2.68555 22.7539 -3.66211 C 24.1699 -5.27344 25.3906 -5.76172 27.002 -5.76172 C 29.0039 -5.76172 30.4199 -4.78516 30.4199 -2.88086 C 30.4199 -1.12305 28.9551 -0.146484 26.3672 -0.146484 L 25.4883 -0.146484 C 23.8281 -0.146484 22.7051 0.78125 22.7051 2.53906 C 22.7051 4.24805 23.7793 5.22461 25.4883 5.22461 L 26.416 5.22461 C 29.2969 5.22461 30.8105 6.20117 30.8105 8.20312 C 30.8105 9.96094 29.1992 11.1816 27.0508 11.1816 C 24.8047 11.1816 23.1934 9.96094 22.0215 8.78906 C 21.2891 8.05664 20.6055 7.51953 19.4824 7.51953 C 17.4805 7.51953 16.0645 8.74023 16.0645 10.6445 C 16.0645 14.9414 21.9238 17.334 27.0508 17.334 Z M 52.8809 8.39844 L 139.062 8.39844 C 141.992 8.39844 144.287 6.10352 144.287 3.17383 C 144.287 0.244141 142.041 -2.05078 139.062 -2.05078 L 52.8809 -2.05078 C 49.9512 -2.05078 47.6562 0.244141 47.6562 3.17383 C 47.6562 6.10352 49.9023 8.39844 52.8809 8.39844 Z"/>
  </g>
  <g id="Regular-L" transform="matrix(1 0 0 1 1370.99 1556)">
   <path d="M 29.1992 -60.2539 C 31.4453 -60.2539 32.959 -61.5234 32.959 -64.1113 L 32.959 -84.4727 C 32.959 -86.9629 31.25 -88.5742 28.7109 -88.5742 C 26.6113 -88.5742 25.3418 -87.793 23.8281 -86.8164 L 19.3848 -83.6914 C 18.0664 -82.8125 17.4316 -82.0312 17.4316 -80.8105 C 17.4316 -79.248 18.6523 -78.1738 20.0195 -78.1738 C 20.8008 -78.1738 21.1914 -78.3203 22.2656 -79.0527 L 25.293 -81.2012 L 25.3906 -81.2012 L 25.3906 -64.1113 C 25.3906 -61.5234 26.9043 -60.2539 29.1992 -60.2539 Z M 50.5859 -68.7012 L 137.305 -68.7012 C 139.746 -68.7012 141.65 -70.5566 141.65 -72.998 C 141.65 -75.4395 139.746 -77.3438 137.305 -77.3438 L 50.5859 -77.3438 C 48.1445 -77.3438 46.2402 -75.4395 46.2402 -72.998 C 46.2402 -70.5566 48.1445 -68.7012 50.5859 -68.7012 Z M 19.3848 -22.5586 L 35.2539 -22.5586 C 36.8652 -22.5586 38.0371 -23.6328 38.0371 -25.293 C 38.0371 -27.0508 36.8652 -28.125 35.2539 -28.125 L 25.9766 -28.125 L 25.9766 -28.3203 L 31.2988 -32.7637 C 35.5957 -36.377 37.1582 -38.3789 37.1582 -41.9434 C 37.1582 -46.7773 33.0566 -50.0977 26.5625 -50.0977 C 20.7031 -50.0977 16.5527 -46.9727 16.5527 -43.1152 C 16.5527 -41.1621 17.7734 -40.1855 19.6777 -40.1855 C 21.0449 -40.1855 21.9727 -40.625 22.7051 -42.041 C 23.5352 -43.6035 24.8047 -44.4824 26.6602 -44.4824 C 28.6133 -44.4824 30.0293 -43.2129 30.0293 -41.4062 C 30.0293 -39.7949 29.1992 -38.5254 25.9766 -35.791 L 17.8223 -28.9551 C 16.6504 -27.9785 16.2109 -26.9531 16.2109 -25.6348 C 16.2109 -23.7793 17.4316 -22.5586 19.3848 -22.5586 Z M 50.5859 -30.8594 L 137.305 -30.8594 C 139.746 -30.8594 141.65 -32.7637 141.65 -35.2051 C 141.65 -37.6465 139.746 -39.502 137.305 -39.502 L 50.5859 -39.502 C 48.1445 -39.502 46.2402 -37.6465 46.2402 -35.2051 C 46.2402 -32.7637 48.1445 -30.8594 50.5859 -30.8594 Z M 26.709 16.4551 C 33.8867 16.4551 38.1836 13.2324 38.1836 8.10547 C 38.1836 4.63867 35.8398 2.24609 31.4941 1.85547 L 31.4941 1.70898 C 34.8145 1.07422 37.1094 -1.02539 37.1094 -4.58984 C 37.1094 -9.17969 32.7148 -11.8164 26.6602 -11.8164 C 21.875 -11.8164 16.6992 -9.52148 16.6992 -5.51758 C 16.6992 -3.85742 17.9199 -2.73438 19.6289 -2.73438 C 20.9473 -2.73438 21.5332 -3.22266 22.3633 -4.19922 C 23.7305 -5.81055 24.9512 -6.34766 26.6113 -6.34766 C 28.7109 -6.34766 30.1758 -5.32227 30.1758 -3.36914 C 30.1758 -1.5625 28.6133 -0.537109 25.9766 -0.537109 L 25.0977 -0.537109 C 23.4863 -0.537109 22.4121 0.341797 22.4121 2.00195 C 22.4121 3.61328 23.4375 4.54102 25.0977 4.54102 L 26.0742 4.54102 C 29.0039 4.54102 30.5664 5.56641 30.5664 7.61719 C 30.5664 9.47266 28.9062 10.7422 26.709 10.7422 C 24.4629 10.7422 22.8516 9.57031 21.6797 8.30078 C 20.9961 7.51953 20.3613 7.03125 19.2871 7.03125 C 17.3828 7.03125 16.0645 8.1543 16.0645 9.96094 C 16.0645 14.1602 21.7773 16.4551 26.709 16.4551 Z M 50.5859 6.93359 L 137.305 6.93359 C 139.746 6.93359 141.65 5.07812 141.65 2.63672 C 141.65 0.195312 139.746 -1.70898 137.305 -1.70898 L 50.5859 -1.70898 C 48.1445 -1.70898 46.2402 0.195312 46.2402 2.63672 C 46.2402 5.07812 48.1445 6.93359 50.5859 6.93359 Z"/>
  </g>
  <g id="Light-L" transform="matrix(1 0 0 1 1075.2 1556)">
   <path d="M 28.418 -59.7656 C 30.4199 -59.7656 31.7383 -60.8887 31.7383 -63.1348 L 31.7383 -83.5938 C 31.7383 -85.8398 30.2246 -87.2559 27.9297 -87.2559 C 26.0254 -87.2559 24.9023 -86.5234 23.5352 -85.5957 L 19.043 -82.4707 C 17.7246 -81.5918 17.1875 -80.9082 17.1875 -79.7363 C 17.1875 -78.3203 18.2617 -77.3438 19.5801 -77.3438 C 20.3125 -77.3438 20.752 -77.4414 21.7285 -78.1738 L 24.9512 -80.6152 L 25.0488 -80.6152 L 25.0488 -63.1348 C 25.0488 -60.8887 26.3672 -59.7656 28.418 -59.7656 Z M 49.1211 -69.3359 L 136.475 -69.3359 C 138.379 -69.3359 139.795 -70.752 139.795 -72.6562 C 139.795 -74.5117 138.379 -75.9277 136.475 -75.9277 L 49.1211 -75.9277 C 47.2168 -75.9277 45.8008 -74.5117 45.8008 -72.6562 C 45.8008 -70.752 47.2168 -69.3359 49.1211 -69.3359 Z M 18.9941 -22.5098 L 34.4727 -22.5098 C 35.8887 -22.5098 36.9141 -23.4863 36.9141 -24.9023 C 36.9141 -26.4648 35.9375 -27.4414 34.4727 -27.4414 L 24.8047 -27.4414 L 24.8047 -27.5879 L 30.3711 -32.4707 C 34.6191 -36.2305 36.0352 -38.1348 36.0352 -41.5039 C 36.0352 -46.0938 32.1289 -49.3164 26.0254 -49.3164 C 20.4102 -49.3164 16.4551 -46.1914 16.4551 -42.4805 C 16.4551 -40.7227 17.5781 -39.8438 19.1895 -39.8438 C 20.459 -39.8438 21.3379 -40.2832 21.9238 -41.6504 C 22.6562 -43.3105 24.1211 -44.2871 26.123 -44.2871 C 28.1738 -44.2871 29.6875 -42.9199 29.6875 -41.0156 C 29.6875 -39.2578 28.8086 -37.9883 25.6836 -35.2051 L 17.627 -28.1738 C 16.6016 -27.2949 16.1621 -26.3672 16.1621 -25.1953 C 16.1621 -23.584 17.2363 -22.5098 18.9941 -22.5098 Z M 49.1211 -31.8848 L 136.475 -31.8848 C 138.379 -31.8848 139.795 -33.3008 139.795 -35.2051 C 139.795 -37.0605 138.379 -38.4766 136.475 -38.4766 L 49.1211 -38.4766 C 47.2168 -38.4766 45.8008 -37.0605 45.8008 -35.2051 C 45.8008 -33.3008 47.2168 -31.8848 49.1211 -31.8848 Z M 26.1719 16.1621 C 32.9102 16.1621 37.0605 13.0859 37.0605 8.1543 C 37.0605 4.83398 34.8633 2.34375 30.4688 2.00195 L 30.4688 1.80664 C 33.9355 1.17188 36.0352 -0.976562 36.0352 -4.3457 C 36.0352 -8.69141 31.9336 -11.2793 26.123 -11.2793 C 21.582 -11.2793 16.6504 -8.98438 16.6504 -5.27344 C 16.6504 -3.71094 17.7734 -2.73438 19.2383 -2.73438 C 20.4102 -2.73438 20.9473 -3.17383 21.7285 -4.19922 C 22.998 -5.85938 24.2676 -6.44531 26.0742 -6.44531 C 28.3203 -6.44531 29.8828 -5.32227 29.8828 -3.22266 C 29.8828 -1.36719 28.1738 -0.195312 25.4395 -0.195312 L 24.4141 -0.195312 C 22.9492 -0.195312 21.9727 0.683594 21.9727 2.14844 C 21.9727 3.56445 22.9492 4.44336 24.4141 4.44336 L 25.5371 4.44336 C 28.6133 4.44336 30.3223 5.61523 30.3223 7.76367 C 30.3223 9.76562 28.5156 11.1328 26.1719 11.1328 C 23.9258 11.1328 22.2656 10.1074 21.1426 8.59375 C 20.459 7.76367 19.8242 7.27539 18.8965 7.27539 C 17.1875 7.27539 16.0645 8.34961 16.0645 9.91211 C 16.0645 13.916 21.4844 16.1621 26.1719 16.1621 Z M 49.1211 5.56641 L 136.475 5.56641 C 138.379 5.56641 139.795 4.15039 139.795 2.24609 C 139.795 0.390625 138.379 -1.02539 136.475 -1.02539 L 49.1211 -1.02539 C 47.2168 -1.02539 45.8008 0.390625 45.8008 2.24609 C 45.8008 4.15039 47.2168 5.56641 49.1211 5.56641 Z"/>
  </g>
  <g id="Thin-L" transform="matrix(1 0 0 1 779.713 1556)">
   <path d="M 27.3438 -59.082 C 29.0527 -59.082 30.0781 -60.1074 30.0781 -61.8164 L 30.0781 -82.373 C 30.0781 -84.3262 28.9062 -85.498 26.9531 -85.498 C 25.293 -85.498 24.3164 -84.8633 23.1445 -84.0332 L 18.6035 -80.8105 C 17.2852 -79.9316 16.7969 -79.3457 16.7969 -78.3203 C 16.7969 -77.0996 17.7246 -76.2695 18.9453 -76.2695 C 19.6777 -76.2695 20.1172 -76.3184 20.9961 -77.0508 L 24.4629 -79.7852 L 24.6094 -79.7852 L 24.6094 -61.8164 C 24.6094 -60.1074 25.6836 -59.082 27.3438 -59.082 Z M 47.1191 -70.166 L 135.4 -70.166 C 136.523 -70.166 137.354 -70.9961 137.354 -72.168 C 137.354 -73.291 136.523 -74.1211 135.4 -74.1211 L 47.1191 -74.1211 C 45.9961 -74.1211 45.166 -73.291 45.166 -72.168 C 45.166 -70.9961 45.9961 -70.166 47.1191 -70.166 Z M 18.5059 -22.4121 L 33.4473 -22.4121 C 34.5703 -22.4121 35.4492 -23.2422 35.4492 -24.3652 C 35.4492 -25.6836 34.668 -26.5137 33.4473 -26.5137 L 23.2422 -26.5137 L 23.2422 -26.6602 L 29.1016 -32.0801 C 33.3496 -36.0352 34.5703 -37.793 34.5703 -40.918 C 34.5703 -45.2148 30.8594 -48.2422 25.3418 -48.2422 C 20.0195 -48.2422 16.4062 -45.1172 16.4062 -41.6992 C 16.4062 -40.0879 17.334 -39.4043 18.5547 -39.4043 C 19.7266 -39.4043 20.459 -39.7949 20.8984 -41.1133 C 21.5332 -42.9199 23.1445 -44.043 25.3418 -44.043 C 27.6367 -44.043 29.2969 -42.5293 29.2969 -40.5273 C 29.2969 -38.5742 28.3203 -37.3047 25.2441 -34.4238 L 17.334 -27.1484 C 16.5039 -26.416 16.1621 -25.6348 16.1621 -24.6582 C 16.1621 -23.291 16.9922 -22.4121 18.5059 -22.4121 Z M 47.1191 -33.2031 L 135.4 -33.2031 C 136.523 -33.2031 137.354 -34.0332 137.354 -35.2051 C 137.354 -36.3281 136.523 -37.1582 135.4 -37.1582 L 47.1191 -37.1582 C 45.9961 -37.1582 45.166 -36.3281 45.166 -35.2051 C 45.166 -34.0332 45.9961 -33.2031 47.1191 -33.2031 Z M 25.4395 15.8203 C 31.5918 15.8203 35.5469 12.8906 35.5469 8.20312 C 35.5469 5.0293 33.5449 2.49023 29.1504 2.14844 L 29.1504 2.00195 C 32.7637 1.26953 34.5703 -0.878906 34.5703 -4.05273 C 34.5703 -8.00781 30.9082 -10.5957 25.4395 -10.5957 C 21.1426 -10.5957 16.5527 -8.34961 16.5527 -4.88281 C 16.5527 -3.56445 17.5781 -2.7832 18.7012 -2.7832 C 19.7266 -2.7832 20.2148 -3.125 20.8984 -4.15039 C 22.0215 -5.9082 23.3887 -6.5918 25.3418 -6.5918 C 27.832 -6.5918 29.4434 -5.27344 29.4434 -3.07617 C 29.4434 -1.07422 27.6367 0.244141 24.7559 0.244141 L 23.4863 0.244141 C 22.2656 0.244141 21.3867 1.12305 21.3867 2.34375 C 21.3867 3.51562 22.2656 4.3457 23.4863 4.3457 L 24.8535 4.3457 C 28.125 4.3457 29.9805 5.66406 29.9805 7.95898 C 29.9805 10.1562 28.0273 11.6211 25.4395 11.6211 C 23.1934 11.6211 21.4844 10.791 20.3613 9.0332 C 19.7754 8.05664 19.1406 7.66602 18.3594 7.66602 C 16.9434 7.66602 16.0645 8.59375 16.0645 9.86328 C 16.0645 13.623 21.0938 15.8203 25.4395 15.8203 Z M 47.1191 3.75977 L 135.4 3.75977 C 136.523 3.75977 137.354 2.92969 137.354 1.75781 C 137.354 0.634766 136.523 -0.195312 135.4 -0.195312 L 47.1191 -0.195312 C 45.9961 -0.195312 45.166 0.634766 45.166 1.75781 C 45.166 2.92969 45.9961 3.75977 47.1191 3.75977 Z"/>
  </g>
  <g id="Ultralight-L" transform="matrix(1 0 0 1 483.637 1556)">
   <path d="M 26.8066 -58.7402 C 28.3691 -58.7402 29.248 -59.668 29.248 -61.1816 L 29.248 -81.7871 C 29.248 -83.5449 28.1738 -84.6191 26.416 -84.6191 C 24.9023 -84.6191 24.0234 -83.9844 22.9492 -83.2031 L 18.3594 -79.9805 C 17.0898 -79.1016 16.6016 -78.5645 16.6016 -77.6367 C 16.6016 -76.4648 17.4805 -75.6836 18.6523 -75.6836 C 19.3848 -75.6836 19.7754 -75.7812 20.6543 -76.4648 L 24.2188 -79.3945 L 24.4141 -79.3945 L 24.4141 -61.1816 C 24.4141 -59.668 25.293 -58.7402 26.8066 -58.7402 Z M 46.1426 -70.6055 L 134.814 -70.6055 C 135.596 -70.6055 136.084 -71.0938 136.084 -71.9238 C 136.084 -72.7051 135.596 -73.1934 134.814 -73.1934 L 46.1426 -73.1934 C 45.3613 -73.1934 44.873 -72.7051 44.873 -71.9238 C 44.873 -71.0938 45.3613 -70.6055 46.1426 -70.6055 Z M 18.2617 -22.3633 L 32.959 -22.3633 C 33.9355 -22.3633 34.668 -23.1445 34.668 -24.1211 C 34.668 -25.2441 33.9844 -26.0254 32.959 -26.0254 L 22.4121 -26.0254 L 22.4121 -26.1719 L 28.4668 -31.8848 C 32.7148 -35.9375 33.7891 -37.5977 33.7891 -40.5762 C 33.7891 -44.7754 30.2246 -47.7051 25 -47.7051 C 19.8242 -47.7051 16.3574 -44.5801 16.3574 -41.2598 C 16.3574 -39.7949 17.1875 -39.1602 18.2617 -39.1602 C 19.3359 -39.1602 20.0195 -39.5996 20.4102 -40.8691 C 20.9473 -42.7246 22.6562 -43.8965 24.9512 -43.8965 C 27.3438 -43.8965 29.0527 -42.334 29.0527 -40.2832 C 29.0527 -38.2324 28.0762 -36.9629 25.0488 -34.0332 L 17.1875 -26.6602 C 16.4551 -25.9766 16.1621 -25.293 16.1621 -24.3652 C 16.1621 -23.1445 16.8945 -22.3633 18.2617 -22.3633 Z M 46.1426 -33.9355 L 134.814 -33.9355 C 135.596 -33.9355 136.084 -34.4238 136.084 -35.2051 C 136.084 -35.9863 135.596 -36.4746 134.814 -36.4746 L 46.1426 -36.4746 C 45.3613 -36.4746 44.873 -35.9863 44.873 -35.2051 C 44.873 -34.4238 45.3613 -33.9355 46.1426 -33.9355 Z M 25.0488 15.625 C 30.957 15.625 34.7656 12.793 34.7656 8.25195 C 34.7656 5.17578 32.8613 2.58789 28.418 2.24609 L 28.418 2.09961 C 32.1777 1.36719 33.7891 -0.830078 33.7891 -3.90625 C 33.7891 -7.66602 30.3711 -10.2539 25.0488 -10.2539 C 20.9473 -10.2539 16.5527 -8.00781 16.5527 -4.6875 C 16.5527 -3.4668 17.4805 -2.7832 18.4082 -2.7832 C 19.3359 -2.7832 19.8242 -3.07617 20.459 -4.15039 C 21.5332 -5.9082 22.9004 -6.68945 24.9512 -6.68945 C 27.5879 -6.68945 29.248 -5.27344 29.248 -2.97852 C 29.248 -0.927734 27.3438 0.488281 24.4141 0.488281 L 22.998 0.488281 C 21.9238 0.488281 21.0449 1.36719 21.0449 2.39258 C 21.0449 3.4668 21.9238 4.24805 22.998 4.24805 L 24.5117 4.24805 C 27.832 4.24805 29.834 5.66406 29.834 8.05664 C 29.834 10.3516 27.7832 11.9141 25.0488 11.9141 C 22.8027 11.9141 21.0938 11.1328 19.9707 9.22852 C 19.4336 8.25195 18.7988 7.86133 18.1152 7.86133 C 16.7969 7.86133 16.0645 8.69141 16.0645 9.81445 C 16.0645 13.4766 20.8496 15.625 25.0488 15.625 Z M 46.1426 2.7832 L 134.814 2.7832 C 135.596 2.7832 136.084 2.29492 136.084 1.51367 C 136.084 0.732422 135.596 0.244141 134.814 0.244141 L 46.1426 0.244141 C 45.3613 0.244141 44.873 0.732422 44.873 1.51367 C 44.873 2.29492 45.3613 2.7832 46.1426 2.7832 Z"/>
  </g>
  <g id="Black-M" transform="matrix(1 0 0 1 2864.7 1126)">
   <path d="M 24.7559 -54.7363 C 27.2461 -54.7363 29.0039 -56.1523 29.0039 -59.3262 L 29.0039 -75.7812 C 29.0039 -78.5645 27.002 -80.2246 24.1699 -80.2246 C 22.0703 -80.2246 20.6055 -79.541 18.8477 -78.418 L 15.3809 -76.1719 C 14.0625 -75.3906 13.5742 -74.5605 13.5742 -73.1934 C 13.5742 -71.3867 14.7461 -70.166 16.2598 -70.3125 C 16.9434 -70.3613 17.3828 -70.3613 18.3594 -70.9961 L 20.2637 -72.2168 L 20.459 -72.2168 L 20.459 -59.3262 C 20.459 -56.1523 22.168 -54.7363 24.7559 -54.7363 Z M 52.2949 -59.375 L 116.748 -59.375 C 121.289 -59.375 124.951 -62.9395 124.951 -67.5293 C 124.951 -72.0703 121.338 -75.7324 116.748 -75.7324 L 52.2949 -75.7324 C 47.7539 -75.7324 44.0918 -72.1191 44.0918 -67.5293 C 44.0918 -62.9883 47.7051 -59.375 52.2949 -59.375 Z M 16.0645 -22.8516 L 30.127 -22.8516 C 32.0801 -22.8516 33.4961 -23.9746 33.4961 -26.0742 C 33.4961 -27.9297 32.0801 -29.1992 30.127 -29.1992 L 23.7793 -29.1992 L 23.7793 -29.3457 L 27.5879 -32.2754 C 30.957 -34.9121 32.8125 -36.4746 32.8125 -39.9902 C 32.8125 -44.5801 28.8086 -47.4609 22.4609 -47.4609 C 16.9922 -47.4609 13.1348 -44.9707 13.1348 -41.5527 C 13.1348 -39.5508 14.4531 -38.4277 16.6504 -38.4277 C 17.8711 -38.4277 18.8477 -38.8672 20.0195 -39.9902 C 20.9473 -40.8203 21.582 -41.2109 22.5586 -41.2109 C 23.6816 -41.2109 24.5605 -40.5273 24.5605 -39.3555 C 24.5605 -38.2812 23.877 -37.5488 21.2402 -35.4004 L 14.502 -29.9805 C 13.2812 -29.0039 12.6953 -27.8809 12.6953 -26.3184 C 12.6953 -24.3164 14.0137 -22.8516 16.0645 -22.8516 Z M 52.2949 -27.002 L 116.748 -27.002 C 121.289 -27.002 124.951 -30.6152 124.951 -35.2051 C 124.951 -39.7461 121.338 -43.4082 116.748 -43.4082 L 52.2949 -43.4082 C 47.7539 -43.4082 44.0918 -39.7949 44.0918 -35.2051 C 44.0918 -30.6641 47.7051 -27.002 52.2949 -27.002 Z M 22.5098 9.91211 C 29.6875 9.91211 33.6914 7.03125 33.6914 2.29492 C 33.6914 -0.78125 31.5918 -2.7832 27.832 -3.07617 L 27.832 -3.27148 C 30.2734 -3.75977 32.6172 -5.71289 32.6172 -8.88672 C 32.6172 -13.3789 28.0762 -15.5273 22.5098 -15.5273 C 18.2617 -15.5273 13.1348 -13.8184 13.1348 -9.76562 C 13.1348 -8.00781 14.4043 -6.78711 16.5039 -6.78711 C 17.7734 -6.78711 18.4082 -7.17773 19.2871 -7.86133 C 20.6543 -8.98438 21.582 -9.32617 22.5098 -9.32617 C 23.7793 -9.32617 24.8047 -8.83789 24.8047 -7.56836 C 24.8047 -6.44531 23.877 -5.76172 22.2656 -5.76172 L 21.4355 -5.76172 C 19.9707 -5.76172 18.8965 -4.83398 18.8965 -3.02734 C 18.8965 -1.2207 19.873 -0.244141 21.4355 -0.244141 L 22.2656 -0.244141 C 23.9258 -0.244141 24.8535 0.341797 24.9512 1.61133 C 25 2.63672 23.877 3.32031 22.5098 3.32031 C 20.752 3.32031 19.4336 2.14844 18.5059 1.61133 C 17.9199 1.2207 17.1875 0.732422 16.0645 0.732422 C 13.9648 0.732422 12.4512 1.95312 12.4512 4.05273 C 12.4512 7.71484 17.5781 9.91211 22.5098 9.91211 Z M 52.2949 5.32227 L 116.748 5.32227 C 121.289 5.32227 124.951 1.75781 124.951 -2.83203 C 124.951 -7.37305 121.338 -11.0352 116.748 -11.0352 L 52.2949 -11.0352 C 47.7539 -11.0352 44.0918 -7.4707 44.0918 -2.83203 C 44.0918 1.66016 47.7051 5.32227 52.2949 5.32227 Z"/>
  </g>
  <g id="Heavy-M" transform="matrix(1 0 0 1 2569.65 1126)">
   <path d="M 24.3652 -54.7852 C 26.709 -54.7852 28.3691 -56.1035 28.3691 -59.0332 L 28.3691 -75.3418 C 28.3691 -77.9297 26.4648 -79.541 23.8281 -79.541 C 21.7773 -79.541 20.459 -78.9062 18.7988 -77.832 L 15.332 -75.5371 C 14.1113 -74.7559 13.5742 -73.9746 13.5742 -72.7051 C 13.5742 -70.9961 14.7461 -69.873 16.1621 -69.9707 C 16.7969 -70.0195 17.2363 -70.0684 18.1641 -70.6543 L 20.1172 -71.9727 L 20.3125 -71.9727 L 20.3125 -59.0332 C 20.3125 -56.1035 21.9238 -54.7852 24.3652 -54.7852 Z M 49.4141 -59.7168 L 114.404 -59.7168 C 118.408 -59.7168 121.631 -62.8418 121.631 -66.8945 C 121.631 -70.8496 118.457 -74.0723 114.404 -74.0723 L 49.4141 -74.0723 C 45.4102 -74.0723 42.2363 -70.8984 42.2363 -66.8945 C 42.2363 -62.8906 45.3613 -59.7168 49.4141 -59.7168 Z M 15.8691 -23.4863 L 29.5898 -23.4863 C 31.3965 -23.4863 32.7148 -24.5605 32.7148 -26.4648 C 32.7148 -28.2227 31.3965 -29.3945 29.5898 -29.3945 L 23.0957 -29.3945 L 23.0957 -29.5898 L 26.9043 -32.5684 C 30.2734 -35.2051 32.0312 -36.7676 32.0312 -40.1367 C 32.0312 -44.5801 28.1738 -47.4121 22.0703 -47.4121 C 16.8457 -47.4121 13.0859 -44.9219 13.0859 -41.5527 C 13.0859 -39.6484 14.3066 -38.623 16.3574 -38.623 C 17.5781 -38.623 18.5059 -39.0137 19.5801 -40.1367 C 20.459 -41.1133 21.1426 -41.5039 22.2168 -41.5039 C 23.3887 -41.5039 24.3164 -40.7715 24.3164 -39.5508 C 24.3164 -38.4766 23.6328 -37.6465 21.0449 -35.5469 L 14.3555 -30.1758 C 13.1836 -29.248 12.6465 -28.1738 12.6465 -26.709 C 12.6465 -24.8047 13.916 -23.4863 15.8691 -23.4863 Z M 49.4141 -28.0273 L 114.404 -28.0273 C 118.408 -28.0273 121.631 -31.1523 121.631 -35.2051 C 121.631 -39.1602 118.457 -42.3828 114.404 -42.3828 L 49.4141 -42.3828 C 45.4102 -42.3828 42.2363 -39.209 42.2363 -35.2051 C 42.2363 -31.2012 45.3613 -28.0273 49.4141 -28.0273 Z M 22.168 8.74023 C 29.0039 8.74023 32.9102 5.95703 32.9102 1.36719 C 32.9102 -1.61133 30.8105 -3.61328 27.1484 -3.90625 L 27.1484 -4.05273 C 29.5898 -4.54102 31.8848 -6.44531 31.8848 -9.52148 C 31.8848 -13.8672 27.5391 -15.9668 22.168 -15.9668 C 18.0176 -15.9668 13.0859 -14.2578 13.0859 -10.4004 C 13.0859 -8.69141 14.3066 -7.51953 16.2598 -7.51953 C 17.4805 -7.51953 18.0664 -7.95898 18.8965 -8.64258 C 20.2148 -9.81445 21.1426 -10.1562 22.168 -10.1562 C 23.4375 -10.1562 24.5117 -9.57031 24.5117 -8.30078 C 24.5117 -7.12891 23.5352 -6.44531 21.8262 -6.44531 L 21.0938 -6.44531 C 19.6289 -6.44531 18.6035 -5.56641 18.6035 -3.80859 C 18.6035 -2.14844 19.5312 -1.2207 21.0938 -1.2207 L 21.8262 -1.2207 C 23.6328 -1.2207 24.6094 -0.585938 24.6582 0.732422 C 24.707 1.85547 23.584 2.58789 22.168 2.58789 C 20.4102 2.58789 19.1406 1.46484 18.2129 0.830078 C 17.5781 0.390625 16.9434 -0.0488281 15.8691 -0.0488281 C 13.8672 -0.0488281 12.4512 1.12305 12.4512 3.02734 C 12.4512 6.64062 17.4316 8.74023 22.168 8.74023 Z M 49.4141 3.66211 L 114.404 3.66211 C 118.408 3.66211 121.631 0.537109 121.631 -3.51562 C 121.631 -7.51953 118.457 -10.6934 114.404 -10.6934 L 49.4141 -10.6934 C 45.4102 -10.6934 42.2363 -7.56836 42.2363 -3.51562 C 42.2363 0.488281 45.3613 3.66211 49.4141 3.66211 Z"/>
  </g>
  <g id="Bold-M" transform="matrix(1 0 0 1 2274.82 1126)">
   <path d="M 23.9258 -54.834 C 26.123 -54.834 27.6367 -56.0547 27.6367 -58.7402 L 27.6367 -74.8535 C 27.6367 -77.2949 25.8789 -78.7598 23.4375 -78.7598 C 21.4844 -78.7598 20.2637 -78.125 18.75 -77.1484 L 15.2832 -74.8535 C 14.1113 -74.0723 13.623 -73.3887 13.623 -72.168 C 13.623 -70.6055 14.6973 -69.5801 16.0156 -69.6289 C 16.6504 -69.6777 17.041 -69.7266 17.9688 -70.3125 L 20.0195 -71.7285 L 20.166 -71.7285 L 20.166 -58.7402 C 20.166 -56.0547 21.6797 -54.834 23.9258 -54.834 Z M 46.1426 -60.0586 L 111.816 -60.0586 C 115.186 -60.0586 117.871 -62.7441 117.871 -66.1133 C 117.871 -69.4824 115.234 -72.168 111.816 -72.168 L 46.1426 -72.168 C 42.7734 -72.168 40.0879 -69.5312 40.0879 -66.1133 C 40.0879 -62.7441 42.7734 -60.0586 46.1426 -60.0586 Z M 15.6738 -24.1699 L 28.9551 -24.1699 C 30.6152 -24.1699 31.8359 -25.1465 31.8359 -26.9043 C 31.8359 -28.5645 30.6152 -29.6387 28.9551 -29.6387 L 22.3145 -29.6387 L 22.3145 -29.834 L 26.1719 -32.9102 C 29.541 -35.5469 31.1523 -37.1582 31.1523 -40.332 C 31.1523 -44.5801 27.4902 -47.3145 21.6797 -47.3145 C 16.6016 -47.3145 12.9883 -44.873 12.9883 -41.6016 C 12.9883 -39.7949 14.1602 -38.8184 16.0645 -38.8184 C 17.2852 -38.8184 18.1152 -39.209 19.043 -40.332 C 19.873 -41.3574 20.6055 -41.8457 21.7773 -41.8457 C 23.0469 -41.8457 24.0234 -41.0645 24.0234 -39.7949 C 24.0234 -38.6719 23.3398 -37.793 20.8008 -35.6934 L 14.209 -30.3711 C 13.1348 -29.4922 12.6465 -28.5156 12.6465 -27.1484 C 12.6465 -25.3906 13.8184 -24.1699 15.6738 -24.1699 Z M 46.1426 -29.1504 L 111.816 -29.1504 C 115.186 -29.1504 117.871 -31.7871 117.871 -35.2051 C 117.871 -38.5742 115.234 -41.2598 111.816 -41.2598 L 46.1426 -41.2598 C 42.7734 -41.2598 40.0879 -38.623 40.0879 -35.2051 C 40.0879 -31.8359 42.7734 -29.1504 46.1426 -29.1504 Z M 21.7773 7.4707 C 28.2715 7.4707 31.9824 4.73633 31.9824 0.292969 C 31.9824 -2.58789 29.9805 -4.49219 26.416 -4.83398 L 26.416 -4.98047 C 28.8574 -5.46875 31.0059 -7.22656 31.0059 -10.2539 C 31.0059 -14.3555 26.9043 -16.4551 21.7285 -16.4551 C 17.7246 -16.4551 13.0371 -14.6973 13.0371 -11.084 C 13.0371 -9.52148 14.1602 -8.39844 15.9668 -8.39844 C 17.1387 -8.39844 17.7246 -8.83789 18.5059 -9.52148 C 19.7266 -10.6934 20.6543 -11.0352 21.7285 -11.0352 C 23.0957 -11.0352 24.1699 -10.4492 24.1699 -9.08203 C 24.1699 -7.86133 23.1445 -7.12891 21.3379 -7.12891 L 20.6543 -7.12891 C 19.2383 -7.12891 18.2617 -6.34766 18.2617 -4.73633 C 18.2617 -3.17383 19.1895 -2.29492 20.6543 -2.29492 L 21.3867 -2.29492 C 23.3398 -2.29492 24.3652 -1.66016 24.4141 -0.244141 C 24.4141 0.927734 23.2422 1.75781 21.7773 1.75781 C 20.0195 1.75781 18.75 0.683594 17.8223 -0.0488281 C 17.2363 -0.488281 16.6504 -0.976562 15.625 -0.976562 C 13.7695 -0.976562 12.4512 0.146484 12.4512 1.9043 C 12.4512 5.41992 17.2852 7.4707 21.7773 7.4707 Z M 46.1426 1.80664 L 111.816 1.80664 C 115.186 1.80664 117.871 -0.878906 117.871 -4.24805 C 117.871 -7.61719 115.234 -10.3027 111.816 -10.3027 L 46.1426 -10.3027 C 42.7734 -10.3027 40.0879 -7.66602 40.0879 -4.24805 C 40.0879 -0.878906 42.7734 1.80664 46.1426 1.80664 Z"/>
  </g>
  <g id="Semibold-M" transform="matrix(1 0 0 1 1979.38 1126)">
   <path d="M 23.6328 -54.834 C 25.6836 -54.834 27.1484 -56.0059 27.1484 -58.5449 L 27.1484 -74.5117 C 27.1484 -76.8066 25.4883 -78.2227 23.1445 -78.2227 C 21.2891 -78.2227 20.1172 -77.6367 18.7012 -76.709 L 15.2344 -74.3652 C 14.1602 -73.6328 13.623 -72.9492 13.623 -71.7773 C 13.623 -70.3613 14.6973 -69.3848 15.918 -69.4336 C 16.5527 -69.4336 16.9434 -69.4824 17.8223 -70.0684 L 19.9219 -71.5332 L 20.0684 -71.5332 L 20.0684 -58.5449 C 20.0684 -56.0059 21.4844 -54.834 23.6328 -54.834 Z M 43.9453 -60.3516 L 110.01 -60.3516 C 112.988 -60.3516 115.332 -62.6465 115.332 -65.625 C 115.332 -68.5547 112.988 -70.8984 110.01 -70.8984 L 43.9453 -70.8984 C 40.9668 -70.8984 38.6719 -68.6035 38.6719 -65.625 C 38.6719 -62.6465 40.9668 -60.3516 43.9453 -60.3516 Z M 15.5273 -24.6094 L 28.5156 -24.6094 C 30.0781 -24.6094 31.2012 -25.5859 31.2012 -27.1973 C 31.2012 -28.8086 30.0781 -29.834 28.5156 -29.834 L 21.7773 -29.834 L 21.7773 -29.9805 L 25.6836 -33.1055 C 29.0527 -35.791 30.5176 -37.4023 30.5176 -40.4297 C 30.5176 -44.5801 27.002 -47.2656 21.3867 -47.2656 C 16.4551 -47.2656 12.9395 -44.8242 12.9395 -41.6504 C 12.9395 -39.9414 14.0625 -38.9648 15.8691 -38.9648 C 17.041 -38.9648 17.8711 -39.3555 18.7012 -40.4785 C 19.4336 -41.5527 20.2637 -42.0898 21.4844 -42.0898 C 22.8027 -42.0898 23.7793 -41.2598 23.7793 -39.9414 C 23.7793 -38.8184 23.1445 -37.8906 20.6055 -35.8398 L 14.1113 -30.5176 C 13.0371 -29.6387 12.5977 -28.7109 12.5977 -27.4902 C 12.5977 -25.7812 13.7695 -24.6094 15.5273 -24.6094 Z M 43.9453 -29.9316 L 110.01 -29.9316 C 112.988 -29.9316 115.332 -32.2266 115.332 -35.2051 C 115.332 -38.1348 112.988 -40.4785 110.01 -40.4785 L 43.9453 -40.4785 C 40.9668 -40.4785 38.6719 -38.1836 38.6719 -35.2051 C 38.6719 -32.2266 40.9668 -29.9316 43.9453 -29.9316 Z M 21.4844 6.54297 C 27.7344 6.54297 31.3477 3.85742 31.3477 -0.439453 C 31.3477 -3.27148 29.3945 -5.12695 25.8789 -5.46875 L 25.8789 -5.61523 C 28.3691 -6.05469 30.4199 -7.8125 30.4199 -10.7422 C 30.4199 -14.6973 26.5137 -16.7969 21.4844 -16.7969 C 17.4805 -16.7969 13.0371 -15.0391 13.0371 -11.5234 C 13.0371 -10.0586 14.1113 -8.98438 15.7715 -8.98438 C 16.9434 -8.98438 17.4316 -9.42383 18.2129 -10.1562 C 19.3848 -11.3281 20.3125 -11.6699 21.4355 -11.6699 C 22.8516 -11.6699 23.9746 -11.0352 23.9746 -9.66797 C 23.9746 -8.34961 22.9004 -7.66602 20.9961 -7.66602 L 20.3613 -7.66602 C 18.9453 -7.66602 18.0176 -6.88477 18.0176 -5.37109 C 18.0176 -3.85742 18.8965 -3.07617 20.3613 -3.07617 L 21.0449 -3.07617 C 23.0957 -3.07617 24.1699 -2.34375 24.2188 -0.927734 C 24.2188 0.341797 23.0469 1.17188 21.4844 1.17188 C 19.7266 1.17188 18.5059 0.146484 17.5781 -0.634766 C 16.9922 -1.12305 16.4062 -1.5625 15.4297 -1.5625 C 13.6719 -1.5625 12.4512 -0.537109 12.4512 1.17188 C 12.4512 4.58984 17.1875 6.54297 21.4844 6.54297 Z M 43.9453 0.488281 L 110.01 0.488281 C 112.988 0.488281 115.332 -1.80664 115.332 -4.78516 C 115.332 -7.71484 112.988 -10.0586 110.01 -10.0586 L 43.9453 -10.0586 C 40.9668 -10.0586 38.6719 -7.76367 38.6719 -4.78516 C 38.6719 -1.80664 40.9668 0.488281 43.9453 0.488281 Z"/>
  </g>
  <g id="Medium-M" transform="matrix(1 0 0 1 1683.64 1126)">
   <path d="M 23.3887 -54.8828 C 25.3906 -54.8828 26.7578 -55.957 26.7578 -58.3984 L 26.7578 -74.2676 C 26.7578 -76.4648 25.1953 -77.832 22.9492 -77.832 C 21.1426 -77.832 20.0195 -77.1973 18.7012 -76.3672 L 15.2344 -73.9746 C 14.1602 -73.291 13.6719 -72.6074 13.6719 -71.4844 C 13.6719 -70.1172 14.6973 -69.1895 15.8691 -69.2383 C 16.5039 -69.2383 16.8457 -69.3359 17.6758 -69.9219 L 19.873 -71.3867 L 19.9707 -71.3867 L 19.9707 -58.3984 C 19.9707 -55.957 21.3379 -54.8828 23.3887 -54.8828 Z M 42.2363 -60.5469 L 108.643 -60.5469 C 111.279 -60.5469 113.379 -62.5977 113.379 -65.2344 C 113.379 -67.8711 111.328 -69.9219 108.643 -69.9219 L 42.2363 -69.9219 C 39.5996 -69.9219 37.5488 -67.8711 37.5488 -65.2344 C 37.5488 -62.5977 39.5996 -60.5469 42.2363 -60.5469 Z M 15.3809 -24.9512 L 28.2227 -24.9512 C 29.6387 -24.9512 30.7617 -25.9277 30.7617 -27.4414 C 30.7617 -29.0039 29.6875 -29.9805 28.2227 -29.9805 L 21.3379 -29.9805 L 21.3379 -30.0781 L 25.293 -33.252 C 28.6621 -35.9863 30.0781 -37.5488 30.0781 -40.5273 C 30.0781 -44.5801 26.6602 -47.2656 21.1914 -47.2656 C 16.3574 -47.2656 12.8906 -44.8242 12.8906 -41.6504 C 12.8906 -39.9902 13.9648 -39.1113 15.7227 -39.1113 C 16.8457 -39.1113 17.6758 -39.502 18.4082 -40.5762 C 19.1406 -41.6992 20.0195 -42.2852 21.2891 -42.2852 C 22.6562 -42.2852 23.6328 -41.4062 23.6328 -40.0879 C 23.6328 -38.916 23.0469 -37.9883 20.5078 -35.8887 L 14.0137 -30.6152 C 13.0371 -29.7852 12.5977 -28.9062 12.5977 -27.7344 C 12.5977 -26.123 13.6719 -24.9512 15.3809 -24.9512 Z M 42.2363 -30.5176 L 108.643 -30.5176 C 111.279 -30.5176 113.379 -32.5684 113.379 -35.2051 C 113.379 -37.8418 111.328 -39.8926 108.643 -39.8926 L 42.2363 -39.8926 C 39.5996 -39.8926 37.5488 -37.8418 37.5488 -35.2051 C 37.5488 -32.5684 39.5996 -30.5176 42.2363 -30.5176 Z M 21.2891 5.85938 C 27.3438 5.85938 30.8594 3.22266 30.8594 -0.976562 C 30.8594 -3.75977 28.9551 -5.61523 25.4883 -5.9082 L 25.4883 -6.05469 C 27.9785 -6.54297 29.9805 -8.25195 29.9805 -11.1328 C 29.9805 -14.9902 26.1719 -17.041 21.2402 -17.041 C 17.334 -17.041 12.9883 -15.2832 12.9883 -11.9141 C 12.9883 -10.4492 14.0625 -9.42383 15.625 -9.42383 C 16.748 -9.42383 17.2852 -9.86328 17.9688 -10.5957 C 19.1406 -11.8164 20.0684 -12.1582 21.2402 -12.1582 C 22.7051 -12.1582 23.7793 -11.4746 23.7793 -10.0586 C 23.7793 -8.74023 22.7051 -8.05664 20.752 -8.05664 L 20.1172 -8.05664 C 18.75 -8.05664 17.8223 -7.32422 17.8223 -5.81055 C 17.8223 -4.39453 18.7012 -3.61328 20.1172 -3.61328 L 20.8008 -3.61328 C 22.9004 -3.61328 24.0234 -2.92969 24.0723 -1.46484 C 24.0723 -0.146484 22.8516 0.732422 21.2891 0.732422 C 19.5312 0.732422 18.3105 -0.244141 17.3828 -1.07422 C 16.7969 -1.61133 16.2598 -2.05078 15.332 -2.05078 C 13.623 -2.05078 12.4512 -1.07422 12.4512 0.585938 C 12.4512 3.95508 17.1387 5.85938 21.2891 5.85938 Z M 42.2363 -0.488281 L 108.643 -0.488281 C 111.279 -0.488281 113.379 -2.53906 113.379 -5.17578 C 113.379 -7.8125 111.328 -9.86328 108.643 -9.86328 L 42.2363 -9.86328 C 39.5996 -9.86328 37.5488 -7.8125 37.5488 -5.17578 C 37.5488 -2.53906 39.5996 -0.488281 42.2363 -0.488281 Z"/>
  </g>
  <g id="Regular-M" transform="matrix(1 0 0 1 1388.2 1126)">
   <path d="M 23.0957 -54.8828 C 24.9512 -54.8828 26.2695 -55.957 26.2695 -58.1543 L 26.2695 -73.9258 C 26.2695 -75.9766 24.8047 -77.2949 22.6562 -77.2949 C 20.9473 -77.2949 19.873 -76.709 18.6523 -75.8789 L 15.1855 -73.4863 C 14.209 -72.8027 13.6719 -72.168 13.6719 -71.1426 C 13.6719 -69.873 14.6484 -68.9941 15.7715 -68.9941 C 16.4062 -68.9941 16.6992 -69.0918 17.5293 -69.6777 L 19.7754 -71.1914 L 19.873 -71.1914 L 19.873 -58.1543 C 19.873 -55.957 21.1426 -54.8828 23.0957 -54.8828 Z M 40.0391 -60.791 L 106.885 -60.791 C 109.082 -60.791 110.84 -62.5 110.84 -64.6973 C 110.84 -66.9434 109.082 -68.6523 106.885 -68.6523 L 40.0391 -68.6523 C 37.8418 -68.6523 36.084 -66.9434 36.084 -64.6973 C 36.084 -62.5 37.8418 -60.791 40.0391 -60.791 Z M 15.2344 -25.4395 L 27.7832 -25.4395 C 29.1016 -25.4395 30.127 -26.3672 30.127 -27.7344 C 30.127 -29.1992 29.1504 -30.127 27.7832 -30.127 L 20.8008 -30.127 L 20.8008 -30.2734 L 24.8047 -33.4961 C 28.125 -36.2305 29.4434 -37.793 29.4434 -40.6738 C 29.4434 -44.5801 26.1719 -47.2168 20.8984 -47.2168 C 16.2109 -47.2168 12.8418 -44.7754 12.8418 -41.6504 C 12.8418 -40.0879 13.8672 -39.2578 15.5273 -39.2578 C 16.6504 -39.2578 17.3828 -39.5996 18.0664 -40.7227 C 18.75 -41.8945 19.6289 -42.5293 20.9961 -42.5293 C 22.4121 -42.5293 23.4375 -41.6016 23.4375 -40.2344 C 23.4375 -39.0625 22.8516 -38.0371 20.3125 -36.0352 L 13.916 -30.7617 C 12.9395 -29.9805 12.5488 -29.1016 12.5488 -28.0273 C 12.5488 -26.5137 13.623 -25.4395 15.2344 -25.4395 Z M 40.0391 -31.25 L 106.885 -31.25 C 109.082 -31.25 110.84 -33.0078 110.84 -35.2051 C 110.84 -37.4023 109.082 -39.1113 106.885 -39.1113 L 40.0391 -39.1113 C 37.8418 -39.1113 36.084 -37.4023 36.084 -35.2051 C 36.084 -33.0078 37.8418 -31.25 40.0391 -31.25 Z M 20.9961 4.98047 C 26.8066 4.98047 30.2246 2.39258 30.2246 -1.70898 C 30.2246 -4.39453 28.3691 -6.25 25 -6.54297 L 25 -6.68945 C 27.4414 -7.12891 29.3945 -8.78906 29.3945 -11.6211 C 29.3945 -15.332 25.7812 -17.3828 20.9473 -17.3828 C 17.1387 -17.3828 12.9883 -15.5762 12.9883 -12.3535 C 12.9883 -10.9863 13.9648 -10.0098 15.4785 -10.0098 C 16.5527 -10.0098 17.041 -10.4492 17.7246 -11.1816 C 18.8477 -12.4023 19.7266 -12.793 20.9473 -12.793 C 22.4609 -12.793 23.584 -12.0605 23.584 -10.5957 C 23.584 -9.22852 22.4121 -8.54492 20.4102 -8.54492 L 19.873 -8.54492 C 18.5059 -8.54492 17.627 -7.86133 17.627 -6.44531 C 17.627 -5.12695 18.457 -4.3457 19.873 -4.3457 L 20.5078 -4.3457 C 22.7051 -4.3457 23.877 -3.61328 23.877 -2.09961 C 23.877 -0.78125 22.6562 0.195312 20.9961 0.195312 C 19.2871 0.195312 18.0664 -0.78125 17.1387 -1.70898 C 16.5527 -2.24609 16.0645 -2.63672 15.1367 -2.63672 C 13.5742 -2.63672 12.4512 -1.70898 12.4512 -0.195312 C 12.4512 3.17383 17.041 4.98047 20.9961 4.98047 Z M 40.0391 -1.75781 L 106.885 -1.75781 C 109.082 -1.75781 110.84 -3.4668 110.84 -5.66406 C 110.84 -7.91016 109.082 -9.61914 106.885 -9.61914 L 40.0391 -9.61914 C 37.8418 -9.61914 36.084 -7.91016 36.084 -5.66406 C 36.084 -3.4668 37.8418 -1.75781 40.0391 -1.75781 Z"/>
  </g>
  <g id="Light-M" transform="matrix(1 0 0 1 1092.32 1126)">
   <path d="M 22.3633 -54.4434 C 24.0234 -54.4434 25.1465 -55.3711 25.1465 -57.2754 L 25.1465 -73.0957 C 25.1465 -74.9512 23.877 -76.123 22.0215 -76.123 C 20.4102 -76.123 19.4824 -75.5859 18.4082 -74.8047 L 14.8926 -72.3633 C 13.916 -71.6797 13.4277 -71.1426 13.4277 -70.2148 C 13.4277 -69.043 14.3066 -68.2617 15.3809 -68.2617 C 15.9668 -68.2617 16.2598 -68.3594 17.041 -68.8965 L 19.4824 -70.6543 L 19.5801 -70.6543 L 19.5801 -57.2754 C 19.5801 -55.3711 20.6543 -54.4434 22.3633 -54.4434 Z M 38.7207 -61.377 L 106.152 -61.377 C 107.861 -61.377 109.18 -62.6953 109.18 -64.4043 C 109.18 -66.1133 107.861 -67.3828 106.152 -67.3828 L 38.7207 -67.3828 C 37.0117 -67.3828 35.6934 -66.1133 35.6934 -64.4043 C 35.6934 -62.6953 37.0117 -61.377 38.7207 -61.377 Z M 14.8926 -25.3906 L 27.0996 -25.3906 C 28.2227 -25.3906 29.1016 -26.2207 29.1016 -27.3926 C 29.1016 -28.7109 28.2715 -29.4922 27.0996 -29.4922 L 19.7266 -29.4922 L 19.7266 -29.6387 L 23.9258 -33.2031 C 27.2949 -36.084 28.418 -37.5977 28.418 -40.2832 C 28.418 -43.9453 25.293 -46.4844 20.4102 -46.4844 C 15.9668 -46.4844 12.793 -44.043 12.793 -41.1133 C 12.793 -39.6973 13.7207 -38.9648 15.0879 -38.9648 C 16.1133 -38.9648 16.7969 -39.3066 17.334 -40.3809 C 17.9688 -41.6504 18.9941 -42.334 20.5078 -42.334 C 22.0215 -42.334 23.1445 -41.3086 23.1445 -39.8926 C 23.1445 -38.5742 22.5098 -37.5977 20.0195 -35.498 L 13.7207 -30.0781 C 12.8906 -29.3945 12.5488 -28.6133 12.5488 -27.6367 C 12.5488 -26.3184 13.4766 -25.3906 14.8926 -25.3906 Z M 38.7207 -32.1777 L 106.152 -32.1777 C 107.861 -32.1777 109.18 -33.4961 109.18 -35.2051 C 109.18 -36.9141 107.861 -38.2324 106.152 -38.2324 L 38.7207 -38.2324 C 37.0117 -38.2324 35.6934 -36.9141 35.6934 -35.2051 C 35.6934 -33.4961 37.0117 -32.1777 38.7207 -32.1777 Z M 20.5078 4.73633 C 25.9277 4.73633 29.1992 2.24609 29.1992 -1.66016 C 29.1992 -4.24805 27.4902 -6.15234 24.0723 -6.44531 L 24.0723 -6.5918 C 26.6602 -7.08008 28.418 -8.69141 28.418 -11.4258 C 28.418 -14.8926 25.0977 -16.8945 20.5078 -16.8945 C 16.8457 -16.8945 12.9395 -15.1367 12.9395 -12.1094 C 12.9395 -10.8887 13.8184 -10.0586 15.0879 -10.0586 C 16.0645 -10.0586 16.5039 -10.4004 17.1387 -11.1816 C 18.1641 -12.4512 19.1406 -12.8906 20.459 -12.8906 C 22.1191 -12.8906 23.291 -12.0605 23.291 -10.498 C 23.291 -9.08203 22.0215 -8.25195 19.9707 -8.25195 L 19.2383 -8.25195 C 18.0176 -8.25195 17.2363 -7.56836 17.2363 -6.29883 C 17.2363 -5.17578 18.0176 -4.44336 19.2383 -4.44336 L 20.0195 -4.44336 C 22.3633 -4.44336 23.6328 -3.61328 23.6328 -2.00195 C 23.6328 -0.488281 22.2656 0.537109 20.5078 0.537109 C 18.7988 0.537109 17.5293 -0.341797 16.6504 -1.41602 C 16.1133 -2.00195 15.5762 -2.39258 14.7949 -2.39258 C 13.3789 -2.39258 12.4512 -1.5625 12.4512 -0.244141 C 12.4512 2.97852 16.748 4.73633 20.5078 4.73633 Z M 38.7207 -2.97852 L 106.152 -2.97852 C 107.861 -2.97852 109.18 -4.29688 109.18 -6.00586 C 109.18 -7.71484 107.861 -9.0332 106.152 -9.0332 L 38.7207 -9.0332 C 37.0117 -9.0332 35.6934 -7.71484 35.6934 -6.00586 C 35.6934 -4.29688 37.0117 -2.97852 38.7207 -2.97852 Z"/>
  </g>
  <g id="Thin-M" transform="matrix(1 0 0 1 796.705 1126)">
   <path d="M 21.4355 -53.8574 C 22.8027 -53.8574 23.6816 -54.6875 23.6816 -56.1035 L 23.6816 -72.0215 C 23.6816 -73.584 22.6562 -74.5605 21.0938 -74.5605 C 19.7754 -74.5605 18.9941 -74.0723 18.0176 -73.3887 L 14.502 -70.8984 C 13.5254 -70.2148 13.0859 -69.7754 13.0859 -68.9453 C 13.0859 -67.9199 13.8672 -67.2852 14.8438 -67.2852 C 15.3809 -67.2852 15.7227 -67.334 16.4062 -67.8711 L 19.043 -69.9219 L 19.1895 -69.9219 L 19.1895 -56.1035 C 19.1895 -54.6875 20.0195 -53.8574 21.4355 -53.8574 Z M 36.9629 -62.1582 L 105.176 -62.1582 C 106.201 -62.1582 106.982 -62.8906 106.982 -63.9648 C 106.982 -64.9902 106.201 -65.7715 105.176 -65.7715 L 36.9629 -65.7715 C 35.8887 -65.7715 35.1562 -64.9902 35.1562 -63.9648 C 35.1562 -62.8906 35.8887 -62.1582 36.9629 -62.1582 Z M 14.4531 -25.3418 L 26.1719 -25.3418 C 27.0996 -25.3418 27.7832 -26.0254 27.7832 -26.9531 C 27.7832 -27.9785 27.1484 -28.6621 26.1719 -28.6621 L 18.3594 -28.6621 L 18.3594 -28.8086 L 22.8027 -32.8613 C 26.123 -35.8887 27.0996 -37.2559 27.0996 -39.7461 C 27.0996 -43.1641 24.2188 -45.5566 19.7754 -45.5566 C 15.625 -45.5566 12.7441 -43.1152 12.7441 -40.3809 C 12.7441 -39.1113 13.4766 -38.5742 14.5508 -38.5742 C 15.4297 -38.5742 16.0645 -38.8672 16.4551 -39.8926 C 16.9434 -41.2598 18.1641 -42.0898 19.8242 -42.0898 C 21.5332 -42.0898 22.8027 -40.9668 22.8027 -39.4531 C 22.8027 -37.9883 22.0703 -36.9629 19.6777 -34.7656 L 13.4766 -29.1992 C 12.793 -28.6133 12.5 -27.9785 12.5 -27.1484 C 12.5 -26.0254 13.2324 -25.3418 14.4531 -25.3418 Z M 36.9629 -33.3984 L 105.176 -33.3984 C 106.201 -33.3984 106.982 -34.1309 106.982 -35.2051 C 106.982 -36.2793 106.201 -37.0117 105.176 -37.0117 L 36.9629 -37.0117 C 35.8887 -37.0117 35.1562 -36.2793 35.1562 -35.2051 C 35.1562 -34.1309 35.8887 -33.3984 36.9629 -33.3984 Z M 19.873 4.39453 C 24.7559 4.39453 27.8809 2.09961 27.8809 -1.5625 C 27.8809 -4.05273 26.2695 -6.00586 22.8516 -6.29883 L 22.8516 -6.39648 C 25.6348 -6.93359 27.0996 -8.64258 27.0996 -11.1328 C 27.0996 -14.3066 24.1699 -16.3086 19.873 -16.3086 C 16.5039 -16.3086 12.8418 -14.5508 12.8418 -11.8164 C 12.8418 -10.6934 13.6719 -10.0586 14.5996 -10.0586 C 15.4297 -10.0586 15.8203 -10.3516 16.3574 -11.1328 C 17.2852 -12.5 18.3105 -12.9883 19.8242 -12.9883 C 21.6797 -12.9883 22.9004 -12.0117 22.9004 -10.3516 C 22.9004 -8.83789 21.5332 -7.8125 19.3359 -7.8125 L 18.4082 -7.8125 C 17.4316 -7.8125 16.6992 -7.12891 16.6992 -6.15234 C 16.6992 -5.17578 17.3828 -4.54102 18.4082 -4.54102 L 19.3848 -4.54102 C 21.875 -4.54102 23.291 -3.56445 23.291 -1.80664 C 23.291 -0.146484 21.8262 0.976562 19.873 0.976562 C 18.1152 0.976562 16.8457 0.292969 15.9668 -1.02539 C 15.4785 -1.75781 14.9902 -2.05078 14.3555 -2.05078 C 13.1836 -2.05078 12.4512 -1.31836 12.4512 -0.292969 C 12.4512 2.68555 16.4062 4.39453 19.873 4.39453 Z M 36.9629 -4.63867 L 105.176 -4.63867 C 106.201 -4.63867 106.982 -5.37109 106.982 -6.44531 C 106.982 -7.51953 106.201 -8.25195 105.176 -8.25195 L 36.9629 -8.25195 C 35.8887 -8.25195 35.1562 -7.51953 35.1562 -6.44531 C 35.1562 -5.37109 35.8887 -4.63867 36.9629 -4.63867 Z"/>
  </g>
  <g id="Ultralight-M" transform="matrix(1 0 0 1 500.556 1126)">
   <path d="M 20.9473 -53.5645 C 22.168 -53.5645 22.9004 -54.2969 22.9004 -55.5176 L 22.9004 -71.4844 C 22.9004 -72.9004 22.0703 -73.7793 20.6543 -73.7793 C 19.3848 -73.7793 18.7012 -73.291 17.8711 -72.6562 L 14.3066 -70.166 C 13.3301 -69.4824 12.9395 -69.043 12.9395 -68.3105 C 12.9395 -67.3828 13.623 -66.748 14.5508 -66.748 C 15.0879 -66.748 15.4297 -66.7969 16.1133 -67.3828 L 18.8477 -69.5801 L 18.9941 -69.5801 L 18.9941 -55.5176 C 18.9941 -54.2969 19.7266 -53.5645 20.9473 -53.5645 Z M 36.084 -62.5488 L 104.639 -62.5488 C 105.371 -62.5488 105.859 -62.9883 105.859 -63.7207 C 105.859 -64.4531 105.371 -64.9414 104.639 -64.9414 L 36.084 -64.9414 C 35.3516 -64.9414 34.8633 -64.4531 34.8633 -63.7207 C 34.8633 -62.9883 35.3516 -62.5488 36.084 -62.5488 Z M 14.2578 -25.293 L 25.6836 -25.293 C 26.4648 -25.293 27.0996 -25.9277 27.0996 -26.709 C 27.0996 -27.6367 26.5625 -28.2227 25.6836 -28.2227 L 17.627 -28.2227 L 17.627 -28.3691 L 22.2656 -32.7148 C 25.5371 -35.791 26.416 -37.1094 26.416 -39.4531 C 26.416 -42.7734 23.6328 -45.0684 19.4824 -45.0684 C 15.4297 -45.0684 12.6953 -42.627 12.6953 -40.0391 C 12.6953 -38.8672 13.3789 -38.3789 14.2578 -38.3789 C 15.0879 -38.3789 15.6738 -38.6719 15.9668 -39.6484 C 16.4062 -41.1133 17.7246 -41.9922 19.4824 -41.9922 C 21.2891 -41.9922 22.6074 -40.7715 22.6074 -39.209 C 22.6074 -37.6465 21.8262 -36.6699 19.4824 -34.4238 L 13.3789 -28.7598 C 12.7441 -28.1738 12.5 -27.6367 12.5 -26.9043 C 12.5 -25.8789 13.1348 -25.293 14.2578 -25.293 Z M 36.084 -33.9844 L 104.639 -33.9844 C 105.371 -33.9844 105.859 -34.4727 105.859 -35.2051 C 105.859 -35.9375 105.371 -36.377 104.639 -36.377 L 36.084 -36.377 C 35.3516 -36.377 34.8633 -35.9375 34.8633 -35.2051 C 34.8633 -34.4727 35.3516 -33.9844 36.084 -33.9844 Z M 19.5312 4.24805 C 24.1699 4.24805 27.1484 2.00195 27.1484 -1.5625 C 27.1484 -3.95508 25.6836 -5.95703 22.2656 -6.20117 L 22.2656 -6.34766 C 25.1465 -6.88477 26.416 -8.59375 26.416 -10.9863 C 26.416 -13.9648 23.6816 -15.9668 19.5312 -15.9668 C 16.3086 -15.9668 12.8418 -14.209 12.8418 -11.6211 C 12.8418 -10.6445 13.5742 -10.0586 14.3555 -10.0586 C 15.0879 -10.0586 15.4785 -10.3516 15.9668 -11.1328 C 16.8457 -12.5 17.9199 -13.0859 19.4824 -13.0859 C 21.4844 -13.0859 22.7051 -12.0117 22.7051 -10.2539 C 22.7051 -8.69141 21.2891 -7.61719 19.043 -7.61719 L 17.9688 -7.61719 C 17.0898 -7.61719 16.4062 -6.93359 16.4062 -6.10352 C 16.4062 -5.22461 17.0898 -4.58984 17.9688 -4.58984 L 19.0918 -4.58984 C 21.6797 -4.58984 23.1445 -3.51562 23.1445 -1.70898 C 23.1445 0.0488281 21.582 1.2207 19.5312 1.2207 C 17.7734 1.2207 16.4551 0.585938 15.625 -0.830078 C 15.1855 -1.61133 14.6484 -1.9043 14.1113 -1.9043 C 13.0859 -1.9043 12.4512 -1.2207 12.4512 -0.292969 C 12.4512 2.53906 16.2598 4.24805 19.5312 4.24805 Z M 36.084 -5.46875 L 104.639 -5.46875 C 105.371 -5.46875 105.859 -5.95703 105.859 -6.68945 C 105.859 -7.37305 105.371 -7.86133 104.639 -7.86133 L 36.084 -7.86133 C 35.3516 -7.86133 34.8633 -7.37305 34.8633 -6.68945 C 34.8633 -5.95703 35.3516 -5.46875 36.084 -5.46875 Z"/>
  </g>
  <g id="Black-S" transform="matrix(1 0 0 1 2879.69 696)">
   <path d="M 19.3848 -50.5371 C 21.3379 -50.5371 22.7051 -51.6113 22.7051 -54.1016 L 22.7051 -66.9922 C 22.7051 -69.1406 21.1426 -70.459 18.9453 -70.459 C 17.2852 -70.459 16.1621 -69.9219 14.7949 -69.043 L 12.0605 -67.2852 C 11.0352 -66.6504 10.6445 -66.0156 10.6445 -64.9414 C 10.6445 -63.5254 11.5723 -62.5977 12.7441 -62.6953 C 13.2812 -62.7441 13.623 -62.7441 14.4043 -63.2324 L 15.8691 -64.209 L 16.0156 -64.209 L 16.0156 -54.1016 C 16.0156 -51.6113 17.3828 -50.5371 19.3848 -50.5371 Z M 40.7715 -54.1504 L 91.3086 -54.1504 C 94.8242 -54.1504 97.6562 -56.9336 97.6562 -60.498 C 97.6562 -64.0137 94.873 -66.8457 91.3086 -66.8457 L 40.7715 -66.8457 C 37.2559 -66.8457 34.4238 -64.0625 34.4238 -60.498 C 34.4238 -56.9824 37.207 -54.1504 40.7715 -54.1504 Z M 12.5977 -25.5859 L 23.584 -25.5859 C 25.0977 -25.5859 26.2207 -26.4648 26.2207 -28.0762 C 26.2207 -29.541 25.0977 -30.5176 23.584 -30.5176 L 18.6035 -30.5176 L 18.6035 -30.6641 L 21.582 -32.959 C 24.2188 -35.0098 25.6836 -36.2305 25.6836 -38.9648 C 25.6836 -42.5781 22.5586 -44.8242 17.5781 -44.8242 C 13.3301 -44.8242 10.3027 -42.8711 10.3027 -40.1855 C 10.3027 -38.623 11.3281 -37.7441 13.0371 -37.7441 C 14.0137 -37.7441 14.7461 -38.0859 15.6738 -38.9648 C 16.4062 -39.6484 16.8945 -39.9414 17.6758 -39.9414 C 18.5547 -39.9414 19.2383 -39.4043 19.2383 -38.4766 C 19.2383 -37.6465 18.7012 -37.0605 16.6504 -35.4004 L 11.377 -31.1523 C 10.4004 -30.3711 9.96094 -29.4922 9.96094 -28.2715 C 9.96094 -26.709 10.9863 -25.5859 12.5977 -25.5859 Z M 40.7715 -28.8574 L 91.3086 -28.8574 C 94.8242 -28.8574 97.6562 -31.6406 97.6562 -35.2051 C 97.6562 -38.7207 94.873 -41.5527 91.3086 -41.5527 L 40.7715 -41.5527 C 37.2559 -41.5527 34.4238 -38.7695 34.4238 -35.2051 C 34.4238 -31.6895 37.207 -28.8574 40.7715 -28.8574 Z M 17.627 0.0488281 C 23.2422 0.0488281 26.3672 -2.19727 26.3672 -5.9082 C 26.3672 -8.30078 24.707 -9.86328 21.7773 -10.1074 L 21.7773 -10.2539 C 23.6816 -10.6445 25.5371 -12.1582 25.5371 -14.6484 C 25.5371 -18.1641 21.9727 -19.8242 17.627 -19.8242 C 14.3066 -19.8242 10.3027 -18.5059 10.3027 -15.332 C 10.3027 -13.9648 11.2793 -12.9883 12.9395 -12.9883 C 13.916 -12.9883 14.4043 -13.3301 15.0879 -13.8672 C 16.1621 -14.7461 16.8945 -14.9902 17.627 -14.9902 C 18.6035 -14.9902 19.4336 -14.5996 19.4336 -13.623 C 19.4336 -12.7441 18.7012 -12.207 17.4316 -12.207 L 16.7969 -12.207 C 15.625 -12.207 14.7949 -11.4746 14.7949 -10.0586 C 14.7949 -8.64258 15.5762 -7.91016 16.7969 -7.91016 L 17.4316 -7.91016 C 18.75 -7.91016 19.4824 -7.42188 19.5312 -6.44531 C 19.5801 -5.61523 18.7012 -5.07812 17.627 -5.07812 C 16.2598 -5.07812 15.2344 -6.00586 14.502 -6.44531 C 14.0137 -6.73828 13.4766 -7.12891 12.5977 -7.12891 C 10.9375 -7.12891 9.76562 -6.15234 9.76562 -4.54102 C 9.76562 -1.66016 13.7695 0.0488281 17.627 0.0488281 Z M 40.7715 -3.56445 L 91.3086 -3.56445 C 94.8242 -3.56445 97.6562 -6.34766 97.6562 -9.91211 C 97.6562 -13.4277 94.873 -16.2598 91.3086 -16.2598 L 40.7715 -16.2598 C 37.2559 -16.2598 34.4238 -13.4766 34.4238 -9.91211 C 34.4238 -6.39648 37.207 -3.56445 40.7715 -3.56445 Z"/>
  </g>
  <g id="Heavy-S" transform="matrix(1 0 0 1 2584.15 696)">
   <path d="M 19.1406 -50.6348 C 21.0449 -50.6348 22.3145 -51.6602 22.3145 -54.0039 L 22.3145 -66.748 C 22.3145 -68.7988 20.8496 -70.0684 18.75 -70.0684 C 17.1387 -70.0684 16.0645 -69.5312 14.7949 -68.7012 L 12.0605 -66.9434 C 11.084 -66.3086 10.6934 -65.7227 10.6934 -64.6973 C 10.6934 -63.3301 11.5723 -62.4512 12.6953 -62.5488 C 13.2324 -62.5977 13.5254 -62.5977 14.3066 -63.0859 L 15.8203 -64.0625 L 15.9668 -64.0625 L 15.9668 -54.0039 C 15.9668 -51.6602 17.2363 -50.6348 19.1406 -50.6348 Z M 38.7207 -54.3457 L 89.5996 -54.3457 C 92.7734 -54.3457 95.3125 -56.8359 95.3125 -60.0098 C 95.3125 -63.1836 92.8223 -65.7227 89.5996 -65.7227 L 38.7207 -65.7227 C 35.5469 -65.7227 33.0078 -63.2324 33.0078 -60.0098 C 33.0078 -56.8848 35.498 -54.3457 38.7207 -54.3457 Z M 12.5 -26.0742 L 23.2422 -26.0742 C 24.6582 -26.0742 25.7324 -26.9043 25.7324 -28.418 C 25.7324 -29.834 24.6582 -30.7617 23.2422 -30.7617 L 18.1641 -30.7617 L 18.1641 -30.9082 L 21.1914 -33.2031 C 23.8281 -35.2539 25.1953 -36.4746 25.1953 -39.1113 C 25.1953 -42.627 22.168 -44.873 17.334 -44.873 C 13.2324 -44.873 10.2539 -42.9199 10.2539 -40.2832 C 10.2539 -38.7695 11.2305 -37.9395 12.8906 -37.9395 C 13.8672 -37.9395 14.5508 -38.2812 15.3809 -39.1602 C 16.1133 -39.8926 16.6016 -40.1855 17.4316 -40.1855 C 18.3594 -40.1855 19.043 -39.6484 19.043 -38.6719 C 19.043 -37.8418 18.5547 -37.207 16.5039 -35.5469 L 11.2793 -31.3477 C 10.3516 -30.6152 9.96094 -29.7852 9.96094 -28.6133 C 9.96094 -27.1484 10.9375 -26.0742 12.5 -26.0742 Z M 38.7207 -29.541 L 89.5996 -29.541 C 92.7734 -29.541 95.3125 -32.0312 95.3125 -35.2051 C 95.3125 -38.3789 92.8223 -40.8691 89.5996 -40.8691 L 38.7207 -40.8691 C 35.5469 -40.8691 33.0078 -38.3789 33.0078 -35.2051 C 33.0078 -32.0312 35.498 -29.541 38.7207 -29.541 Z M 17.4316 -0.830078 C 22.8027 -0.830078 25.8789 -3.02734 25.8789 -6.64062 C 25.8789 -8.98438 24.2188 -10.498 21.3867 -10.7422 L 21.3867 -10.8887 C 23.2422 -11.2793 25.0488 -12.7441 25.0488 -15.1367 C 25.0488 -18.5547 21.6309 -20.2148 17.3828 -20.2148 C 14.1113 -20.2148 10.2539 -18.8477 10.2539 -15.8203 C 10.2539 -14.502 11.2305 -13.5742 12.793 -13.5742 C 13.7695 -13.5742 14.209 -13.916 14.8926 -14.4531 C 15.918 -15.3809 16.6504 -15.625 17.3828 -15.625 C 18.4082 -15.625 19.2383 -15.1855 19.2383 -14.1602 C 19.2383 -13.2812 18.457 -12.7441 17.1387 -12.7441 L 16.6016 -12.7441 C 15.4297 -12.7441 14.5996 -12.0605 14.5996 -10.6934 C 14.5996 -9.32617 15.3809 -8.64258 16.6016 -8.64258 L 17.1387 -8.64258 C 18.5547 -8.64258 19.3359 -8.1543 19.3848 -7.12891 C 19.3848 -6.25 18.5059 -5.66406 17.4316 -5.66406 C 16.0645 -5.66406 15.0391 -6.5918 14.3066 -7.08008 C 13.8184 -7.37305 13.3301 -7.76367 12.4512 -7.76367 C 10.8887 -7.76367 9.76562 -6.83594 9.76562 -5.32227 C 9.76562 -2.44141 13.7207 -0.830078 17.4316 -0.830078 Z M 38.7207 -4.6875 L 89.5996 -4.6875 C 92.7734 -4.6875 95.3125 -7.17773 95.3125 -10.4004 C 95.3125 -13.5254 92.8223 -16.0645 89.5996 -16.0645 L 38.7207 -16.0645 C 35.5469 -16.0645 33.0078 -13.5742 33.0078 -10.4004 C 33.0078 -7.22656 35.498 -4.6875 38.7207 -4.6875 Z"/>
  </g>
  <g id="Bold-S" transform="matrix(1 0 0 1 2288.78 696)">
   <path d="M 18.8965 -50.6836 C 20.7031 -50.6836 21.9238 -51.6602 21.9238 -53.8574 L 21.9238 -66.4551 C 21.9238 -68.4082 20.5078 -69.6289 18.5059 -69.6289 C 16.9922 -69.6289 15.9668 -69.0918 14.7949 -68.3105 L 12.0605 -66.5039 C 11.1816 -65.918 10.7422 -65.332 10.7422 -64.4043 C 10.7422 -63.1348 11.6211 -62.3047 12.6465 -62.3535 C 13.1836 -62.4023 13.4766 -62.4512 14.209 -62.8906 L 15.7715 -63.9648 L 15.8691 -63.9648 L 15.8691 -53.8574 C 15.8691 -51.6602 17.0898 -50.6836 18.8965 -50.6836 Z M 36.377 -54.541 L 87.6953 -54.541 C 90.4785 -54.541 92.627 -56.7383 92.627 -59.4727 C 92.627 -62.2559 90.4785 -64.4531 87.6953 -64.4531 L 36.377 -64.4531 C 33.6426 -64.4531 31.4453 -62.2559 31.4453 -59.4727 C 31.4453 -56.7383 33.6426 -54.541 36.377 -54.541 Z M 12.3535 -26.5625 L 22.8516 -26.5625 C 24.1699 -26.5625 25.1465 -27.3926 25.1465 -28.8086 C 25.1465 -30.1758 24.1699 -31.0547 22.8516 -31.0547 L 17.7246 -31.0547 L 17.7246 -31.1523 L 20.7031 -33.4961 C 23.3398 -35.5469 24.6094 -36.8164 24.6094 -39.3066 C 24.6094 -42.7246 21.7285 -44.873 17.0898 -44.873 C 13.0859 -44.873 10.2051 -42.9688 10.2051 -40.3809 C 10.2051 -38.916 11.1328 -38.1348 12.6953 -38.1348 C 13.6719 -38.1348 14.3555 -38.4766 15.0879 -39.3066 C 15.7227 -40.1367 16.3086 -40.4785 17.1875 -40.4785 C 18.1641 -40.4785 18.8965 -39.8926 18.8965 -38.8672 C 18.8965 -38.0371 18.3594 -37.3535 16.3574 -35.7422 L 11.1816 -31.5918 C 10.3027 -30.9082 9.91211 -30.0781 9.91211 -29.0039 C 9.91211 -27.5879 10.8887 -26.5625 12.3535 -26.5625 Z M 36.377 -30.2734 L 87.6953 -30.2734 C 90.4785 -30.2734 92.627 -32.4219 92.627 -35.2051 C 92.627 -37.9395 90.4785 -40.1367 87.6953 -40.1367 L 36.377 -40.1367 C 33.6426 -40.1367 31.4453 -37.9883 31.4453 -35.2051 C 31.4453 -32.4707 33.6426 -30.2734 36.377 -30.2734 Z M 17.1875 -1.75781 C 22.3633 -1.75781 25.293 -3.95508 25.293 -7.42188 C 25.293 -9.7168 23.6816 -11.2305 20.8984 -11.4746 L 20.8984 -11.5723 C 22.8027 -11.9629 24.5117 -13.3301 24.5117 -15.7227 C 24.5117 -18.9941 21.2402 -20.6543 17.1387 -20.6543 C 13.9648 -20.6543 10.2539 -19.2871 10.2539 -16.4062 C 10.2539 -15.1367 11.1328 -14.2578 12.5977 -14.2578 C 13.5742 -14.2578 14.0137 -14.5508 14.6484 -15.1367 C 15.625 -16.0645 16.3574 -16.3086 17.1387 -16.3086 C 18.1641 -16.3086 19.043 -15.8203 19.043 -14.7949 C 19.043 -13.8672 18.2129 -13.3301 16.8457 -13.3301 L 16.3574 -13.3301 C 15.1855 -13.3301 14.4043 -12.6953 14.4043 -11.377 C 14.4043 -10.1562 15.1367 -9.47266 16.3574 -9.47266 L 16.8457 -9.47266 C 18.3594 -9.47266 19.1406 -8.93555 19.1895 -7.91016 C 19.1895 -6.98242 18.3105 -6.34766 17.1875 -6.34766 C 15.8203 -6.34766 14.8438 -7.22656 14.1113 -7.76367 C 13.623 -8.10547 13.1348 -8.49609 12.3047 -8.49609 C 10.8398 -8.49609 9.76562 -7.61719 9.76562 -6.15234 C 9.76562 -3.36914 13.623 -1.75781 17.1875 -1.75781 Z M 36.377 -5.95703 L 87.6953 -5.95703 C 90.4785 -5.95703 92.627 -8.1543 92.627 -10.9375 C 92.627 -13.6719 90.4785 -15.8691 87.6953 -15.8691 L 36.377 -15.8691 C 33.6426 -15.8691 31.4453 -13.6719 31.4453 -10.9375 C 31.4453 -8.1543 33.6426 -5.95703 36.377 -5.95703 Z"/>
  </g>
  <g id="Semibold-S" transform="matrix(1 0 0 1 1992.97 696)">
   <path d="M 18.75 -50.7324 C 20.459 -50.7324 21.6309 -51.709 21.6309 -53.7598 L 21.6309 -66.2598 C 21.6309 -68.1152 20.2637 -69.2871 18.3594 -69.2871 C 16.8457 -69.2871 15.8691 -68.7988 14.7461 -68.0664 L 12.0605 -66.2109 C 11.1816 -65.6738 10.791 -65.0879 10.791 -64.1602 C 10.791 -62.9883 11.6211 -62.207 12.6465 -62.2559 C 13.1348 -62.2559 13.4277 -62.3535 14.1113 -62.793 L 15.7227 -63.8672 L 15.8203 -63.8672 L 15.8203 -53.7598 C 15.8203 -51.709 16.9922 -50.7324 18.75 -50.7324 Z M 34.8145 -54.6875 L 86.377 -54.6875 C 88.8672 -54.6875 90.8203 -56.6406 90.8203 -59.1309 C 90.8203 -61.5723 88.8672 -63.5742 86.377 -63.5742 L 34.8145 -63.5742 C 32.3242 -63.5742 30.3711 -61.6211 30.3711 -59.1309 C 30.3711 -56.6895 32.3242 -54.6875 34.8145 -54.6875 Z M 12.2559 -26.9531 L 22.5586 -26.9531 C 23.8281 -26.9531 24.8047 -27.7344 24.8047 -29.0527 C 24.8047 -30.3711 23.8281 -31.2012 22.5586 -31.2012 L 17.3828 -31.2012 L 17.3828 -31.3477 L 20.4102 -33.6426 C 23.0469 -35.7422 24.2676 -37.0117 24.2676 -39.4531 C 24.2676 -42.7246 21.4355 -44.9219 16.9434 -44.9219 C 12.9883 -44.9219 10.1562 -43.0176 10.1562 -40.4297 C 10.1562 -39.0625 11.084 -38.2812 12.5977 -38.2812 C 13.5254 -38.2812 14.209 -38.5742 14.8438 -39.4531 C 15.4785 -40.2832 16.1133 -40.6738 17.041 -40.6738 C 18.0176 -40.6738 18.75 -40.0391 18.75 -39.0625 C 18.75 -38.1836 18.2617 -37.5 16.2598 -35.8887 L 11.1328 -31.7871 C 10.2539 -31.0547 9.91211 -30.3223 9.91211 -29.2969 C 9.91211 -27.9297 10.8398 -26.9531 12.2559 -26.9531 Z M 34.8145 -30.7617 L 86.377 -30.7617 C 88.8672 -30.7617 90.8203 -32.7148 90.8203 -35.2051 C 90.8203 -37.6465 88.8672 -39.6484 86.377 -39.6484 L 34.8145 -39.6484 C 32.3242 -39.6484 30.3711 -37.6953 30.3711 -35.2051 C 30.3711 -32.7637 32.3242 -30.7617 34.8145 -30.7617 Z M 16.9922 -2.44141 C 22.0215 -2.44141 24.9023 -4.58984 24.9023 -8.00781 C 24.9023 -10.2539 23.291 -11.7188 20.6055 -11.9629 L 20.6055 -12.0605 C 22.4609 -12.4512 24.1699 -13.7695 24.1699 -16.1133 C 24.1699 -19.3359 20.9961 -20.9473 16.9922 -20.9473 C 13.8184 -20.9473 10.2539 -19.5801 10.2539 -16.748 C 10.2539 -15.5273 11.084 -14.6973 12.5 -14.6973 C 13.4277 -14.6973 13.8672 -15.0391 14.4531 -15.5762 C 15.4297 -16.5039 16.1133 -16.748 16.9922 -16.748 C 18.0176 -16.748 18.8477 -16.3086 18.8477 -15.2344 C 18.8477 -14.2578 18.0664 -13.7207 16.6016 -13.7207 L 16.1621 -13.7207 C 14.9902 -13.7207 14.2578 -13.1348 14.2578 -11.8652 C 14.2578 -10.6934 14.9414 -10.0098 16.1621 -10.0098 L 16.6504 -10.0098 C 18.2129 -10.0098 19.043 -9.52148 19.043 -8.44727 C 19.043 -7.4707 18.1641 -6.83594 16.9922 -6.83594 C 15.625 -6.83594 14.6973 -7.66602 13.9648 -8.25195 C 13.4766 -8.59375 13.0371 -8.98438 12.207 -8.98438 C 10.791 -8.98438 9.76562 -8.1543 9.76562 -6.73828 C 9.76562 -3.95508 13.5742 -2.44141 16.9922 -2.44141 Z M 34.8145 -6.83594 L 86.377 -6.83594 C 88.8672 -6.83594 90.8203 -8.78906 90.8203 -11.2793 C 90.8203 -13.7207 88.8672 -15.7227 86.377 -15.7227 L 34.8145 -15.7227 C 32.3242 -15.7227 30.3711 -13.7695 30.3711 -11.2793 C 30.3711 -8.83789 32.3242 -6.83594 34.8145 -6.83594 Z"/>
  </g>
  <g id="Medium-S" transform="matrix(1 0 0 1 1696.95 696)">
   <path d="M 18.6035 -50.7812 C 20.2637 -50.7812 21.3867 -51.709 21.3867 -53.7109 L 21.3867 -66.1133 C 21.3867 -67.9199 20.1172 -69.0918 18.2617 -69.0918 C 16.7969 -69.0918 15.8203 -68.5547 14.7461 -67.8711 L 12.0605 -66.0156 C 11.2305 -65.4785 10.791 -64.9414 10.791 -64.0137 C 10.791 -62.8906 11.6699 -62.1582 12.5977 -62.1582 C 13.0859 -62.1582 13.3789 -62.2559 14.0625 -62.6953 L 15.7227 -63.7695 L 15.7715 -63.7695 L 15.7715 -53.7109 C 15.7715 -51.709 16.9434 -50.7812 18.6035 -50.7812 Z M 33.5938 -54.834 L 85.4004 -54.834 C 87.6465 -54.834 89.4531 -56.5918 89.4531 -58.8379 C 89.4531 -61.084 87.6465 -62.8906 85.4004 -62.8906 L 33.5938 -62.8906 C 31.3477 -62.8906 29.5898 -61.1328 29.5898 -58.8379 C 29.5898 -56.5918 31.3477 -54.834 33.5938 -54.834 Z M 12.207 -27.1973 L 22.3633 -27.1973 C 23.584 -27.1973 24.5117 -28.0273 24.5117 -29.2969 C 24.5117 -30.5664 23.584 -31.3477 22.3633 -31.3477 L 17.1387 -31.3477 L 17.1387 -31.4453 L 20.166 -33.7891 C 22.8027 -35.8887 23.9746 -37.1582 23.9746 -39.5508 C 23.9746 -42.7734 21.1914 -44.9219 16.7969 -44.9219 C 12.9395 -44.9219 10.1562 -43.0176 10.1562 -40.4785 C 10.1562 -39.1113 11.0352 -38.3789 12.5 -38.3789 C 13.4277 -38.3789 14.0625 -38.6719 14.6973 -39.5508 C 15.2832 -40.4297 15.918 -40.8203 16.8945 -40.8203 C 17.9199 -40.8203 18.6523 -40.1855 18.6523 -39.1602 C 18.6523 -38.3301 18.1641 -37.5488 16.1621 -35.9863 L 11.084 -31.8848 C 10.2539 -31.2012 9.86328 -30.4688 9.86328 -29.4922 C 9.86328 -28.1738 10.791 -27.1973 12.207 -27.1973 Z M 33.5938 -31.1523 L 85.4004 -31.1523 C 87.6465 -31.1523 89.4531 -32.959 89.4531 -35.2051 C 89.4531 -37.4512 87.6465 -39.2578 85.4004 -39.2578 L 33.5938 -39.2578 C 31.3477 -39.2578 29.5898 -37.4512 29.5898 -35.2051 C 29.5898 -32.959 31.3477 -31.1523 33.5938 -31.1523 Z M 16.8945 -2.92969 C 21.7773 -2.92969 24.6094 -5.07812 24.6094 -8.44727 C 24.6094 -10.6445 23.0469 -12.1094 20.3613 -12.3535 L 20.3613 -12.4512 C 22.2168 -12.793 23.877 -14.1113 23.877 -16.4062 C 23.877 -19.5312 20.8008 -21.1426 16.8457 -21.1426 C 13.7207 -21.1426 10.2051 -19.7754 10.2051 -17.041 C 10.2051 -15.8691 11.084 -15.0391 12.4023 -15.0391 C 13.3301 -15.0391 13.7207 -15.3809 14.3555 -15.9668 C 15.2832 -16.8945 15.9668 -17.1387 16.8457 -17.1387 C 17.9199 -17.1387 18.75 -16.6504 18.75 -15.5762 C 18.75 -14.5508 17.9199 -14.0625 16.4551 -14.0625 L 16.0156 -14.0625 C 14.8926 -14.0625 14.1602 -13.4766 14.1602 -12.2559 C 14.1602 -11.084 14.8438 -10.4492 16.0156 -10.4492 L 16.5039 -10.4492 C 18.1152 -10.4492 18.9453 -9.96094 18.9453 -8.83789 C 18.9453 -7.86133 18.0664 -7.17773 16.8945 -7.17773 C 15.5273 -7.17773 14.5508 -8.00781 13.8184 -8.59375 C 13.3301 -8.98438 12.9395 -9.32617 12.1582 -9.32617 C 10.7422 -9.32617 9.76562 -8.54492 9.76562 -7.17773 C 9.76562 -4.44336 13.5254 -2.92969 16.8945 -2.92969 Z M 33.5938 -7.51953 L 85.4004 -7.51953 C 87.6465 -7.51953 89.4531 -9.27734 89.4531 -11.5723 C 89.4531 -13.8184 87.6465 -15.5762 85.4004 -15.5762 L 33.5938 -15.5762 C 31.3477 -15.5762 29.5898 -13.8184 29.5898 -11.5723 C 29.5898 -9.32617 31.3477 -7.51953 33.5938 -7.51953 Z"/>
  </g>
  <g id="Regular-S" transform="matrix(1 0 0 1 1401.14 696)">
   <path d="M 18.457 -50.8789 C 20.0195 -50.8789 21.0938 -51.709 21.0938 -53.6133 L 21.0938 -65.918 C 21.0938 -67.6758 19.873 -68.75 18.1152 -68.75 C 16.6504 -68.75 15.7715 -68.2617 14.7461 -67.627 L 12.0605 -65.7227 C 11.2793 -65.1855 10.8398 -64.6973 10.8398 -63.8184 C 10.8398 -62.7441 11.6699 -62.0605 12.5977 -62.0605 C 13.0859 -62.0605 13.3301 -62.1582 13.9648 -62.5977 L 15.6738 -63.6719 L 15.7227 -63.6719 L 15.7227 -53.6133 C 15.7227 -51.709 16.7969 -50.8789 18.457 -50.8789 Z M 32.0312 -54.9805 L 84.1309 -54.9805 C 86.084 -54.9805 87.6465 -56.543 87.6465 -58.4961 C 87.6465 -60.4492 86.084 -62.0117 84.1309 -62.0117 L 32.0312 -62.0117 C 30.0293 -62.0117 28.5156 -60.4492 28.5156 -58.4961 C 28.5156 -56.543 30.0293 -54.9805 32.0312 -54.9805 Z M 12.1094 -27.5879 L 22.1191 -27.5879 C 23.2422 -27.5879 24.1211 -28.3691 24.1211 -29.541 C 24.1211 -30.7617 23.2422 -31.543 22.1191 -31.543 L 16.8457 -31.543 L 16.8457 -31.6406 L 19.8242 -33.9844 C 22.4609 -36.084 23.584 -37.3535 23.584 -39.6973 C 23.584 -42.8223 20.8984 -44.9707 16.6016 -44.9707 C 12.8418 -44.9707 10.1074 -43.0664 10.1074 -40.5273 C 10.1074 -39.2578 10.9375 -38.5254 12.4023 -38.5254 C 13.2812 -38.5254 13.916 -38.8184 14.502 -39.6973 C 15.0879 -40.5762 15.7227 -41.0156 16.6992 -41.0156 C 17.7734 -41.0156 18.5059 -40.332 18.5059 -39.3066 C 18.5059 -38.4766 18.0664 -37.6953 16.0645 -36.084 L 10.9863 -32.0801 C 10.2051 -31.3965 9.86328 -30.6641 9.86328 -29.7852 C 9.86328 -28.4668 10.7422 -27.5879 12.1094 -27.5879 Z M 32.0312 -31.6895 L 84.1309 -31.6895 C 86.084 -31.6895 87.6465 -33.252 87.6465 -35.2051 C 87.6465 -37.1582 86.084 -38.7207 84.1309 -38.7207 L 32.0312 -38.7207 C 30.0293 -38.7207 28.5156 -37.1582 28.5156 -35.2051 C 28.5156 -33.252 30.0293 -31.6895 32.0312 -31.6895 Z M 16.6992 -3.61328 C 21.4355 -3.61328 24.2188 -5.66406 24.2188 -8.98438 C 24.2188 -11.1816 22.6562 -12.5977 20.0195 -12.8418 L 20.0195 -12.9395 C 21.9238 -13.2812 23.5352 -14.5508 23.5352 -16.7969 C 23.5352 -19.873 20.5566 -21.4844 16.6504 -21.4844 C 13.5742 -21.4844 10.2051 -20.0684 10.2051 -17.4316 C 10.2051 -16.3086 11.0352 -15.4785 12.3047 -15.4785 C 13.1836 -15.4785 13.5742 -15.8203 14.1602 -16.4062 C 15.0879 -17.334 15.7715 -17.5781 16.6504 -17.5781 C 17.7734 -17.5781 18.6035 -17.0898 18.6035 -16.0156 C 18.6035 -14.9414 17.7734 -14.4531 16.2598 -14.4531 L 15.8691 -14.4531 C 14.7461 -14.4531 14.0137 -13.916 14.0137 -12.7441 C 14.0137 -11.6211 14.6973 -10.9863 15.8691 -10.9863 L 16.3086 -10.9863 C 17.9688 -10.9863 18.7988 -10.498 18.7988 -9.375 C 18.7988 -8.34961 17.9199 -7.66602 16.6992 -7.66602 C 15.332 -7.66602 14.4043 -8.49609 13.6719 -9.08203 C 13.2324 -9.47266 12.8418 -9.81445 12.0605 -9.81445 C 10.6934 -9.81445 9.76562 -9.0332 9.76562 -7.76367 C 9.76562 -5.07812 13.4766 -3.61328 16.6992 -3.61328 Z M 32.0312 -8.39844 L 84.1309 -8.39844 C 86.084 -8.39844 87.6465 -9.96094 87.6465 -11.9141 C 87.6465 -13.8672 86.084 -15.4297 84.1309 -15.4297 L 32.0312 -15.4297 C 30.0293 -15.4297 28.5156 -13.8672 28.5156 -11.9141 C 28.5156 -9.96094 30.0293 -8.39844 32.0312 -8.39844 Z"/>
  </g>
  <g id="Light-S" transform="matrix(1 0 0 1 1105.16 696)">
   <path d="M 17.8223 -50.4395 C 19.1895 -50.4395 20.1172 -51.2207 20.1172 -52.832 L 20.1172 -65.2344 C 20.1172 -66.748 19.0918 -67.7246 17.5293 -67.7246 C 16.2109 -67.7246 15.4297 -67.2852 14.502 -66.6504 L 11.8164 -64.7461 C 11.0352 -64.209 10.6445 -63.7695 10.6445 -62.9883 C 10.6445 -62.0117 11.377 -61.377 12.207 -61.377 C 12.6953 -61.377 12.9395 -61.4746 13.5742 -61.9141 L 15.3809 -63.1836 L 15.4785 -63.1836 L 15.4785 -52.832 C 15.4785 -51.2207 16.4062 -50.4395 17.8223 -50.4395 Z M 30.8594 -55.4688 L 83.4473 -55.4688 C 85.0098 -55.4688 86.1816 -56.6895 86.1816 -58.2031 C 86.1816 -59.7168 85.0098 -60.9375 83.4473 -60.9375 L 30.8594 -60.9375 C 29.2969 -60.9375 28.125 -59.7168 28.125 -58.2031 C 28.125 -56.6895 29.2969 -55.4688 30.8594 -55.4688 Z M 11.8164 -27.5391 L 21.4844 -27.5391 C 22.4609 -27.5391 23.1934 -28.2227 23.1934 -29.248 C 23.1934 -30.3223 22.5098 -31.0059 21.4844 -31.0059 L 15.8691 -31.0059 L 15.8691 -31.1035 L 19.0918 -33.7402 C 21.7285 -35.9375 22.6562 -37.1582 22.6562 -39.3555 C 22.6562 -42.2852 20.166 -44.3359 16.2109 -44.3359 C 12.5977 -44.3359 10.0586 -42.4316 10.0586 -40.0391 C 10.0586 -38.8672 10.791 -38.2812 12.0117 -38.2812 C 12.8418 -38.2812 13.4277 -38.5254 13.8672 -39.4043 C 14.3555 -40.332 15.1367 -40.8691 16.2598 -40.8691 C 17.4316 -40.8691 18.2617 -40.0879 18.2617 -39.0137 C 18.2617 -38.0371 17.7734 -37.2559 15.8203 -35.6445 L 10.8398 -31.4941 C 10.1562 -30.8594 9.86328 -30.2246 9.86328 -29.4434 C 9.86328 -28.3203 10.5957 -27.5391 11.8164 -27.5391 Z M 30.8594 -32.4707 L 83.4473 -32.4707 C 85.0098 -32.4707 86.1816 -33.6914 86.1816 -35.2051 C 86.1816 -36.7188 85.0098 -37.9395 83.4473 -37.9395 L 30.8594 -37.9395 C 29.2969 -37.9395 28.125 -36.7188 28.125 -35.2051 C 28.125 -33.6914 29.2969 -32.4707 30.8594 -32.4707 Z M 16.2598 -3.80859 C 20.6543 -3.80859 23.291 -5.81055 23.291 -8.93555 C 23.291 -11.0352 21.875 -12.5 19.2383 -12.7441 L 19.2383 -12.8418 C 21.1914 -13.1836 22.6562 -14.502 22.6562 -16.6504 C 22.6562 -19.4336 19.9219 -21.0449 16.2598 -21.0449 C 13.3301 -21.0449 10.1562 -19.6289 10.1562 -17.2363 C 10.1562 -16.2109 10.8887 -15.4785 11.9629 -15.4785 C 12.793 -15.4785 13.1348 -15.7715 13.6719 -16.4062 C 14.502 -17.3828 15.2344 -17.6758 16.2109 -17.6758 C 17.4805 -17.6758 18.3594 -17.0898 18.3594 -15.918 C 18.3594 -14.7949 17.4316 -14.209 15.8203 -14.209 L 15.332 -14.209 C 14.3066 -14.209 13.6719 -13.6719 13.6719 -12.6465 C 13.6719 -11.6699 14.2578 -11.084 15.332 -11.084 L 15.8691 -11.084 C 17.6758 -11.084 18.6035 -10.4492 18.6035 -9.22852 C 18.6035 -8.10547 17.627 -7.37305 16.2598 -7.37305 C 14.8926 -7.37305 13.9648 -8.05664 13.2324 -8.83789 C 12.793 -9.27734 12.4023 -9.61914 11.7676 -9.61914 C 10.5469 -9.61914 9.76562 -8.88672 9.76562 -7.8125 C 9.76562 -5.22461 13.2324 -3.80859 16.2598 -3.80859 Z M 30.8594 -9.47266 L 83.4473 -9.47266 C 85.0098 -9.47266 86.1816 -10.6934 86.1816 -12.207 C 86.1816 -13.7207 85.0098 -14.9414 83.4473 -14.9414 L 30.8594 -14.9414 C 29.2969 -14.9414 28.125 -13.7207 28.125 -12.207 C 28.125 -10.6934 29.2969 -9.47266 30.8594 -9.47266 Z"/>
  </g>
  <g id="Thin-S" transform="matrix(1 0 0 1 809.425 696)">
   <path d="M 16.9922 -49.9512 C 18.1152 -49.9512 18.8477 -50.5859 18.8477 -51.8066 L 18.8477 -64.2578 C 18.8477 -65.5762 18.0176 -66.3574 16.6992 -66.3574 C 15.625 -66.3574 14.9902 -65.918 14.209 -65.3809 L 11.4746 -63.4766 C 10.6934 -62.9395 10.3516 -62.5488 10.3516 -61.8652 C 10.3516 -61.084 10.9375 -60.498 11.7188 -60.498 C 12.207 -60.498 12.4512 -60.5957 12.9883 -61.0352 L 15.0391 -62.5488 L 15.1367 -62.5488 L 15.1367 -51.8066 C 15.1367 -50.5859 15.8203 -49.9512 16.9922 -49.9512 Z M 29.2969 -56.1523 L 82.5684 -56.1523 C 83.5449 -56.1523 84.2285 -56.8359 84.2285 -57.8125 C 84.2285 -58.7891 83.5449 -59.4727 82.5684 -59.4727 L 29.2969 -59.4727 C 28.3691 -59.4727 27.6367 -58.7891 27.6367 -57.8125 C 27.6367 -56.8359 28.3691 -56.1523 29.2969 -56.1523 Z M 11.4258 -27.4902 L 20.7031 -27.4902 C 21.4355 -27.4902 22.0215 -28.0273 22.0215 -28.8086 C 22.0215 -29.6875 21.4844 -30.2734 20.7031 -30.2734 L 14.6484 -30.2734 L 14.6484 -30.3711 L 18.1152 -33.4473 C 20.7031 -35.791 21.4844 -36.9141 21.4844 -38.8672 C 21.4844 -41.6016 19.1895 -43.5059 15.625 -43.5059 C 12.3047 -43.5059 10.0098 -41.6016 10.0098 -39.4043 C 10.0098 -38.3789 10.6445 -37.9395 11.5234 -37.9395 C 12.2559 -37.9395 12.7441 -38.1836 13.0859 -38.9648 C 13.4766 -40.0391 14.4043 -40.6738 15.6738 -40.6738 C 16.9922 -40.6738 17.9199 -39.7949 17.9199 -38.623 C 17.9199 -37.5 17.3828 -36.7188 15.4785 -35.0098 L 10.6445 -30.6641 C 10.0586 -30.1758 9.81445 -29.6875 9.81445 -29.0039 C 9.81445 -28.0762 10.4492 -27.4902 11.4258 -27.4902 Z M 29.2969 -33.5449 L 82.5684 -33.5449 C 83.5449 -33.5449 84.2285 -34.2285 84.2285 -35.2051 C 84.2285 -36.1816 83.5449 -36.8652 82.5684 -36.8652 L 29.2969 -36.8652 C 28.3691 -36.8652 27.6367 -36.1816 27.6367 -35.2051 C 27.6367 -34.2285 28.3691 -33.5449 29.2969 -33.5449 Z M 15.7227 -4.10156 C 19.6289 -4.10156 22.1191 -5.95703 22.1191 -8.88672 C 22.1191 -10.8398 20.8496 -12.4023 18.1641 -12.5977 L 18.1641 -12.6953 C 20.3125 -13.0859 21.4844 -14.4043 21.4844 -16.4062 C 21.4844 -18.9453 19.1406 -20.5078 15.6738 -20.5078 C 12.9883 -20.5078 10.1074 -19.1406 10.1074 -16.9434 C 10.1074 -16.0645 10.7422 -15.5273 11.5723 -15.5273 C 12.207 -15.5273 12.5488 -15.7715 12.9883 -16.3574 C 13.7207 -17.3828 14.502 -17.7734 15.6738 -17.7734 C 17.0898 -17.7734 18.0176 -17.041 18.0176 -15.7715 C 18.0176 -14.5996 16.9922 -13.8672 15.2832 -13.8672 L 14.5996 -13.8672 C 13.7695 -13.8672 13.1836 -13.3301 13.1836 -12.5 C 13.1836 -11.6699 13.7695 -11.1816 14.5996 -11.1816 L 15.332 -11.1816 C 17.2363 -11.1816 18.3594 -10.4492 18.3594 -9.08203 C 18.3594 -7.8125 17.1875 -6.93359 15.7227 -6.93359 C 14.3555 -6.93359 13.3301 -7.51953 12.6465 -8.49609 C 12.2559 -9.0332 11.8652 -9.32617 11.3281 -9.32617 C 10.4004 -9.32617 9.76562 -8.74023 9.76562 -7.8125 C 9.76562 -5.46875 12.9395 -4.10156 15.7227 -4.10156 Z M 29.2969 -10.9375 L 82.5684 -10.9375 C 83.5449 -10.9375 84.2285 -11.6211 84.2285 -12.5977 C 84.2285 -13.5742 83.5449 -14.2578 82.5684 -14.2578 L 29.2969 -14.2578 C 28.3691 -14.2578 27.6367 -13.5742 27.6367 -12.5977 C 27.6367 -11.6211 28.3691 -10.9375 29.2969 -10.9375 Z"/>
  </g>
  <g id="Ultralight-S" transform="matrix(1 0 0 1 513.202 696)">
   <path d="M 16.5527 -49.6582 C 17.5781 -49.6582 18.1641 -50.293 18.1641 -51.2695 L 18.1641 -63.7695 C 18.1641 -64.9414 17.4805 -65.625 16.3086 -65.625 C 15.2832 -65.625 14.7461 -65.2344 14.0625 -64.7461 L 11.2793 -62.793 C 10.498 -62.2559 10.2051 -61.9141 10.2051 -61.3281 C 10.2051 -60.5469 10.7422 -60.0586 11.4746 -60.0586 C 11.9141 -60.0586 12.1582 -60.1074 12.6953 -60.5469 L 14.8438 -62.2559 L 14.9414 -62.2559 L 14.9414 -51.2695 C 14.9414 -50.293 15.5273 -49.6582 16.5527 -49.6582 Z M 28.5156 -56.4941 L 82.1289 -56.4941 C 82.8125 -56.4941 83.252 -56.9824 83.252 -57.6172 C 83.252 -58.252 82.8125 -58.7402 82.1289 -58.7402 L 28.5156 -58.7402 C 27.832 -58.7402 27.3926 -58.252 27.3926 -57.6172 C 27.3926 -56.9824 27.832 -56.4941 28.5156 -56.4941 Z M 11.2305 -27.4414 L 20.2637 -27.4414 C 20.8984 -27.4414 21.4355 -27.9297 21.4355 -28.6133 C 21.4355 -29.3457 20.9473 -29.8828 20.2637 -29.8828 L 14.0137 -29.8828 L 14.0137 -29.9805 L 17.5781 -33.3008 C 20.166 -35.6934 20.8984 -36.7676 20.8984 -38.623 C 20.8984 -41.2598 18.6523 -43.0664 15.332 -43.0664 C 12.1582 -43.0664 9.96094 -41.1621 9.96094 -39.1113 C 9.96094 -38.1348 10.498 -37.7441 11.2305 -37.7441 C 11.9141 -37.7441 12.4023 -37.9883 12.6465 -38.7695 C 12.9883 -39.8926 14.0137 -40.5762 15.332 -40.5762 C 16.748 -40.5762 17.7734 -39.6484 17.7734 -38.4277 C 17.7734 -37.207 17.1875 -36.4258 15.332 -34.668 L 10.5469 -30.2734 C 10.0098 -29.834 9.81445 -29.3457 9.81445 -28.7598 C 9.81445 -27.9785 10.3027 -27.4414 11.2305 -27.4414 Z M 28.5156 -34.082 L 82.1289 -34.082 C 82.8125 -34.082 83.252 -34.5703 83.252 -35.2051 C 83.252 -35.8398 82.8125 -36.3281 82.1289 -36.3281 L 28.5156 -36.3281 C 27.832 -36.3281 27.3926 -35.8398 27.3926 -35.2051 C 27.3926 -34.5703 27.832 -34.082 28.5156 -34.082 Z M 15.3809 -4.24805 C 19.0918 -4.24805 21.4844 -6.05469 21.4844 -8.83789 C 21.4844 -10.7422 20.3125 -12.3047 17.627 -12.5 L 17.627 -12.5977 C 19.8242 -13.0371 20.8984 -14.3555 20.8984 -16.3086 C 20.8984 -18.6523 18.7012 -20.2148 15.3809 -20.2148 C 12.8418 -20.2148 10.0586 -18.8477 10.0586 -16.7969 C 10.0586 -15.9668 10.6445 -15.5273 11.3281 -15.5273 C 11.9141 -15.5273 12.207 -15.7227 12.6465 -16.3574 C 13.3301 -17.4316 14.1602 -17.8711 15.332 -17.8711 C 16.8945 -17.8711 17.8711 -17.041 17.8711 -15.6738 C 17.8711 -14.502 16.748 -13.6719 14.9902 -13.6719 L 14.209 -13.6719 C 13.4766 -13.6719 12.9395 -13.1348 12.9395 -12.4023 C 12.9395 -11.7188 13.4766 -11.2305 14.209 -11.2305 L 15.0391 -11.2305 C 17.041 -11.2305 18.2129 -10.4004 18.2129 -8.98438 C 18.2129 -7.66602 16.9922 -6.73828 15.3809 -6.73828 C 14.0137 -6.73828 12.9883 -7.22656 12.3047 -8.34961 C 11.9629 -8.93555 11.5723 -9.17969 11.1328 -9.17969 C 10.2539 -9.17969 9.76562 -8.59375 9.76562 -7.86133 C 9.76562 -5.56641 12.793 -4.24805 15.3809 -4.24805 Z M 28.5156 -11.6699 L 82.1289 -11.6699 C 82.8125 -11.6699 83.252 -12.1582 83.252 -12.793 C 83.252 -13.4277 82.8125 -13.916 82.1289 -13.916 L 28.5156 -13.916 C 27.832 -13.916 27.3926 -13.4277 27.3926 -12.793 C 27.3926 -12.1582 27.832 -11.6699 28.5156 -11.6699 Z"/>
  </g>
 </g>
</svg>
