<?xml version="1.0" encoding="UTF-8"?>
<!--Generator: Apple Native CoreSVG 123-->
<!DOCTYPE svg
PUBLIC "-//W3C//DTD SVG 1.1//EN"
       "http://www.w3.org/Graphics/SVG/1.1/DTD/svg11.dtd">
<svg version="1.1" xmlns="http://www.w3.org/2000/svg" xmlns:xlink="http://www.w3.org/1999/xlink" width="3300" height="2200">
 <!--glyph: "uni100155.medium", point size: 100.000000, font version: "Version 15.0d7e11", template writer version: "5"-->
 <g id="Notes">
  <rect height="2200" id="artboard" style="fill:white;opacity:1" width="3300" x="0" y="0"/>
  <line id="" style="fill:none;stroke:black;opacity:1;stroke-width:0.5;" x1="263" x2="3036" y1="292" y2="292"/>
  <text style="stroke:none;fill:black;font-family:-apple-system,&quot;SF Pro Display&quot;,&quot;SF Pro Text&quot;,Helvetica,sans-serif;font-weight:bold;" transform="matrix(1 0 0 1 263 322)">Weight/Scale Variations</text>
  <text style="stroke:none;fill:black;font-family:-apple-system,&quot;SF Pro Display&quot;,&quot;SF Pro Text&quot;,Helvetica,sans-serif;text-anchor:middle;" transform="matrix(1 0 0 1 559.711 322)">Ultralight</text>
  <text style="stroke:none;fill:black;font-family:-apple-system,&quot;SF Pro Display&quot;,&quot;SF Pro Text&quot;,Helvetica,sans-serif;text-anchor:middle;" transform="matrix(1 0 0 1 856.422 322)">Thin</text>
  <text style="stroke:none;fill:black;font-family:-apple-system,&quot;SF Pro Display&quot;,&quot;SF Pro Text&quot;,Helvetica,sans-serif;text-anchor:middle;" transform="matrix(1 0 0 1 1153.13 322)">Light</text>
  <text style="stroke:none;fill:black;font-family:-apple-system,&quot;SF Pro Display&quot;,&quot;SF Pro Text&quot;,Helvetica,sans-serif;text-anchor:middle;" transform="matrix(1 0 0 1 1449.84 322)">Regular</text>
  <text style="stroke:none;fill:black;font-family:-apple-system,&quot;SF Pro Display&quot;,&quot;SF Pro Text&quot;,Helvetica,sans-serif;text-anchor:middle;" transform="matrix(1 0 0 1 1746.56 322)">Medium</text>
  <text style="stroke:none;fill:black;font-family:-apple-system,&quot;SF Pro Display&quot;,&quot;SF Pro Text&quot;,Helvetica,sans-serif;text-anchor:middle;" transform="matrix(1 0 0 1 2043.27 322)">Semibold</text>
  <text style="stroke:none;fill:black;font-family:-apple-system,&quot;SF Pro Display&quot;,&quot;SF Pro Text&quot;,Helvetica,sans-serif;text-anchor:middle;" transform="matrix(1 0 0 1 2339.98 322)">Bold</text>
  <text style="stroke:none;fill:black;font-family:-apple-system,&quot;SF Pro Display&quot;,&quot;SF Pro Text&quot;,Helvetica,sans-serif;text-anchor:middle;" transform="matrix(1 0 0 1 2636.69 322)">Heavy</text>
  <text style="stroke:none;fill:black;font-family:-apple-system,&quot;SF Pro Display&quot;,&quot;SF Pro Text&quot;,Helvetica,sans-serif;text-anchor:middle;" transform="matrix(1 0 0 1 2933.4 322)">Black</text>
  <line id="" style="fill:none;stroke:black;opacity:1;stroke-width:0.5;" x1="263" x2="3036" y1="1903" y2="1903"/>
  <g id="" transform="matrix(1 0 0 1 263 1933)">
   <path d="M 9.24805 0.830078 C 13.5547 0.830078 17.1387 -2.74414 17.1387 -7.05078 C 17.1387 -11.3574 13.5449 -14.9316 9.23828 -14.9316 C 4.94141 -14.9316 1.36719 -11.3574 1.36719 -7.05078 C 1.36719 -2.74414 4.95117 0.830078 9.24805 0.830078 Z M 9.24805 -0.654297 C 5.70312 -0.654297 2.87109 -3.49609 2.87109 -7.05078 C 2.87109 -10.6055 5.69336 -13.4473 9.23828 -13.4473 C 12.793 -13.4473 15.6348 -10.6055 15.6445 -7.05078 C 15.6543 -3.49609 12.8027 -0.654297 9.24805 -0.654297 Z M 9.22852 -3.42773 C 9.69727 -3.42773 9.9707 -3.74023 9.9707 -4.25781 L 9.9707 -6.31836 L 12.1973 -6.31836 C 12.6953 -6.31836 13.0371 -6.57227 13.0371 -7.04102 C 13.0371 -7.51953 12.7148 -7.7832 12.1973 -7.7832 L 9.9707 -7.7832 L 9.9707 -10.0098 C 9.9707 -10.5273 9.69727 -10.8496 9.22852 -10.8496 C 8.75977 -10.8496 8.50586 -10.5078 8.50586 -10.0098 L 8.50586 -7.7832 L 6.29883 -7.7832 C 5.78125 -7.7832 5.44922 -7.51953 5.44922 -7.04102 C 5.44922 -6.57227 5.80078 -6.31836 6.29883 -6.31836 L 8.50586 -6.31836 L 8.50586 -4.25781 C 8.50586 -3.75977 8.75977 -3.42773 9.22852 -3.42773 Z"/>
  </g>
  <g id="" transform="matrix(1 0 0 1 281.506 1933)">
   <path d="M 11.709 2.91016 C 17.1582 2.91016 21.6699 -1.60156 21.6699 -7.05078 C 21.6699 -12.4902 17.1484 -17.0117 11.6992 -17.0117 C 6.25977 -17.0117 1.74805 -12.4902 1.74805 -7.05078 C 1.74805 -1.60156 6.26953 2.91016 11.709 2.91016 Z M 11.709 1.25 C 7.09961 1.25 3.41797 -2.44141 3.41797 -7.05078 C 3.41797 -11.6504 7.08984 -15.3516 11.6992 -15.3516 C 16.3086 -15.3516 20 -11.6504 20.0098 -7.05078 C 20.0195 -2.44141 16.3184 1.25 11.709 1.25 Z M 11.6895 -2.41211 C 12.207 -2.41211 12.5195 -2.77344 12.5195 -3.33984 L 12.5195 -6.23047 L 15.5762 -6.23047 C 16.123 -6.23047 16.5039 -6.51367 16.5039 -7.03125 C 16.5039 -7.55859 16.1426 -7.86133 15.5762 -7.86133 L 12.5195 -7.86133 L 12.5195 -10.9277 C 12.5195 -11.5039 12.207 -11.8555 11.6895 -11.8555 C 11.1719 -11.8555 10.8789 -11.4844 10.8789 -10.9277 L 10.8789 -7.86133 L 7.83203 -7.86133 C 7.26562 -7.86133 6.89453 -7.55859 6.89453 -7.03125 C 6.89453 -6.51367 7.28516 -6.23047 7.83203 -6.23047 L 10.8789 -6.23047 L 10.8789 -3.33984 C 10.8789 -2.79297 11.1719 -2.41211 11.6895 -2.41211 Z"/>
  </g>
  <g id="" transform="matrix(1 0 0 1 304.924 1933)">
   <path d="M 14.9707 5.67383 C 21.9336 5.67383 27.6953 -0.078125 27.6953 -7.04102 C 27.6953 -14.0039 21.9238 -19.7559 14.9609 -19.7559 C 8.00781 -19.7559 2.25586 -14.0039 2.25586 -7.04102 C 2.25586 -0.078125 8.01758 5.67383 14.9707 5.67383 Z M 14.9707 3.85742 C 8.93555 3.85742 4.08203 -1.00586 4.08203 -7.04102 C 4.08203 -13.0762 8.92578 -17.9395 14.9609 -17.9395 C 21.0059 -17.9395 25.8594 -13.0762 25.8691 -7.04102 C 25.8789 -1.00586 21.0156 3.85742 14.9707 3.85742 Z M 14.9512 -1.06445 C 15.5176 -1.06445 15.8691 -1.45508 15.8691 -2.06055 L 15.8691 -6.13281 L 20.1074 -6.13281 C 20.6934 -6.13281 21.1133 -6.46484 21.1133 -7.02148 C 21.1133 -7.59766 20.7227 -7.93945 20.1074 -7.93945 L 15.8691 -7.93945 L 15.8691 -12.1875 C 15.8691 -12.8027 15.5176 -13.1934 14.9512 -13.1934 C 14.3848 -13.1934 14.0625 -12.7832 14.0625 -12.1875 L 14.0625 -7.93945 L 9.83398 -7.93945 C 9.21875 -7.93945 8.80859 -7.59766 8.80859 -7.02148 C 8.80859 -6.46484 9.23828 -6.13281 9.83398 -6.13281 L 14.0625 -6.13281 L 14.0625 -2.06055 C 14.0625 -1.47461 14.3848 -1.06445 14.9512 -1.06445 Z"/>
  </g>
  <text style="stroke:none;fill:black;font-family:-apple-system,&quot;SF Pro Display&quot;,&quot;SF Pro Text&quot;,Helvetica,sans-serif;font-weight:bold;" transform="matrix(1 0 0 1 263 1953)">Design Variations</text>
  <text style="stroke:none;fill:black;font-family:-apple-system,&quot;SF Pro Display&quot;,&quot;SF Pro Text&quot;,Helvetica,sans-serif;" transform="matrix(1 0 0 1 263 1971)">Symbols are supported in up to nine weights and three scales.</text>
  <text style="stroke:none;fill:black;font-family:-apple-system,&quot;SF Pro Display&quot;,&quot;SF Pro Text&quot;,Helvetica,sans-serif;" transform="matrix(1 0 0 1 263 1989)">For optimal layout with text and other symbols, vertically align</text>
  <text style="stroke:none;fill:black;font-family:-apple-system,&quot;SF Pro Display&quot;,&quot;SF Pro Text&quot;,Helvetica,sans-serif;" transform="matrix(1 0 0 1 263 2007)">symbols with the adjacent text.</text>
  <rect height="14" id="" style="fill:#00AEEF;stroke:none;opacity:0.4;" width="3" x="776" y="1919"/>
  <g id="" transform="matrix(1 0 0 1 779 1933)">
   <path d="M 10.5273 0 L 12.373 0 L 7.17773 -14.0918 L 5.43945 -14.0918 L 0.244141 0 L 2.08984 0 L 3.50586 -4.0332 L 9.11133 -4.0332 Z M 6.2793 -11.9531 L 6.33789 -11.9531 L 8.59375 -5.52734 L 4.02344 -5.52734 Z"/>
  </g>
  <rect height="14" id="" style="fill:#00AEEF;stroke:none;opacity:0.4;" width="3" x="791.617" y="1919"/>
  <text style="stroke:none;fill:black;font-family:-apple-system,&quot;SF Pro Display&quot;,&quot;SF Pro Text&quot;,Helvetica,sans-serif;font-weight:bold;" transform="matrix(1 0 0 1 776 1953)">Margins</text>
  <text style="stroke:none;fill:black;font-family:-apple-system,&quot;SF Pro Display&quot;,&quot;SF Pro Text&quot;,Helvetica,sans-serif;" transform="matrix(1 0 0 1 776 1971)">Leading and trailing margins on the left and right side of each symbol</text>
  <text style="stroke:none;fill:black;font-family:-apple-system,&quot;SF Pro Display&quot;,&quot;SF Pro Text&quot;,Helvetica,sans-serif;" transform="matrix(1 0 0 1 776 1989)">can be adjusted by modifying the width of the blue rectangles.</text>
  <text style="stroke:none;fill:black;font-family:-apple-system,&quot;SF Pro Display&quot;,&quot;SF Pro Text&quot;,Helvetica,sans-serif;" transform="matrix(1 0 0 1 776 2007)">Modifications are automatically applied proportionally to all</text>
  <text style="stroke:none;fill:black;font-family:-apple-system,&quot;SF Pro Display&quot;,&quot;SF Pro Text&quot;,Helvetica,sans-serif;" transform="matrix(1 0 0 1 776 2025)">scales and weights.</text>
  <g id="" transform="matrix(1 0 0 1 1289 1933)">
   <path d="M 2.83203 3.11523 L 4.375 4.6582 C 5.22461 5.48828 6.19141 5.41992 7.06055 4.46289 L 17.2754 -6.66016 C 17.7051 -6.36719 18.0957 -6.37695 18.5645 -6.47461 L 19.6094 -6.68945 L 20.3027 -5.99609 L 20.2539 -5.47852 C 20.1855 -4.95117 20.3516 -4.53125 20.8496 -4.0332 L 21.6602 -3.22266 C 22.168 -2.71484 22.8223 -2.68555 23.3008 -3.16406 L 26.5527 -6.41602 C 27.0312 -6.89453 27.0117 -7.54883 26.5039 -8.05664 L 25.6836 -8.87695 C 25.1855 -9.375 24.7754 -9.55078 24.2383 -9.47266 L 23.7109 -9.41406 L 23.0566 -10.0781 L 23.3398 -11.2207 C 23.4863 -11.7871 23.3398 -12.2559 22.7148 -12.8613 L 20.3027 -15.2539 C 16.7578 -18.7793 12.2266 -18.6719 9.11133 -15.5371 C 8.69141 -15.1074 8.64258 -14.5215 8.91602 -14.0918 C 9.15039 -13.7207 9.62891 -13.4961 10.2734 -13.6621 C 11.7871 -14.043 13.3008 -13.9258 14.7852 -12.9199 L 14.1602 -11.3379 C 13.9258 -10.752 13.9453 -10.2734 14.1797 -9.83398 L 3.01758 0.439453 C 2.08008 1.30859 1.97266 2.25586 2.83203 3.11523 Z M 10.6738 -15.1465 C 13.3398 -17.1387 16.6504 -16.8262 19.0527 -14.4141 L 21.6797 -11.8066 C 21.9141 -11.5723 21.9434 -11.3867 21.8848 -11.0938 L 21.5039 -9.53125 L 23.0762 -7.95898 L 24.043 -8.04688 C 24.3262 -8.07617 24.4141 -8.05664 24.6387 -7.83203 L 25.2637 -7.20703 L 22.5098 -4.46289 L 21.8848 -5.07812 C 21.6602 -5.30273 21.6406 -5.40039 21.6699 -5.68359 L 21.7578 -6.64062 L 20.1953 -8.20312 L 18.5742 -7.89062 C 18.291 -7.83203 18.1445 -7.83203 17.9102 -8.07617 L 15.7324 -10.2539 C 15.5078 -10.4883 15.4785 -10.625 15.6055 -10.9473 L 16.5527 -13.2227 C 14.9512 -14.7559 12.8418 -15.6055 10.8008 -14.9512 C 10.7129 -14.9219 10.6445 -14.9414 10.6152 -14.9805 C 10.5859 -15.0293 10.5859 -15.0781 10.6738 -15.1465 Z M 4.10156 2.41211 C 3.61328 1.91406 3.78906 1.61133 4.12109 1.30859 L 15.0781 -8.80859 L 16.3086 -7.57812 L 6.15234 3.34961 C 5.84961 3.68164 5.46875 3.7793 5.06836 3.37891 Z"/>
  </g>
  <text style="stroke:none;fill:black;font-family:-apple-system,&quot;SF Pro Display&quot;,&quot;SF Pro Text&quot;,Helvetica,sans-serif;font-weight:bold;" transform="matrix(1 0 0 1 1289 1953)">Exporting</text>
  <text style="stroke:none;fill:black;font-family:-apple-system,&quot;SF Pro Display&quot;,&quot;SF Pro Text&quot;,Helvetica,sans-serif;" transform="matrix(1 0 0 1 1289 1971)">Symbols should be outlined when exporting to ensure the</text>
  <text style="stroke:none;fill:black;font-family:-apple-system,&quot;SF Pro Display&quot;,&quot;SF Pro Text&quot;,Helvetica,sans-serif;" transform="matrix(1 0 0 1 1289 1989)">design is preserved when submitting to Xcode.</text>
  <text id="template-version" style="stroke:none;fill:black;font-family:-apple-system,&quot;SF Pro Display&quot;,&quot;SF Pro Text&quot;,Helvetica,sans-serif;text-anchor:end;" transform="matrix(1 0 0 1 3036 1933)">Template v.1.0</text>
  <text style="stroke:none;fill:black;font-family:-apple-system,&quot;SF Pro Display&quot;,&quot;SF Pro Text&quot;,Helvetica,sans-serif;text-anchor:end;" transform="matrix(1 0 0 1 3036 1951)">Generated from underline</text>
  <text style="stroke:none;fill:black;font-family:-apple-system,&quot;SF Pro Display&quot;,&quot;SF Pro Text&quot;,Helvetica,sans-serif;text-anchor:end;" transform="matrix(1 0 0 1 3036 1969)">Typeset at 100 points</text>
  <text style="stroke:none;fill:black;font-family:-apple-system,&quot;SF Pro Display&quot;,&quot;SF Pro Text&quot;,Helvetica,sans-serif;" transform="matrix(1 0 0 1 263 726)">Small</text>
  <text style="stroke:none;fill:black;font-family:-apple-system,&quot;SF Pro Display&quot;,&quot;SF Pro Text&quot;,Helvetica,sans-serif;" transform="matrix(1 0 0 1 263 1156)">Medium</text>
  <text style="stroke:none;fill:black;font-family:-apple-system,&quot;SF Pro Display&quot;,&quot;SF Pro Text&quot;,Helvetica,sans-serif;" transform="matrix(1 0 0 1 263 1586)">Large</text>
 </g>
 <g id="Guides">
  <g id="H-reference" style="fill:#27AAE1;stroke:none;" transform="matrix(1 0 0 1 339 696)">
   <path d="M 54.9316 0 L 57.666 0 L 30.5664 -70.459 L 28.0762 -70.459 L 0.976562 0 L 3.66211 0 L 12.9395 -24.4629 L 45.7031 -24.4629 Z M 29.1992 -67.0898 L 29.4434 -67.0898 L 44.8242 -26.709 L 13.8184 -26.709 Z"/>
  </g>
  <line id="Baseline-S" style="fill:none;stroke:#27AAE1;opacity:1;stroke-width:0.577;" x1="263" x2="3036" y1="696" y2="696"/>
  <line id="Capline-S" style="fill:none;stroke:#27AAE1;opacity:1;stroke-width:0.577;" x1="263" x2="3036" y1="625.541" y2="625.541"/>
  <g id="H-reference" style="fill:#27AAE1;stroke:none;" transform="matrix(1 0 0 1 339 1126)">
   <path d="M 54.9316 0 L 57.666 0 L 30.5664 -70.459 L 28.0762 -70.459 L 0.976562 0 L 3.66211 0 L 12.9395 -24.4629 L 45.7031 -24.4629 Z M 29.1992 -67.0898 L 29.4434 -67.0898 L 44.8242 -26.709 L 13.8184 -26.709 Z"/>
  </g>
  <line id="Baseline-M" style="fill:none;stroke:#27AAE1;opacity:1;stroke-width:0.577;" x1="263" x2="3036" y1="1126" y2="1126"/>
  <line id="Capline-M" style="fill:none;stroke:#27AAE1;opacity:1;stroke-width:0.577;" x1="263" x2="3036" y1="1055.54" y2="1055.54"/>
  <g id="H-reference" style="fill:#27AAE1;stroke:none;" transform="matrix(1 0 0 1 339 1556)">
   <path d="M 54.9316 0 L 57.666 0 L 30.5664 -70.459 L 28.0762 -70.459 L 0.976562 0 L 3.66211 0 L 12.9395 -24.4629 L 45.7031 -24.4629 Z M 29.1992 -67.0898 L 29.4434 -67.0898 L 44.8242 -26.709 L 13.8184 -26.709 Z"/>
  </g>
  <line id="Baseline-L" style="fill:none;stroke:#27AAE1;opacity:1;stroke-width:0.577;" x1="263" x2="3036" y1="1556" y2="1556"/>
  <line id="Capline-L" style="fill:none;stroke:#27AAE1;opacity:1;stroke-width:0.577;" x1="263" x2="3036" y1="1485.54" y2="1485.54"/>
  <rect height="119.336" id="left-margin" style="fill:#00AEEF;stroke:none;opacity:0.4;" width="12.4512" x="1408.95" y="1030.79"/>
  <rect height="119.336" id="right-margin" style="fill:#00AEEF;stroke:none;opacity:0.4;" width="12.4512" x="1478.29" y="1030.79"/>
 </g>
 <g id="Symbols">
  <g id="Black-L" transform="matrix(1 0 0 1 2875.44 1556)">
   <path d="M 57.959 13.916 C 83.3008 13.916 99.8535 -0.0976562 99.8535 -21.4355 L 99.8535 -72.168 C 99.8535 -79.6875 95.0684 -84.0332 87.5488 -84.0332 C 80.0781 -84.0332 75.2441 -79.6875 75.2441 -72.168 L 75.2441 -24.0234 C 75.2441 -13.0371 69.043 -6.49414 57.959 -6.49414 C 46.875 -6.49414 40.7227 -13.0371 40.7227 -24.0234 L 40.7227 -72.168 C 40.7227 -79.6875 35.8887 -84.0332 28.418 -84.0332 C 20.9473 -84.0332 16.1133 -79.6875 16.1133 -72.168 L 16.1133 -21.4355 C 16.1133 -0.0976562 32.7148 13.916 57.959 13.916 Z M 23.1445 36.377 L 92.7734 36.377 C 96.875 36.377 99.8535 33.5449 99.8535 29.5898 C 99.8535 25.6348 96.875 22.8027 92.7734 22.8027 L 23.1445 22.8027 C 19.0918 22.8027 16.0645 25.6348 16.0645 29.5898 C 16.0645 33.5449 19.0918 36.377 23.1445 36.377 Z"/>
  </g>
  <g id="Heavy-L" transform="matrix(1 0 0 1 2580.1 1556)">
   <path d="M 56.5918 13.3301 C 81.2012 13.3301 97.1191 -0.537109 97.1191 -21.4844 L 97.1191 -73.2422 C 97.1191 -79.7363 93.0176 -83.4961 86.5234 -83.4961 C 80.127 -83.4961 76.0254 -79.7363 76.0254 -73.2422 L 76.0254 -23.6816 C 76.0254 -11.7188 68.9453 -4.39453 56.5918 -4.39453 C 44.2383 -4.39453 37.2559 -11.7188 37.2559 -23.6816 L 37.2559 -73.2422 C 37.2559 -79.7363 33.0566 -83.4961 26.6602 -83.4961 C 20.2148 -83.4961 16.1133 -79.7363 16.1133 -73.2422 L 16.1133 -21.4844 C 16.1133 -0.537109 32.0312 13.3301 56.5918 13.3301 Z M 22.2656 34.9121 L 90.918 34.9121 C 94.4824 34.9121 97.1191 32.4219 97.1191 28.9551 C 97.1191 25.4883 94.4824 22.998 90.918 22.998 L 22.2656 22.998 C 18.7012 22.998 16.0645 25.4883 16.0645 28.9551 C 16.0645 32.4219 18.7012 34.9121 22.2656 34.9121 Z"/>
  </g>
  <g id="Bold-L" transform="matrix(1 0 0 1 2284.9 1556)">
   <path d="M 55.0781 12.6953 C 78.9062 12.6953 94.0918 -1.02539 94.0918 -21.582 L 94.0918 -74.4629 C 94.0918 -79.7363 90.6738 -82.9102 85.4492 -82.9102 C 80.2246 -82.9102 76.8555 -79.7363 76.8555 -74.4629 L 76.8555 -23.291 C 76.8555 -10.3027 68.8477 -2.00195 55.0781 -2.00195 C 41.3086 -2.00195 33.3008 -10.3027 33.3008 -23.291 L 33.3008 -74.4629 C 33.3008 -79.7363 29.8828 -82.9102 24.6582 -82.9102 C 19.4336 -82.9102 16.1133 -79.7363 16.1133 -74.4629 L 16.1133 -21.582 C 16.1133 -1.02539 31.2988 12.6953 55.0781 12.6953 Z M 21.2402 33.3008 L 88.8672 33.3008 C 91.8457 33.3008 94.0918 31.2012 94.0918 28.2715 C 94.0918 25.3418 91.8457 23.2422 88.8672 23.2422 L 21.2402 23.2422 C 18.3105 23.2422 16.0645 25.3418 16.0645 28.2715 C 16.0645 31.2012 18.3105 33.3008 21.2402 33.3008 Z"/>
  </g>
  <g id="Semibold-L" transform="matrix(1 0 0 1 1989.24 1556)">
   <path d="M 54.0039 12.2559 C 77.2949 12.2559 91.9922 -1.36719 91.9922 -21.6309 L 91.9922 -75.293 C 91.9922 -79.7852 89.1113 -82.4707 84.668 -82.4707 C 80.2734 -82.4707 77.4414 -79.7852 77.4414 -75.293 L 77.4414 -22.998 C 77.4414 -9.27734 68.75 -0.390625 54.0039 -0.390625 C 39.3066 -0.390625 30.6152 -9.27734 30.6152 -22.998 L 30.6152 -75.293 C 30.6152 -79.7852 27.7344 -82.4707 23.291 -82.4707 C 18.8965 -82.4707 16.0645 -79.7852 16.0645 -75.293 L 16.0645 -21.6309 C 16.0645 -1.36719 30.7617 12.2559 54.0039 12.2559 Z M 20.5566 32.1777 L 87.4512 32.1777 C 90.0391 32.1777 91.9922 30.3223 91.9922 27.7832 C 91.9922 25.2441 90.0391 23.3887 87.4512 23.3887 L 20.5566 23.3887 C 18.0176 23.3887 16.0645 25.2441 16.0645 27.7832 C 16.0645 30.3223 18.0176 32.1777 20.5566 32.1777 Z"/>
  </g>
  <g id="Medium-L" transform="matrix(1 0 0 1 1693.33 1556)">
   <path d="M 53.2227 11.9141 C 76.0742 11.9141 90.3809 -1.61133 90.3809 -21.6797 L 90.3809 -75.9766 C 90.3809 -79.7852 87.8906 -82.1777 84.082 -82.1777 C 80.2734 -82.1777 77.8809 -79.7852 77.8809 -75.9766 L 77.8809 -22.8027 C 77.8809 -8.54492 68.7012 0.830078 53.2227 0.830078 C 37.7441 0.830078 28.5645 -8.54492 28.5645 -22.8027 L 28.5645 -75.9766 C 28.5645 -79.7852 26.0742 -82.1777 22.2656 -82.1777 C 18.5059 -82.1777 16.0645 -79.7852 16.0645 -75.9766 L 16.0645 -21.6797 C 16.0645 -1.61133 30.4199 11.9141 53.2227 11.9141 Z M 20.0195 31.2988 L 86.377 31.2988 C 88.6719 31.2988 90.3809 29.6875 90.3809 27.4414 C 90.3809 25.1953 88.6719 23.5352 86.377 23.5352 L 20.0195 23.5352 C 17.8223 23.5352 16.0645 25.1953 16.0645 27.4414 C 16.0645 29.6875 17.8223 31.2988 20.0195 31.2988 Z"/>
  </g>
  <g id="Regular-L" transform="matrix(1 0 0 1 1397.67 1556)">
   <path d="M 52.1484 11.4746 C 74.4629 11.4746 88.2812 -1.95312 88.2812 -21.7285 L 88.2812 -76.8066 C 88.2812 -79.834 86.3281 -81.7383 83.3496 -81.7383 C 80.3223 -81.7383 78.4668 -79.834 78.4668 -76.8066 L 78.4668 -22.5098 C 78.4668 -7.51953 68.6523 2.44141 52.1484 2.44141 C 35.7422 2.44141 25.8789 -7.51953 25.8789 -22.5098 L 25.8789 -76.8066 C 25.8789 -79.834 23.9258 -81.7383 20.9473 -81.7383 C 17.9199 -81.7383 16.0645 -79.834 16.0645 -76.8066 L 16.0645 -21.7285 C 16.0645 -1.95312 29.8828 11.4746 52.1484 11.4746 Z M 19.3848 30.2246 L 84.9609 30.2246 C 86.8652 30.2246 88.2812 28.8086 88.2812 26.9531 C 88.2812 25.0977 86.8652 23.6816 84.9609 23.6816 L 19.3848 23.6816 C 17.5293 23.6816 16.0645 25.0977 16.0645 26.9531 C 16.0645 28.8086 17.5293 30.2246 19.3848 30.2246 Z"/>
  </g>
  <g id="Light-L" transform="matrix(1 0 0 1 1101.74 1556)">
   <path d="M 51.3672 11.5723 C 73.1445 11.5723 86.7188 -1.61133 86.7188 -21.4355 L 86.7188 -77.9785 C 86.7188 -80.2246 85.2539 -81.6895 83.0078 -81.6895 C 80.7617 -81.6895 79.3457 -80.2246 79.3457 -77.9785 L 79.3457 -21.9727 C 79.3457 -5.71289 68.75 4.83398 51.3672 4.83398 C 34.082 4.83398 23.4375 -5.71289 23.4375 -21.9727 L 23.4375 -77.9785 C 23.4375 -80.2246 21.9238 -81.6895 19.7266 -81.6895 C 17.4805 -81.6895 16.0645 -80.2246 16.0645 -77.9785 L 16.0645 -21.4355 C 16.0645 -1.61133 29.6387 11.5723 51.3672 11.5723 Z M 18.7988 29.4434 L 84.0332 29.4434 C 85.5957 29.4434 86.7188 28.3203 86.7188 26.8555 C 86.7188 25.3418 85.5957 24.2188 84.0332 24.2188 L 18.7988 24.2188 C 17.2363 24.2188 16.0645 25.3418 16.0645 26.8555 C 16.0645 28.3203 17.2363 29.4434 18.7988 29.4434 Z"/>
  </g>
  <g id="Thin-L" transform="matrix(1 0 0 1 806.056 1556)">
   <path d="M 50.3418 11.7188 C 71.3867 11.7188 84.668 -1.12305 84.668 -21.0449 L 84.668 -79.4922 C 84.668 -80.8105 83.8379 -81.5918 82.6172 -81.5918 C 81.3477 -81.5918 80.5664 -80.8105 80.5664 -79.4922 L 80.5664 -21.2402 C 80.5664 -3.32031 68.9453 7.95898 50.3418 7.95898 C 31.8359 7.95898 20.166 -3.32031 20.166 -21.2402 L 20.166 -79.4922 C 20.166 -80.8105 19.3359 -81.5918 18.1152 -81.5918 C 16.8457 -81.5918 16.0645 -80.8105 16.0645 -79.4922 L 16.0645 -21.0449 C 16.0645 -1.12305 29.3457 11.7188 50.3418 11.7188 Z M 18.0176 28.4668 L 82.7637 28.4668 C 83.9844 28.4668 84.668 27.6855 84.668 26.709 C 84.668 25.6836 83.9844 24.9512 82.7637 24.9512 L 18.0176 24.9512 C 16.7969 24.9512 16.0645 25.6836 16.0645 26.709 C 16.0645 27.6855 16.7969 28.4668 18.0176 28.4668 Z"/>
  </g>
  <g id="Ultralight-L" transform="matrix(1 0 0 1 509.882 1556)">
   <path d="M 49.8047 11.8164 C 70.459 11.8164 83.5938 -0.878906 83.5938 -20.8496 L 83.5938 -80.2734 C 83.5938 -81.1035 83.1055 -81.5918 82.373 -81.5918 C 81.6895 -81.5918 81.2012 -81.1035 81.2012 -80.2734 L 81.2012 -20.8496 C 81.2012 -2.09961 69.043 9.57031 49.8047 9.57031 C 30.7129 9.57031 18.457 -2.09961 18.457 -20.8496 L 18.457 -80.2734 C 18.457 -81.1035 17.9688 -81.5918 17.2852 -81.5918 C 16.5527 -81.5918 16.0645 -81.1035 16.0645 -80.2734 L 16.0645 -20.8496 C 16.0645 -0.878906 29.1504 11.8164 49.8047 11.8164 Z M 17.627 27.9297 L 82.0801 27.9297 C 83.1543 27.9297 83.5938 27.3926 83.5938 26.6113 C 83.5938 25.8301 83.1543 25.293 82.0801 25.293 L 17.627 25.293 C 16.6016 25.293 16.0645 25.8301 16.0645 26.6113 C 16.0645 27.3926 16.6016 27.9297 17.627 27.9297 Z"/>
  </g>
  <g id="Black-M" transform="matrix(1 0 0 1 2887.06 1126)">
   <path d="M 46.3379 3.71094 C 66.6504 3.71094 80.2246 -7.22656 80.2246 -24.2676 L 80.2246 -62.9883 C 80.2246 -69.873 75.8789 -73.7793 68.9941 -73.7793 C 62.207 -73.7793 57.7637 -69.873 57.7637 -62.9883 L 57.7637 -26.7578 C 57.7637 -18.7988 53.7109 -14.502 46.3379 -14.502 C 38.9648 -14.502 34.9609 -18.7988 34.9609 -26.7578 L 34.9609 -62.9883 C 34.9609 -69.873 30.5664 -73.7793 23.7305 -73.7793 C 16.9434 -73.7793 12.5 -69.873 12.5 -62.9883 L 12.5 -24.2676 C 12.5 -7.22656 26.123 3.71094 46.3379 3.71094 Z M 18.7988 21.8262 L 73.877 21.8262 C 77.5879 21.8262 80.2246 19.3359 80.2246 15.7715 C 80.2246 12.2559 77.5879 9.7168 73.877 9.7168 L 18.7988 9.7168 C 15.0879 9.7168 12.4512 12.2559 12.4512 15.7715 C 12.4512 19.3359 15.0879 21.8262 18.7988 21.8262 Z"/>
  </g>
  <g id="Heavy-M" transform="matrix(1 0 0 1 2591.62 1126)">
   <path d="M 45.0684 3.02734 C 64.7461 3.02734 77.6855 -7.76367 77.6855 -24.4141 L 77.6855 -63.8672 C 77.6855 -69.7754 73.9258 -73.1934 68.0176 -73.1934 C 62.1582 -73.1934 58.3496 -69.7754 58.3496 -63.8672 L 58.3496 -26.5137 C 58.3496 -17.8711 53.5645 -12.8418 45.0684 -12.8418 C 36.5234 -12.8418 31.7871 -17.8711 31.7871 -26.5137 L 31.7871 -63.8672 C 31.7871 -69.7754 27.9785 -73.1934 22.1191 -73.1934 C 16.2598 -73.1934 12.5 -69.7754 12.5 -63.8672 L 12.5 -24.4141 C 12.5 -7.76367 25.4395 3.02734 45.0684 3.02734 Z M 18.0176 20.459 L 72.1191 20.459 C 75.3418 20.459 77.6855 18.2129 77.6855 15.1367 C 77.6855 12.0605 75.3418 9.81445 72.1191 9.81445 L 18.0176 9.81445 C 14.7949 9.81445 12.4512 12.0605 12.4512 15.1367 C 12.4512 18.2129 14.7949 20.459 18.0176 20.459 Z"/>
  </g>
  <g id="Bold-M" transform="matrix(1 0 0 1 2296.35 1126)">
   <path d="M 43.6035 2.29492 C 62.5488 2.29492 74.8047 -8.44727 74.8047 -24.6094 L 74.8047 -64.8926 C 74.8047 -69.6777 71.6797 -72.5586 66.8945 -72.5586 C 62.1094 -72.5586 59.0332 -69.6777 59.0332 -64.8926 L 59.0332 -26.2207 C 59.0332 -16.7969 53.418 -10.9375 43.6035 -10.9375 C 33.8379 -10.9375 28.2227 -16.7969 28.2227 -26.2207 L 28.2227 -64.8926 C 28.2227 -69.6777 25.0977 -72.5586 20.3125 -72.5586 C 15.5762 -72.5586 12.5 -69.6777 12.5 -64.8926 L 12.5 -24.6094 C 12.5 -8.44727 24.707 2.29492 43.6035 2.29492 Z M 17.0898 18.8965 L 70.166 18.8965 C 72.8027 18.8965 74.8047 16.9922 74.8047 14.4043 C 74.8047 11.8164 72.8027 9.91211 70.166 9.91211 L 17.0898 9.91211 C 14.4531 9.91211 12.4512 11.8164 12.4512 14.4043 C 12.4512 16.9922 14.4531 18.8965 17.0898 18.8965 Z"/>
  </g>
  <g id="Semibold-M" transform="matrix(1 0 0 1 2000.64 1126)">
   <path d="M 42.627 1.80664 C 61.084 1.80664 72.8027 -8.88672 72.8027 -24.7559 L 72.8027 -65.5762 C 72.8027 -69.6289 70.166 -72.0703 66.1133 -72.0703 C 62.0605 -72.0703 59.4727 -69.6289 59.4727 -65.5762 L 59.4727 -26.0254 C 59.4727 -16.0645 53.3203 -9.66797 42.627 -9.66797 C 31.9336 -9.66797 25.7812 -16.0645 25.7812 -26.0254 L 25.7812 -65.5762 C 25.7812 -69.6289 23.1445 -72.0703 19.0918 -72.0703 C 15.0391 -72.0703 12.4512 -69.6289 12.4512 -65.5762 L 12.4512 -24.7559 C 12.4512 -8.88672 24.2188 1.80664 42.627 1.80664 Z M 16.4551 17.7734 L 68.7988 17.7734 C 71.0449 17.7734 72.8027 16.1621 72.8027 13.916 C 72.8027 11.6211 71.0449 10.0098 68.7988 10.0098 L 16.4551 10.0098 C 14.209 10.0098 12.4512 11.6211 12.4512 13.916 C 12.4512 16.1621 14.209 17.7734 16.4551 17.7734 Z"/>
  </g>
  <g id="Medium-M" transform="matrix(1 0 0 1 1704.69 1126)">
   <path d="M 41.8457 1.41602 C 59.9609 1.41602 71.2891 -9.17969 71.2891 -24.8047 L 71.2891 -66.1133 C 71.2891 -69.5801 68.9941 -71.7285 65.5273 -71.7285 C 62.0605 -71.7285 59.8633 -69.5801 59.8633 -66.1133 L 59.8633 -25.8789 C 59.8633 -15.5273 53.2227 -8.69141 41.8457 -8.69141 C 30.5176 -8.69141 23.9258 -15.5273 23.9258 -25.8789 L 23.9258 -66.1133 C 23.9258 -69.5801 21.6309 -71.7285 18.1641 -71.7285 C 14.6484 -71.7285 12.4512 -69.5801 12.4512 -66.1133 L 12.4512 -24.8047 C 12.4512 -9.17969 23.8281 1.41602 41.8457 1.41602 Z M 15.9668 16.9922 L 67.7734 16.9922 C 69.7266 16.9922 71.2891 15.5273 71.2891 13.5254 C 71.2891 11.5234 69.7266 10.0586 67.7734 10.0586 L 15.9668 10.0586 C 14.0137 10.0586 12.4512 11.5234 12.4512 13.5254 C 12.4512 15.5273 14.0137 16.9922 15.9668 16.9922 Z"/>
  </g>
  <g id="Regular-M" transform="matrix(1 0 0 1 1408.95 1126)">
   <path d="M 40.8691 0.927734 C 58.4473 0.927734 69.3359 -9.61914 69.3359 -24.9512 L 69.3359 -66.7969 C 69.3359 -69.5312 67.5293 -71.2891 64.7461 -71.2891 C 62.0117 -71.2891 60.3027 -69.5312 60.3027 -66.7969 L 60.3027 -25.6836 C 60.3027 -14.7949 53.125 -7.42188 40.8691 -7.42188 C 28.6621 -7.42188 21.4844 -14.7949 21.4844 -25.6836 L 21.4844 -66.7969 C 21.4844 -69.5312 19.6777 -71.2891 16.8945 -71.2891 C 14.1602 -71.2891 12.4512 -69.5312 12.4512 -66.7969 L 12.4512 -24.9512 C 12.4512 -9.61914 23.291 0.927734 40.8691 0.927734 Z M 15.332 15.918 L 66.4062 15.918 C 68.0176 15.918 69.3359 14.6973 69.3359 13.0371 C 69.3359 11.377 68.0176 10.1074 66.4062 10.1074 L 15.332 10.1074 C 13.7695 10.1074 12.4512 11.377 12.4512 13.0371 C 12.4512 14.6973 13.7695 15.918 15.332 15.918 Z"/>
  </g>
  <g id="Light-M" transform="matrix(1 0 0 1 1112.95 1126)">
   <path d="M 40.1855 1.02539 C 57.2754 1.02539 67.9199 -9.32617 67.9199 -24.6582 L 67.9199 -67.8223 C 67.9199 -69.9219 66.5527 -71.2402 64.502 -71.2402 C 62.4023 -71.2402 61.084 -69.9219 61.084 -67.8223 L 61.084 -25.1953 C 61.084 -13.1836 53.2227 -5.27344 40.1855 -5.27344 C 27.1484 -5.27344 19.2871 -13.1836 19.2871 -25.1953 L 19.2871 -67.8223 C 19.2871 -69.9219 17.8711 -71.2402 15.8203 -71.2402 C 13.7695 -71.2402 12.4512 -69.9219 12.4512 -67.8223 L 12.4512 -24.6582 C 12.4512 -9.32617 23.0957 1.02539 40.1855 1.02539 Z M 14.8438 15.2344 L 65.5273 15.2344 C 66.8945 15.2344 67.9199 14.2578 67.9199 12.9395 C 67.9199 11.5723 66.8945 10.5957 65.5273 10.5957 L 14.8438 10.5957 C 13.4766 10.5957 12.4512 11.5723 12.4512 12.9395 C 12.4512 14.2578 13.4766 15.2344 14.8438 15.2344 Z"/>
  </g>
  <g id="Thin-M" transform="matrix(1 0 0 1 817.164 1126)">
   <path d="M 39.2578 1.12305 C 55.7129 1.12305 66.0645 -8.88672 66.0645 -24.3164 L 66.0645 -69.1895 C 66.0645 -70.4102 65.2832 -71.1914 64.1113 -71.1914 C 62.9395 -71.1914 62.1582 -70.4102 62.1582 -69.1895 L 62.1582 -24.5605 C 62.1582 -11.0352 53.3691 -2.44141 39.2578 -2.44141 C 25.1465 -2.44141 16.3086 -11.0352 16.3086 -24.5605 L 16.3086 -69.1895 C 16.3086 -70.4102 15.5273 -71.1914 14.3555 -71.1914 C 13.1836 -71.1914 12.4512 -70.4102 12.4512 -69.1895 L 12.4512 -24.3164 C 12.4512 -8.88672 22.8027 1.12305 39.2578 1.12305 Z M 14.1602 14.3555 L 64.4043 14.3555 C 65.4297 14.3555 66.0645 13.6719 66.0645 12.793 C 66.0645 11.9141 65.4297 11.2305 64.4043 11.2305 L 14.1602 11.2305 C 13.1348 11.2305 12.4512 11.9141 12.4512 12.793 C 12.4512 13.6719 13.1348 14.3555 14.1602 14.3555 Z"/>
  </g>
  <g id="Ultralight-M" transform="matrix(1 0 0 1 520.942 1126)">
   <path d="M 38.7695 1.2207 C 54.8828 1.2207 65.0879 -8.69141 65.0879 -24.1699 L 65.0879 -69.9219 C 65.0879 -70.7031 64.6484 -71.1426 63.916 -71.1426 C 63.1836 -71.1426 62.7441 -70.7031 62.7441 -69.9219 L 62.7441 -24.2188 C 62.7441 -9.91211 53.4668 -0.976562 38.7695 -0.976562 C 24.1699 -0.976562 14.8438 -9.91211 14.8438 -24.2188 L 14.8438 -69.9219 C 14.8438 -70.7031 14.3555 -71.1426 13.623 -71.1426 C 12.9395 -71.1426 12.4512 -70.7031 12.4512 -69.9219 L 12.4512 -24.1699 C 12.4512 -8.69141 22.6562 1.2207 38.7695 1.2207 Z M 13.8184 13.8672 L 63.8184 13.8672 C 64.6973 13.8672 65.0879 13.3789 65.0879 12.7441 C 65.0879 12.0605 64.6973 11.5723 63.8184 11.5723 L 13.8184 11.5723 C 12.9395 11.5723 12.4512 12.0605 12.4512 12.7441 C 12.4512 13.3789 12.9395 13.8672 13.8184 13.8672 Z"/>
  </g>
  <g id="Black-S" transform="matrix(1 0 0 1 2897.17 696)">
   <path d="M 36.2305 -4.78516 C 52.0996 -4.78516 62.6953 -13.3301 62.6953 -26.6602 L 62.6953 -57.0312 C 62.6953 -62.3535 59.3262 -65.3809 54.0039 -65.3809 C 48.7305 -65.3809 45.3125 -62.3535 45.3125 -57.0312 L 45.3125 -28.5645 C 45.3125 -22.3145 42.0898 -18.8965 36.2305 -18.8965 C 30.3711 -18.8965 27.1973 -22.3145 27.1973 -28.5645 L 27.1973 -57.0312 C 27.1973 -62.3535 23.7793 -65.3809 18.5059 -65.3809 C 13.2324 -65.3809 9.81445 -62.3535 9.81445 -57.0312 L 9.81445 -26.6602 C 9.81445 -13.3301 20.4102 -4.78516 36.2305 -4.78516 Z M 14.6973 9.375 L 57.7637 9.375 C 60.6445 9.375 62.6953 7.42188 62.6953 4.6875 C 62.6953 1.95312 60.6445 0 57.7637 0 L 14.6973 0 C 11.8164 0 9.76562 1.95312 9.76562 4.6875 C 9.76562 7.42188 11.8164 9.375 14.6973 9.375 Z"/>
  </g>
  <g id="Heavy-S" transform="matrix(1 0 0 1 2601.36 696)">
   <path d="M 35.3027 -5.32227 C 50.7324 -5.32227 60.8887 -13.8184 60.8887 -26.8066 L 60.8887 -57.6172 C 60.8887 -62.2559 57.9102 -64.9414 53.2715 -64.9414 C 48.6328 -64.9414 45.6543 -62.2559 45.6543 -57.6172 L 45.6543 -28.418 C 45.6543 -21.7773 41.9434 -17.8711 35.3027 -17.8711 C 28.6621 -17.8711 25 -21.7773 25 -28.418 L 25 -57.6172 C 25 -62.2559 22.0215 -64.9414 17.3828 -64.9414 C 12.793 -64.9414 9.81445 -62.2559 9.81445 -57.6172 L 9.81445 -26.8066 C 9.81445 -13.8184 19.9219 -5.32227 35.3027 -5.32227 Z M 14.1113 8.39844 L 56.4941 8.39844 C 59.0332 8.39844 60.8887 6.64062 60.8887 4.19922 C 60.8887 1.75781 59.0332 0 56.4941 0 L 14.1113 0 C 11.6211 0 9.76562 1.75781 9.76562 4.19922 C 9.76562 6.64062 11.6211 8.39844 14.1113 8.39844 Z"/>
  </g>
  <g id="Bold-S" transform="matrix(1 0 0 1 2305.68 696)">
   <path d="M 34.2773 -5.85938 C 49.2676 -5.85938 58.8379 -14.3555 58.8379 -27.002 L 58.8379 -58.252 C 58.8379 -62.1582 56.3477 -64.4531 52.4414 -64.4531 C 48.584 -64.4531 46.0938 -62.1582 46.0938 -58.252 L 46.0938 -28.2715 C 46.0938 -21.1426 41.8457 -16.6992 34.2773 -16.6992 C 26.8066 -16.6992 22.5586 -21.1426 22.5586 -28.2715 L 22.5586 -58.252 C 22.5586 -62.1582 20.0195 -64.4531 16.1621 -64.4531 C 12.2559 -64.4531 9.81445 -62.1582 9.81445 -58.252 L 9.81445 -27.002 C 9.81445 -14.3555 19.3848 -5.85938 34.2773 -5.85938 Z M 13.4766 7.27539 L 55.127 7.27539 C 57.2266 7.27539 58.8379 5.76172 58.8379 3.66211 C 58.8379 1.5625 57.2266 0.0488281 55.127 0.0488281 L 13.4766 0.0488281 C 11.377 0.0488281 9.76562 1.5625 9.76562 3.66211 C 9.76562 5.76172 11.377 7.27539 13.4766 7.27539 Z"/>
  </g>
  <g id="Semibold-S" transform="matrix(1 0 0 1 2009.65 696)">
   <path d="M 33.5938 -6.25 C 48.1934 -6.25 57.4707 -14.6973 57.4707 -27.0996 L 57.4707 -58.6914 C 57.4707 -62.0605 55.2734 -64.1113 51.8555 -64.1113 C 48.4863 -64.1113 46.3867 -62.0605 46.3867 -58.6914 L 46.3867 -28.1738 C 46.3867 -20.752 41.748 -15.8691 33.5938 -15.8691 C 25.4883 -15.8691 20.8496 -20.752 20.8496 -28.1738 L 20.8496 -58.6914 C 20.8496 -62.0605 18.6523 -64.1113 15.2832 -64.1113 C 11.9141 -64.1113 9.76562 -62.0605 9.76562 -58.6914 L 9.76562 -27.0996 C 9.76562 -14.6973 19.043 -6.25 33.5938 -6.25 Z M 13.0371 6.49414 L 54.1504 6.49414 C 56.0059 6.49414 57.4707 5.12695 57.4707 3.27148 C 57.4707 1.41602 56.0059 0.0488281 54.1504 0.0488281 L 13.0371 0.0488281 C 11.2305 0.0488281 9.76562 1.41602 9.76562 3.27148 C 9.76562 5.12695 11.2305 6.49414 13.0371 6.49414 Z"/>
  </g>
  <g id="Medium-S" transform="matrix(1 0 0 1 1713.47 696)">
   <path d="M 33.0566 -6.5918 C 47.4121 -6.5918 56.3965 -14.9902 56.3965 -27.1973 L 56.3965 -58.9844 C 56.3965 -62.0117 54.4434 -63.8672 51.4648 -63.8672 C 48.4375 -63.8672 46.582 -62.0117 46.582 -58.9844 L 46.582 -28.125 C 46.582 -20.4102 41.6504 -15.2832 33.0566 -15.2832 C 24.5117 -15.2832 19.5801 -20.4102 19.5801 -28.125 L 19.5801 -58.9844 C 19.5801 -62.0117 17.627 -63.8672 14.6484 -63.8672 C 11.6699 -63.8672 9.76562 -62.0117 9.76562 -58.9844 L 9.76562 -27.1973 C 9.76562 -14.9902 18.75 -6.5918 33.0566 -6.5918 Z M 12.6953 5.9082 L 53.418 5.9082 C 55.0781 5.9082 56.3965 4.6875 56.3965 2.97852 C 56.3965 1.31836 55.0781 0.0488281 53.418 0.0488281 L 12.6953 0.0488281 C 11.084 0.0488281 9.76562 1.31836 9.76562 2.97852 C 9.76562 4.6875 11.084 5.9082 12.6953 5.9082 Z"/>
  </g>
  <g id="Regular-S" transform="matrix(1 0 0 1 1417.45 696)">
   <path d="M 32.373 -6.98242 C 46.3867 -6.98242 55.0293 -15.332 55.0293 -27.2949 L 55.0293 -59.4238 C 55.0293 -61.9141 53.3691 -63.5254 50.8789 -63.5254 C 48.3887 -63.5254 46.875 -61.9141 46.875 -59.4238 L 46.875 -27.9785 C 46.875 -20.0195 41.5527 -14.4531 32.373 -14.4531 C 23.1934 -14.4531 17.9199 -20.0195 17.9199 -27.9785 L 17.9199 -59.4238 C 17.9199 -61.9141 16.2598 -63.5254 13.8184 -63.5254 C 11.3281 -63.5254 9.76562 -61.9141 9.76562 -59.4238 L 9.76562 -27.2949 C 9.76562 -15.332 18.3594 -6.98242 32.373 -6.98242 Z M 12.2559 5.17578 L 52.4414 5.17578 C 53.8086 5.17578 55.0293 4.10156 55.0293 2.63672 C 55.0293 1.17188 53.8086 0.0976562 52.4414 0.0976562 L 12.2559 0.0976562 C 10.9375 0.0976562 9.76562 1.17188 9.76562 2.63672 C 9.76562 4.10156 10.9375 5.17578 12.2559 5.17578 Z"/>
  </g>
  <g id="Light-S" transform="matrix(1 0 0 1 1121.37 696)">
   <path d="M 31.7383 -6.88477 C 45.3613 -6.88477 53.7598 -15.0391 53.7598 -27.0508 L 53.7598 -60.3516 C 53.7598 -62.2559 52.5391 -63.4766 50.6348 -63.4766 C 48.7305 -63.4766 47.5586 -62.2559 47.5586 -60.3516 L 47.5586 -27.5391 C 47.5586 -18.5547 41.6504 -12.5488 31.7383 -12.5488 C 21.875 -12.5488 15.9668 -18.5547 15.9668 -27.5391 L 15.9668 -60.3516 C 15.9668 -62.2559 14.6973 -63.4766 12.8418 -63.4766 C 10.9375 -63.4766 9.76562 -62.2559 9.76562 -60.3516 L 9.76562 -27.0508 C 9.76562 -15.0391 18.1641 -6.88477 31.7383 -6.88477 Z M 11.8164 4.58984 L 51.709 4.58984 C 52.832 4.58984 53.7598 3.71094 53.7598 2.53906 C 53.7598 1.36719 52.832 0.488281 51.709 0.488281 L 11.8164 0.488281 C 10.6934 0.488281 9.76562 1.36719 9.76562 2.53906 C 9.76562 3.71094 10.6934 4.58984 11.8164 4.58984 Z"/>
  </g>
  <g id="Thin-S" transform="matrix(1 0 0 1 825.49 696)">
   <path d="M 30.957 -6.78711 C 43.9453 -6.78711 52.0996 -14.6973 52.0996 -26.7578 L 52.0996 -61.5723 C 52.0996 -62.6953 51.416 -63.4277 50.293 -63.4277 C 49.2188 -63.4277 48.5352 -62.6953 48.5352 -61.5723 L 48.5352 -27.002 C 48.5352 -16.6992 41.7969 -10.0586 30.957 -10.0586 C 20.1172 -10.0586 13.3789 -16.6992 13.3789 -27.002 L 13.3789 -61.5723 C 13.3789 -62.6953 12.6465 -63.4277 11.5723 -63.4277 C 10.4492 -63.4277 9.76562 -62.6953 9.76562 -61.5723 L 9.76562 -26.7578 C 9.76562 -14.6973 17.9199 -6.78711 30.957 -6.78711 Z M 11.2305 3.75977 L 50.6836 3.75977 C 51.5625 3.75977 52.0996 3.22266 52.0996 2.44141 C 52.0996 1.61133 51.5625 1.07422 50.6836 1.07422 L 11.2305 1.07422 C 10.3516 1.07422 9.76562 1.61133 9.76562 2.44141 C 9.76562 3.22266 10.3516 3.75977 11.2305 3.75977 Z"/>
  </g>
  <g id="Ultralight-S" transform="matrix(1 0 0 1 529.194 696)">
   <path d="M 30.5176 -6.68945 C 43.2129 -6.68945 51.2695 -14.502 51.2695 -26.6113 L 51.2695 -62.207 C 51.2695 -62.9395 50.8301 -63.3789 50.1465 -63.3789 C 49.4629 -63.3789 49.0234 -62.9395 49.0234 -62.207 L 49.0234 -26.6602 C 49.0234 -15.7227 41.8945 -8.78906 30.5176 -8.78906 C 19.1895 -8.78906 12.0117 -15.7227 12.0117 -26.6602 L 12.0117 -62.207 C 12.0117 -62.9395 11.5723 -63.3789 10.8887 -63.3789 C 10.2051 -63.3789 9.76562 -62.9395 9.76562 -62.207 L 9.76562 -26.6113 C 9.76562 -14.502 17.8223 -6.68945 30.5176 -6.68945 Z M 10.8887 3.36914 L 50.1465 3.36914 C 50.8789 3.36914 51.2695 2.92969 51.2695 2.34375 C 51.2695 1.75781 50.8789 1.36719 50.1465 1.36719 L 10.8887 1.36719 C 10.2051 1.36719 9.76562 1.75781 9.76562 2.34375 C 9.76562 2.92969 10.2051 3.36914 10.8887 3.36914 Z"/>
  </g>
 </g>
</svg>
