<?xml version="1.0" encoding="UTF-8"?>
<!--Generator: Apple Native CoreSVG 123-->
<!DOCTYPE svg
PUBLIC "-//W3C//DTD SVG 1.1//EN"
       "http://www.w3.org/Graphics/SVG/1.1/DTD/svg11.dtd">
<svg version="1.1" xmlns="http://www.w3.org/2000/svg" xmlns:xlink="http://www.w3.org/1999/xlink" width="3300" height="2200">
 <!--glyph: "uni100154.medium", point size: 100.000000, font version: "Version 15.0d7e11", template writer version: "5"-->
 <g id="Notes">
  <rect height="2200" id="artboard" style="fill:white;opacity:1" width="3300" x="0" y="0"/>
  <line id="" style="fill:none;stroke:black;opacity:1;stroke-width:0.5;" x1="263" x2="3036" y1="292" y2="292"/>
  <text style="stroke:none;fill:black;font-family:-apple-system,&quot;SF Pro Display&quot;,&quot;SF Pro Text&quot;,Helvetica,sans-serif;font-weight:bold;" transform="matrix(1 0 0 1 263 322)">Weight/Scale Variations</text>
  <text style="stroke:none;fill:black;font-family:-apple-system,&quot;SF Pro Display&quot;,&quot;SF Pro Text&quot;,Helvetica,sans-serif;text-anchor:middle;" transform="matrix(1 0 0 1 559.711 322)">Ultralight</text>
  <text style="stroke:none;fill:black;font-family:-apple-system,&quot;SF Pro Display&quot;,&quot;SF Pro Text&quot;,Helvetica,sans-serif;text-anchor:middle;" transform="matrix(1 0 0 1 856.422 322)">Thin</text>
  <text style="stroke:none;fill:black;font-family:-apple-system,&quot;SF Pro Display&quot;,&quot;SF Pro Text&quot;,Helvetica,sans-serif;text-anchor:middle;" transform="matrix(1 0 0 1 1153.13 322)">Light</text>
  <text style="stroke:none;fill:black;font-family:-apple-system,&quot;SF Pro Display&quot;,&quot;SF Pro Text&quot;,Helvetica,sans-serif;text-anchor:middle;" transform="matrix(1 0 0 1 1449.84 322)">Regular</text>
  <text style="stroke:none;fill:black;font-family:-apple-system,&quot;SF Pro Display&quot;,&quot;SF Pro Text&quot;,Helvetica,sans-serif;text-anchor:middle;" transform="matrix(1 0 0 1 1746.56 322)">Medium</text>
  <text style="stroke:none;fill:black;font-family:-apple-system,&quot;SF Pro Display&quot;,&quot;SF Pro Text&quot;,Helvetica,sans-serif;text-anchor:middle;" transform="matrix(1 0 0 1 2043.27 322)">Semibold</text>
  <text style="stroke:none;fill:black;font-family:-apple-system,&quot;SF Pro Display&quot;,&quot;SF Pro Text&quot;,Helvetica,sans-serif;text-anchor:middle;" transform="matrix(1 0 0 1 2339.98 322)">Bold</text>
  <text style="stroke:none;fill:black;font-family:-apple-system,&quot;SF Pro Display&quot;,&quot;SF Pro Text&quot;,Helvetica,sans-serif;text-anchor:middle;" transform="matrix(1 0 0 1 2636.69 322)">Heavy</text>
  <text style="stroke:none;fill:black;font-family:-apple-system,&quot;SF Pro Display&quot;,&quot;SF Pro Text&quot;,Helvetica,sans-serif;text-anchor:middle;" transform="matrix(1 0 0 1 2933.4 322)">Black</text>
  <line id="" style="fill:none;stroke:black;opacity:1;stroke-width:0.5;" x1="263" x2="3036" y1="1903" y2="1903"/>
  <g id="" transform="matrix(1 0 0 1 263 1933)">
   <path d="M 9.24805 0.830078 C 13.5547 0.830078 17.1387 -2.74414 17.1387 -7.05078 C 17.1387 -11.3574 13.5449 -14.9316 9.23828 -14.9316 C 4.94141 -14.9316 1.36719 -11.3574 1.36719 -7.05078 C 1.36719 -2.74414 4.95117 0.830078 9.24805 0.830078 Z M 9.24805 -0.654297 C 5.70312 -0.654297 2.87109 -3.49609 2.87109 -7.05078 C 2.87109 -10.6055 5.69336 -13.4473 9.23828 -13.4473 C 12.793 -13.4473 15.6348 -10.6055 15.6445 -7.05078 C 15.6543 -3.49609 12.8027 -0.654297 9.24805 -0.654297 Z M 9.22852 -3.42773 C 9.69727 -3.42773 9.9707 -3.74023 9.9707 -4.25781 L 9.9707 -6.31836 L 12.1973 -6.31836 C 12.6953 -6.31836 13.0371 -6.57227 13.0371 -7.04102 C 13.0371 -7.51953 12.7148 -7.7832 12.1973 -7.7832 L 9.9707 -7.7832 L 9.9707 -10.0098 C 9.9707 -10.5273 9.69727 -10.8496 9.22852 -10.8496 C 8.75977 -10.8496 8.50586 -10.5078 8.50586 -10.0098 L 8.50586 -7.7832 L 6.29883 -7.7832 C 5.78125 -7.7832 5.44922 -7.51953 5.44922 -7.04102 C 5.44922 -6.57227 5.80078 -6.31836 6.29883 -6.31836 L 8.50586 -6.31836 L 8.50586 -4.25781 C 8.50586 -3.75977 8.75977 -3.42773 9.22852 -3.42773 Z"/>
  </g>
  <g id="" transform="matrix(1 0 0 1 281.506 1933)">
   <path d="M 11.709 2.91016 C 17.1582 2.91016 21.6699 -1.60156 21.6699 -7.05078 C 21.6699 -12.4902 17.1484 -17.0117 11.6992 -17.0117 C 6.25977 -17.0117 1.74805 -12.4902 1.74805 -7.05078 C 1.74805 -1.60156 6.26953 2.91016 11.709 2.91016 Z M 11.709 1.25 C 7.09961 1.25 3.41797 -2.44141 3.41797 -7.05078 C 3.41797 -11.6504 7.08984 -15.3516 11.6992 -15.3516 C 16.3086 -15.3516 20 -11.6504 20.0098 -7.05078 C 20.0195 -2.44141 16.3184 1.25 11.709 1.25 Z M 11.6895 -2.41211 C 12.207 -2.41211 12.5195 -2.77344 12.5195 -3.33984 L 12.5195 -6.23047 L 15.5762 -6.23047 C 16.123 -6.23047 16.5039 -6.51367 16.5039 -7.03125 C 16.5039 -7.55859 16.1426 -7.86133 15.5762 -7.86133 L 12.5195 -7.86133 L 12.5195 -10.9277 C 12.5195 -11.5039 12.207 -11.8555 11.6895 -11.8555 C 11.1719 -11.8555 10.8789 -11.4844 10.8789 -10.9277 L 10.8789 -7.86133 L 7.83203 -7.86133 C 7.26562 -7.86133 6.89453 -7.55859 6.89453 -7.03125 C 6.89453 -6.51367 7.28516 -6.23047 7.83203 -6.23047 L 10.8789 -6.23047 L 10.8789 -3.33984 C 10.8789 -2.79297 11.1719 -2.41211 11.6895 -2.41211 Z"/>
  </g>
  <g id="" transform="matrix(1 0 0 1 304.924 1933)">
   <path d="M 14.9707 5.67383 C 21.9336 5.67383 27.6953 -0.078125 27.6953 -7.04102 C 27.6953 -14.0039 21.9238 -19.7559 14.9609 -19.7559 C 8.00781 -19.7559 2.25586 -14.0039 2.25586 -7.04102 C 2.25586 -0.078125 8.01758 5.67383 14.9707 5.67383 Z M 14.9707 3.85742 C 8.93555 3.85742 4.08203 -1.00586 4.08203 -7.04102 C 4.08203 -13.0762 8.92578 -17.9395 14.9609 -17.9395 C 21.0059 -17.9395 25.8594 -13.0762 25.8691 -7.04102 C 25.8789 -1.00586 21.0156 3.85742 14.9707 3.85742 Z M 14.9512 -1.06445 C 15.5176 -1.06445 15.8691 -1.45508 15.8691 -2.06055 L 15.8691 -6.13281 L 20.1074 -6.13281 C 20.6934 -6.13281 21.1133 -6.46484 21.1133 -7.02148 C 21.1133 -7.59766 20.7227 -7.93945 20.1074 -7.93945 L 15.8691 -7.93945 L 15.8691 -12.1875 C 15.8691 -12.8027 15.5176 -13.1934 14.9512 -13.1934 C 14.3848 -13.1934 14.0625 -12.7832 14.0625 -12.1875 L 14.0625 -7.93945 L 9.83398 -7.93945 C 9.21875 -7.93945 8.80859 -7.59766 8.80859 -7.02148 C 8.80859 -6.46484 9.23828 -6.13281 9.83398 -6.13281 L 14.0625 -6.13281 L 14.0625 -2.06055 C 14.0625 -1.47461 14.3848 -1.06445 14.9512 -1.06445 Z"/>
  </g>
  <text style="stroke:none;fill:black;font-family:-apple-system,&quot;SF Pro Display&quot;,&quot;SF Pro Text&quot;,Helvetica,sans-serif;font-weight:bold;" transform="matrix(1 0 0 1 263 1953)">Design Variations</text>
  <text style="stroke:none;fill:black;font-family:-apple-system,&quot;SF Pro Display&quot;,&quot;SF Pro Text&quot;,Helvetica,sans-serif;" transform="matrix(1 0 0 1 263 1971)">Symbols are supported in up to nine weights and three scales.</text>
  <text style="stroke:none;fill:black;font-family:-apple-system,&quot;SF Pro Display&quot;,&quot;SF Pro Text&quot;,Helvetica,sans-serif;" transform="matrix(1 0 0 1 263 1989)">For optimal layout with text and other symbols, vertically align</text>
  <text style="stroke:none;fill:black;font-family:-apple-system,&quot;SF Pro Display&quot;,&quot;SF Pro Text&quot;,Helvetica,sans-serif;" transform="matrix(1 0 0 1 263 2007)">symbols with the adjacent text.</text>
  <rect height="14" id="" style="fill:#00AEEF;stroke:none;opacity:0.4;" width="3" x="776" y="1919"/>
  <g id="" transform="matrix(1 0 0 1 779 1933)">
   <path d="M 10.5273 0 L 12.373 0 L 7.17773 -14.0918 L 5.43945 -14.0918 L 0.244141 0 L 2.08984 0 L 3.50586 -4.0332 L 9.11133 -4.0332 Z M 6.2793 -11.9531 L 6.33789 -11.9531 L 8.59375 -5.52734 L 4.02344 -5.52734 Z"/>
  </g>
  <rect height="14" id="" style="fill:#00AEEF;stroke:none;opacity:0.4;" width="3" x="791.617" y="1919"/>
  <text style="stroke:none;fill:black;font-family:-apple-system,&quot;SF Pro Display&quot;,&quot;SF Pro Text&quot;,Helvetica,sans-serif;font-weight:bold;" transform="matrix(1 0 0 1 776 1953)">Margins</text>
  <text style="stroke:none;fill:black;font-family:-apple-system,&quot;SF Pro Display&quot;,&quot;SF Pro Text&quot;,Helvetica,sans-serif;" transform="matrix(1 0 0 1 776 1971)">Leading and trailing margins on the left and right side of each symbol</text>
  <text style="stroke:none;fill:black;font-family:-apple-system,&quot;SF Pro Display&quot;,&quot;SF Pro Text&quot;,Helvetica,sans-serif;" transform="matrix(1 0 0 1 776 1989)">can be adjusted by modifying the width of the blue rectangles.</text>
  <text style="stroke:none;fill:black;font-family:-apple-system,&quot;SF Pro Display&quot;,&quot;SF Pro Text&quot;,Helvetica,sans-serif;" transform="matrix(1 0 0 1 776 2007)">Modifications are automatically applied proportionally to all</text>
  <text style="stroke:none;fill:black;font-family:-apple-system,&quot;SF Pro Display&quot;,&quot;SF Pro Text&quot;,Helvetica,sans-serif;" transform="matrix(1 0 0 1 776 2025)">scales and weights.</text>
  <g id="" transform="matrix(1 0 0 1 1289 1933)">
   <path d="M 2.83203 3.11523 L 4.375 4.6582 C 5.22461 5.48828 6.19141 5.41992 7.06055 4.46289 L 17.2754 -6.66016 C 17.7051 -6.36719 18.0957 -6.37695 18.5645 -6.47461 L 19.6094 -6.68945 L 20.3027 -5.99609 L 20.2539 -5.47852 C 20.1855 -4.95117 20.3516 -4.53125 20.8496 -4.0332 L 21.6602 -3.22266 C 22.168 -2.71484 22.8223 -2.68555 23.3008 -3.16406 L 26.5527 -6.41602 C 27.0312 -6.89453 27.0117 -7.54883 26.5039 -8.05664 L 25.6836 -8.87695 C 25.1855 -9.375 24.7754 -9.55078 24.2383 -9.47266 L 23.7109 -9.41406 L 23.0566 -10.0781 L 23.3398 -11.2207 C 23.4863 -11.7871 23.3398 -12.2559 22.7148 -12.8613 L 20.3027 -15.2539 C 16.7578 -18.7793 12.2266 -18.6719 9.11133 -15.5371 C 8.69141 -15.1074 8.64258 -14.5215 8.91602 -14.0918 C 9.15039 -13.7207 9.62891 -13.4961 10.2734 -13.6621 C 11.7871 -14.043 13.3008 -13.9258 14.7852 -12.9199 L 14.1602 -11.3379 C 13.9258 -10.752 13.9453 -10.2734 14.1797 -9.83398 L 3.01758 0.439453 C 2.08008 1.30859 1.97266 2.25586 2.83203 3.11523 Z M 10.6738 -15.1465 C 13.3398 -17.1387 16.6504 -16.8262 19.0527 -14.4141 L 21.6797 -11.8066 C 21.9141 -11.5723 21.9434 -11.3867 21.8848 -11.0938 L 21.5039 -9.53125 L 23.0762 -7.95898 L 24.043 -8.04688 C 24.3262 -8.07617 24.4141 -8.05664 24.6387 -7.83203 L 25.2637 -7.20703 L 22.5098 -4.46289 L 21.8848 -5.07812 C 21.6602 -5.30273 21.6406 -5.40039 21.6699 -5.68359 L 21.7578 -6.64062 L 20.1953 -8.20312 L 18.5742 -7.89062 C 18.291 -7.83203 18.1445 -7.83203 17.9102 -8.07617 L 15.7324 -10.2539 C 15.5078 -10.4883 15.4785 -10.625 15.6055 -10.9473 L 16.5527 -13.2227 C 14.9512 -14.7559 12.8418 -15.6055 10.8008 -14.9512 C 10.7129 -14.9219 10.6445 -14.9414 10.6152 -14.9805 C 10.5859 -15.0293 10.5859 -15.0781 10.6738 -15.1465 Z M 4.10156 2.41211 C 3.61328 1.91406 3.78906 1.61133 4.12109 1.30859 L 15.0781 -8.80859 L 16.3086 -7.57812 L 6.15234 3.34961 C 5.84961 3.68164 5.46875 3.7793 5.06836 3.37891 Z"/>
  </g>
  <text style="stroke:none;fill:black;font-family:-apple-system,&quot;SF Pro Display&quot;,&quot;SF Pro Text&quot;,Helvetica,sans-serif;font-weight:bold;" transform="matrix(1 0 0 1 1289 1953)">Exporting</text>
  <text style="stroke:none;fill:black;font-family:-apple-system,&quot;SF Pro Display&quot;,&quot;SF Pro Text&quot;,Helvetica,sans-serif;" transform="matrix(1 0 0 1 1289 1971)">Symbols should be outlined when exporting to ensure the</text>
  <text style="stroke:none;fill:black;font-family:-apple-system,&quot;SF Pro Display&quot;,&quot;SF Pro Text&quot;,Helvetica,sans-serif;" transform="matrix(1 0 0 1 1289 1989)">design is preserved when submitting to Xcode.</text>
  <text id="template-version" style="stroke:none;fill:black;font-family:-apple-system,&quot;SF Pro Display&quot;,&quot;SF Pro Text&quot;,Helvetica,sans-serif;text-anchor:end;" transform="matrix(1 0 0 1 3036 1933)">Template v.1.0</text>
  <text style="stroke:none;fill:black;font-family:-apple-system,&quot;SF Pro Display&quot;,&quot;SF Pro Text&quot;,Helvetica,sans-serif;text-anchor:end;" transform="matrix(1 0 0 1 3036 1951)">Generated from italic</text>
  <text style="stroke:none;fill:black;font-family:-apple-system,&quot;SF Pro Display&quot;,&quot;SF Pro Text&quot;,Helvetica,sans-serif;text-anchor:end;" transform="matrix(1 0 0 1 3036 1969)">Typeset at 100 points</text>
  <text style="stroke:none;fill:black;font-family:-apple-system,&quot;SF Pro Display&quot;,&quot;SF Pro Text&quot;,Helvetica,sans-serif;" transform="matrix(1 0 0 1 263 726)">Small</text>
  <text style="stroke:none;fill:black;font-family:-apple-system,&quot;SF Pro Display&quot;,&quot;SF Pro Text&quot;,Helvetica,sans-serif;" transform="matrix(1 0 0 1 263 1156)">Medium</text>
  <text style="stroke:none;fill:black;font-family:-apple-system,&quot;SF Pro Display&quot;,&quot;SF Pro Text&quot;,Helvetica,sans-serif;" transform="matrix(1 0 0 1 263 1586)">Large</text>
 </g>
 <g id="Guides">
  <g id="H-reference" style="fill:#27AAE1;stroke:none;" transform="matrix(1 0 0 1 339 696)">
   <path d="M 54.9316 0 L 57.666 0 L 30.5664 -70.459 L 28.0762 -70.459 L 0.976562 0 L 3.66211 0 L 12.9395 -24.4629 L 45.7031 -24.4629 Z M 29.1992 -67.0898 L 29.4434 -67.0898 L 44.8242 -26.709 L 13.8184 -26.709 Z"/>
  </g>
  <line id="Baseline-S" style="fill:none;stroke:#27AAE1;opacity:1;stroke-width:0.577;" x1="263" x2="3036" y1="696" y2="696"/>
  <line id="Capline-S" style="fill:none;stroke:#27AAE1;opacity:1;stroke-width:0.577;" x1="263" x2="3036" y1="625.541" y2="625.541"/>
  <g id="H-reference" style="fill:#27AAE1;stroke:none;" transform="matrix(1 0 0 1 339 1126)">
   <path d="M 54.9316 0 L 57.666 0 L 30.5664 -70.459 L 28.0762 -70.459 L 0.976562 0 L 3.66211 0 L 12.9395 -24.4629 L 45.7031 -24.4629 Z M 29.1992 -67.0898 L 29.4434 -67.0898 L 44.8242 -26.709 L 13.8184 -26.709 Z"/>
  </g>
  <line id="Baseline-M" style="fill:none;stroke:#27AAE1;opacity:1;stroke-width:0.577;" x1="263" x2="3036" y1="1126" y2="1126"/>
  <line id="Capline-M" style="fill:none;stroke:#27AAE1;opacity:1;stroke-width:0.577;" x1="263" x2="3036" y1="1055.54" y2="1055.54"/>
  <g id="H-reference" style="fill:#27AAE1;stroke:none;" transform="matrix(1 0 0 1 339 1556)">
   <path d="M 54.9316 0 L 57.666 0 L 30.5664 -70.459 L 28.0762 -70.459 L 0.976562 0 L 3.66211 0 L 12.9395 -24.4629 L 45.7031 -24.4629 Z M 29.1992 -67.0898 L 29.4434 -67.0898 L 44.8242 -26.709 L 13.8184 -26.709 Z"/>
  </g>
  <line id="Baseline-L" style="fill:none;stroke:#27AAE1;opacity:1;stroke-width:0.577;" x1="263" x2="3036" y1="1556" y2="1556"/>
  <line id="Capline-L" style="fill:none;stroke:#27AAE1;opacity:1;stroke-width:0.577;" x1="263" x2="3036" y1="1485.54" y2="1485.54"/>
  <rect height="119.336" id="left-margin" style="fill:#00AEEF;stroke:none;opacity:0.4;" width="12.4512" x="1412.1" y="1030.79"/>
  <rect height="119.336" id="right-margin" style="fill:#00AEEF;stroke:none;opacity:0.4;" width="12.4512" x="1475.14" y="1030.79"/>
 </g>
 <g id="Symbols">
  <g id="Black-L" transform="matrix(1 0 0 1 2880.15 1556)">
   <path d="M 26.2207 12.1582 L 67.9199 12.1582 C 73.9746 12.1582 78.0273 8.74023 78.0273 2.7832 C 78.0273 -3.02734 74.1211 -6.44531 67.9688 -6.44531 L 59.375 -6.44531 L 71.7773 -63.9648 L 80.3223 -63.9648 C 86.377 -63.9648 90.4297 -67.334 90.4297 -73.1934 C 90.4297 -79.0527 86.5234 -82.5195 80.3223 -82.5195 L 38.623 -82.5195 C 32.4707 -82.5195 28.4668 -79.0527 28.4668 -73.1934 C 28.4668 -67.334 32.5684 -63.9648 38.623 -63.9648 L 47.2168 -63.9648 L 34.8145 -6.44531 L 26.2207 -6.44531 C 20.0684 -6.44531 16.0645 -3.02734 16.0645 2.7832 C 16.0645 8.74023 20.2148 12.1582 26.2207 12.1582 Z"/>
  </g>
  <g id="Heavy-L" transform="matrix(1 0 0 1 2584.59 1556)">
   <path d="M 24.8535 11.6211 L 66.1621 11.6211 C 71.3867 11.6211 74.9023 8.64258 74.9023 3.51562 C 74.9023 -1.51367 71.5332 -4.49219 66.2109 -4.49219 L 56.0547 -4.49219 L 69.2871 -65.918 L 79.3945 -65.918 C 84.6191 -65.918 88.1348 -68.8965 88.1348 -73.9746 C 88.1348 -79.0039 84.7168 -82.0312 79.4434 -82.0312 L 38.0371 -82.0312 C 32.7637 -82.0312 29.2969 -79.0039 29.2969 -73.9746 C 29.2969 -68.8965 32.8613 -65.918 38.0859 -65.918 L 48.1934 -65.918 L 34.9609 -4.49219 L 24.8047 -4.49219 C 19.5312 -4.49219 16.0645 -1.51367 16.0645 3.51562 C 16.0645 8.64258 19.6289 11.6211 24.8535 11.6211 Z"/>
  </g>
  <g id="Bold-L" transform="matrix(1 0 0 1 2289.15 1556)">
   <path d="M 23.291 10.9863 L 64.209 10.9863 C 68.5059 10.9863 71.4355 8.49609 71.4355 4.29688 C 71.4355 0.146484 68.6035 -2.34375 64.2578 -2.34375 L 52.3438 -2.34375 L 66.5039 -68.1152 L 78.3691 -68.1152 C 82.666 -68.1152 85.5957 -70.6055 85.5957 -74.8047 C 85.5957 -78.9551 82.7637 -81.4453 78.418 -81.4453 L 37.4023 -81.4453 C 33.1055 -81.4453 30.2246 -78.9551 30.2246 -74.8047 C 30.2246 -70.6055 33.1543 -68.1152 37.4512 -68.1152 L 49.3164 -68.1152 L 35.1562 -2.34375 L 23.2422 -2.34375 C 18.9453 -2.34375 16.0645 0.146484 16.0645 4.29688 C 16.0645 8.49609 18.9941 10.9863 23.291 10.9863 Z"/>
  </g>
  <g id="Semibold-L" transform="matrix(1 0 0 1 1993.32 1556)">
   <path d="M 22.2168 10.5957 L 62.8906 10.5957 C 66.5039 10.5957 68.9941 8.44727 68.9941 4.83398 C 68.9941 1.31836 66.6016 -0.830078 62.8906 -0.830078 L 49.8047 -0.830078 L 64.5996 -69.6289 L 77.6855 -69.6289 C 81.2988 -69.6289 83.8379 -71.8262 83.8379 -75.3906 C 83.8379 -78.9062 81.3965 -81.0547 77.6855 -81.0547 L 37.0117 -81.0547 C 33.3008 -81.0547 30.8594 -78.9062 30.8594 -75.3906 C 30.8594 -71.8262 33.3984 -69.6289 37.0117 -69.6289 L 50.0977 -69.6289 L 35.3027 -0.830078 L 22.168 -0.830078 C 18.5059 -0.830078 16.0645 1.31836 16.0645 4.83398 C 16.0645 8.44727 18.6035 10.5957 22.2168 10.5957 Z"/>
  </g>
  <g id="Medium-L" transform="matrix(1 0 0 1 1697.29 1556)">
   <path d="M 21.4355 10.3027 L 61.8652 10.3027 C 64.9902 10.3027 67.1875 8.34961 67.1875 5.22461 C 67.1875 2.19727 65.0391 0.292969 61.8652 0.292969 L 47.8516 0.292969 L 63.1836 -70.8008 L 77.1484 -70.8008 C 80.2734 -70.8008 82.4707 -72.7051 82.4707 -75.8301 C 82.4707 -78.9062 80.3711 -80.8105 77.1973 -80.8105 L 36.6699 -80.8105 C 33.4961 -80.8105 31.3477 -78.9062 31.3477 -75.8301 C 31.3477 -72.7051 33.5449 -70.8008 36.7188 -70.8008 L 50.6836 -70.8008 L 35.4004 0.292969 L 21.3867 0.292969 C 18.2129 0.292969 16.0645 2.19727 16.0645 5.22461 C 16.0645 8.34961 18.2617 10.3027 21.4355 10.3027 Z"/>
  </g>
  <g id="Regular-L" transform="matrix(1 0 0 1 1401.46 1556)">
   <path d="M 20.3613 9.86328 L 60.498 9.86328 C 63.0371 9.86328 64.7949 8.30078 64.7949 5.76172 C 64.7949 3.32031 63.0859 1.75781 60.5469 1.75781 L 45.3613 1.75781 L 61.2793 -72.3145 L 76.416 -72.3145 C 78.9551 -72.3145 80.7129 -73.877 80.7129 -76.416 C 80.7129 -78.8574 79.0039 -80.4199 76.4648 -80.4199 L 36.2305 -80.4199 C 33.6914 -80.4199 31.9824 -78.8574 31.9824 -76.416 C 31.9824 -73.877 33.7891 -72.3145 36.2793 -72.3145 L 51.416 -72.3145 L 35.498 1.75781 L 20.3125 1.75781 C 17.7734 1.75781 16.0645 3.32031 16.0645 5.76172 C 16.0645 8.30078 17.8223 9.86328 20.3613 9.86328 Z"/>
  </g>
  <g id="Light-L" transform="matrix(1 0 0 1 1105.14 1556)">
   <path d="M 19.3359 9.96094 L 59.9121 9.96094 C 61.8164 9.96094 63.1836 8.74023 63.1836 6.83594 C 63.1836 4.93164 61.8652 3.75977 59.9609 3.75977 L 43.3105 3.75977 L 60.0586 -74.3164 L 76.6602 -74.3164 C 78.5645 -74.3164 79.9316 -75.5371 79.9316 -77.4414 C 79.9316 -79.3457 78.5645 -80.5176 76.6602 -80.5176 L 36.0352 -80.5176 C 34.1309 -80.5176 32.8125 -79.3457 32.8125 -77.4414 C 32.8125 -75.5371 34.1309 -74.3164 36.0352 -74.3164 L 52.6855 -74.3164 L 35.9375 3.75977 L 19.2871 3.75977 C 17.3828 3.75977 16.0645 4.93164 16.0645 6.83594 C 16.0645 8.74023 17.4316 9.96094 19.3359 9.96094 Z"/>
  </g>
  <g id="Thin-L" transform="matrix(1 0 0 1 808.961 1556)">
   <path d="M 17.9688 10.1074 L 59.1309 10.1074 C 60.2539 10.1074 61.0352 9.375 61.0352 8.25195 C 61.0352 7.12891 60.2539 6.39648 59.1309 6.39648 L 40.5762 6.39648 L 58.3984 -76.9531 L 76.9531 -76.9531 C 78.0273 -76.9531 78.8574 -77.7344 78.8574 -78.8086 C 78.8574 -79.9805 78.0273 -80.6641 76.9531 -80.6641 L 35.7422 -80.6641 C 34.668 -80.6641 33.8867 -79.9805 33.8867 -78.8086 C 33.8867 -77.7344 34.668 -76.9531 35.7422 -76.9531 L 54.2969 -76.9531 L 36.5234 6.39648 L 17.9688 6.39648 C 16.8457 6.39648 16.0645 7.12891 16.0645 8.25195 C 16.0645 9.375 16.8457 10.1074 17.9688 10.1074 Z"/>
  </g>
  <g id="Ultralight-L" transform="matrix(1 0 0 1 512.543 1556)">
   <path d="M 17.2363 10.2051 L 58.7402 10.2051 C 59.4238 10.2051 59.9121 9.66797 59.9121 8.98438 C 59.9121 8.20312 59.4238 7.76367 58.7402 7.76367 L 39.209 7.76367 L 57.5684 -78.3203 L 77.0996 -78.3203 C 77.7832 -78.3203 78.2715 -78.8086 78.2715 -79.541 C 78.2715 -80.3223 77.7832 -80.7617 77.0996 -80.7617 L 35.6445 -80.7617 C 34.9121 -80.7617 34.4238 -80.3223 34.4238 -79.541 C 34.4238 -78.8086 34.9121 -78.3203 35.5957 -78.3203 L 55.1758 -78.3203 L 36.7676 7.76367 L 17.2363 7.76367 C 16.5527 7.76367 16.0645 8.20312 16.0645 8.98438 C 16.0645 9.66797 16.5527 10.2051 17.2363 10.2051 Z"/>
  </g>
  <g id="Black-M" transform="matrix(1 0 0 1 2890.8 1126)">
   <path d="M 21.6797 2.24609 L 54.6875 2.24609 C 60.1562 2.24609 63.8184 -0.78125 63.8184 -6.10352 C 63.8184 -11.4258 60.3027 -14.4531 54.6875 -14.4531 L 49.3652 -14.4531 L 58.3008 -55.8594 L 63.623 -55.8594 C 69.0918 -55.8594 72.7539 -58.8867 72.7539 -64.209 C 72.7539 -69.4824 69.2383 -72.6074 63.623 -72.6074 L 30.5664 -72.6074 C 24.9512 -72.6074 21.3867 -69.4824 21.3867 -64.209 C 21.3867 -58.8867 25.0977 -55.8594 30.5664 -55.8594 L 35.8887 -55.8594 L 26.9531 -14.4531 L 21.6797 -14.4531 C 16.0645 -14.4531 12.4512 -11.4258 12.4512 -6.10352 C 12.4512 -0.78125 16.1621 2.24609 21.6797 2.24609 Z"/>
  </g>
  <g id="Heavy-M" transform="matrix(1 0 0 1 2595.23 1126)">
   <path d="M 20.4102 1.66016 L 52.9297 1.66016 C 57.666 1.66016 60.8398 -0.976562 60.8398 -5.61523 C 60.8398 -10.2051 57.7637 -12.8418 52.9297 -12.8418 L 46.2891 -12.8418 L 55.9082 -57.5195 L 62.5488 -57.5195 C 67.2852 -57.5195 70.459 -60.1562 70.459 -64.7461 C 70.459 -69.3359 67.3828 -72.0215 62.5488 -72.0215 L 30.0293 -72.0215 C 25.1953 -72.0215 22.0703 -69.3359 22.0703 -64.7461 C 22.0703 -60.1562 25.293 -57.5195 30.0293 -57.5195 L 36.6699 -57.5195 L 27.0508 -12.8418 L 20.4102 -12.8418 C 15.5762 -12.8418 12.4512 -10.2051 12.4512 -5.61523 C 12.4512 -0.976562 15.6738 1.66016 20.4102 1.66016 Z"/>
  </g>
  <g id="Bold-M" transform="matrix(1 0 0 1 2299.82 1126)">
   <path d="M 18.9941 0.976562 L 50.9766 0.976562 C 54.834 0.976562 57.4707 -1.26953 57.4707 -5.07812 C 57.4707 -8.83789 54.9316 -11.084 50.9766 -11.084 L 42.8223 -11.084 L 53.2227 -59.375 L 61.377 -59.375 C 65.2344 -59.375 67.8711 -61.5723 67.8711 -65.3809 C 67.8711 -69.1406 65.332 -71.3867 61.377 -71.3867 L 29.3945 -71.3867 C 25.4395 -71.3867 22.8516 -69.1406 22.8516 -65.3809 C 22.8516 -61.5723 25.5371 -59.375 29.3945 -59.375 L 37.5488 -59.375 L 27.1484 -11.084 L 18.9941 -11.084 C 15.0391 -11.084 12.4512 -8.83789 12.4512 -5.07812 C 12.4512 -1.26953 15.1367 0.976562 18.9941 0.976562 Z"/>
  </g>
  <g id="Semibold-M" transform="matrix(1 0 0 1 2003.98 1126)">
   <path d="M 18.0664 0.488281 L 49.6094 0.488281 C 52.9297 0.488281 55.1758 -1.46484 55.1758 -4.73633 C 55.1758 -7.91016 52.9785 -9.81445 49.6582 -9.81445 L 40.4785 -9.81445 L 51.416 -60.6445 L 60.5469 -60.6445 C 63.8672 -60.6445 66.1133 -62.5488 66.1133 -65.8203 C 66.1133 -68.9941 63.916 -70.9473 60.5469 -70.9473 L 28.9551 -70.9473 C 25.5859 -70.9473 23.3887 -68.9941 23.3887 -65.8203 C 23.3887 -62.5488 25.6836 -60.6445 29.0039 -60.6445 L 38.1348 -60.6445 L 27.1973 -9.81445 L 18.0176 -9.81445 C 14.6484 -9.81445 12.4512 -7.91016 12.4512 -4.73633 C 12.4512 -1.46484 14.7461 0.488281 18.0664 0.488281 Z"/>
  </g>
  <g id="Medium-M" transform="matrix(1 0 0 1 1707.93 1126)">
   <path d="M 17.334 0.146484 L 48.584 0.146484 C 51.4648 0.146484 53.418 -1.5625 53.418 -4.44336 C 53.418 -7.17773 51.5137 -8.88672 48.6328 -8.88672 L 38.6719 -8.88672 L 50 -61.5723 L 59.9121 -61.5723 C 62.793 -61.5723 64.7949 -63.2812 64.7949 -66.1133 C 64.7949 -68.8965 62.8418 -70.6055 59.9609 -70.6055 L 28.6133 -70.6055 C 25.7324 -70.6055 23.7793 -68.8965 23.7793 -66.1133 C 23.7793 -63.2812 25.7812 -61.5723 28.6621 -61.5723 L 38.5742 -61.5723 L 27.2461 -8.88672 L 17.2852 -8.88672 C 14.4043 -8.88672 12.4512 -7.17773 12.4512 -4.44336 C 12.4512 -1.5625 14.4531 0.146484 17.334 0.146484 Z"/>
  </g>
  <g id="Regular-M" transform="matrix(1 0 0 1 1412.1 1126)">
   <path d="M 16.3574 -0.341797 L 47.2168 -0.341797 C 49.5117 -0.341797 51.1719 -1.75781 51.1719 -4.05273 C 51.1719 -6.25 49.5605 -7.66602 47.2656 -7.66602 L 36.3281 -7.66602 L 48.1934 -62.8418 L 59.1309 -62.8418 C 61.4258 -62.8418 63.0371 -64.2578 63.0371 -66.5527 C 63.0371 -68.75 61.4746 -70.166 59.1797 -70.166 L 28.1738 -70.166 C 25.8789 -70.166 24.3164 -68.75 24.3164 -66.5527 C 24.3164 -64.2578 25.9277 -62.8418 28.2227 -62.8418 L 39.1602 -62.8418 L 27.2949 -7.66602 L 16.3086 -7.66602 C 14.0137 -7.66602 12.4512 -6.25 12.4512 -4.05273 C 12.4512 -1.75781 14.0625 -0.341797 16.3574 -0.341797 Z"/>
  </g>
  <g id="Light-M" transform="matrix(1 0 0 1 1115.76 1126)">
   <path d="M 15.4297 -0.244141 L 46.6797 -0.244141 C 48.4375 -0.244141 49.707 -1.36719 49.707 -3.125 C 49.707 -4.83398 48.4863 -5.9082 46.7285 -5.9082 L 34.4727 -5.9082 L 47.0703 -64.6484 L 59.3262 -64.6484 C 61.0352 -64.6484 62.3047 -65.7227 62.3047 -67.4805 C 62.3047 -69.1895 61.084 -70.2637 59.3262 -70.2637 L 28.0273 -70.2637 C 26.2695 -70.2637 25.0488 -69.1895 25.0488 -67.4805 C 25.0488 -65.7227 26.3184 -64.6484 28.0273 -64.6484 L 40.2832 -64.6484 L 27.6855 -5.9082 L 15.4297 -5.9082 C 13.6719 -5.9082 12.4512 -4.83398 12.4512 -3.125 C 12.4512 -1.36719 13.6719 -0.244141 15.4297 -0.244141 Z"/>
  </g>
  <g id="Thin-M" transform="matrix(1 0 0 1 819.533 1126)">
   <path d="M 14.209 -0.0976562 L 45.9961 -0.0976562 C 47.0215 -0.0976562 47.7539 -0.78125 47.7539 -1.80664 C 47.7539 -2.88086 47.0215 -3.51562 45.9961 -3.51562 L 32.0312 -3.51562 L 45.6055 -66.9922 L 59.5703 -66.9922 C 60.5957 -66.9922 61.3281 -67.6758 61.3281 -68.7012 C 61.3281 -69.7754 60.5957 -70.4102 59.5703 -70.4102 L 27.7832 -70.4102 C 26.7578 -70.4102 26.0254 -69.7754 26.0254 -68.7012 C 26.0254 -67.6758 26.7578 -66.9922 27.7832 -66.9922 L 41.748 -66.9922 L 28.1738 -3.51562 L 14.209 -3.51562 C 13.1836 -3.51562 12.4512 -2.88086 12.4512 -1.80664 C 12.4512 -0.78125 13.1836 -0.0976562 14.209 -0.0976562 Z"/>
  </g>
  <g id="Ultralight-M" transform="matrix(1 0 0 1 523.066 1126)">
   <path d="M 13.5742 -0.0488281 L 45.6543 -0.0488281 C 46.2891 -0.0488281 46.7773 -0.537109 46.7773 -1.17188 C 46.7773 -1.9043 46.2891 -2.29492 45.6543 -2.29492 L 30.8105 -2.29492 L 44.873 -68.2129 L 59.7168 -68.2129 C 60.3516 -68.2129 60.8398 -68.7012 60.8398 -69.3359 C 60.8398 -70.0684 60.3516 -70.459 59.7168 -70.459 L 27.6367 -70.459 C 27.002 -70.459 26.5137 -70.0684 26.5137 -69.3359 C 26.5137 -68.7012 27.002 -68.2129 27.6367 -68.2129 L 42.4805 -68.2129 L 28.418 -2.29492 L 13.5742 -2.29492 C 12.9395 -2.29492 12.4512 -1.9043 12.4512 -1.17188 C 12.4512 -0.537109 12.9395 -0.0488281 13.5742 -0.0488281 Z"/>
  </g>
  <g id="Black-S" transform="matrix(1 0 0 1 2900.1 696)">
   <path d="M 16.8945 -5.9082 L 42.7246 -5.9082 C 46.9727 -5.9082 49.8047 -8.25195 49.8047 -12.4023 C 49.8047 -16.5039 47.0703 -18.8477 42.7246 -18.8477 L 38.4766 -18.8477 L 45.5078 -51.5137 L 49.7559 -51.5137 C 54.0039 -51.5137 56.8359 -53.8574 56.8359 -57.959 C 56.8359 -62.0605 54.1016 -64.4531 49.7559 -64.4531 L 23.9258 -64.4531 C 19.5801 -64.4531 16.7969 -62.0605 16.7969 -57.959 C 16.7969 -53.8574 19.6777 -51.5137 23.9258 -51.5137 L 28.1738 -51.5137 L 21.1426 -18.8477 L 16.8945 -18.8477 C 12.5488 -18.8477 9.76562 -16.5039 9.76562 -12.4023 C 9.76562 -8.25195 12.6465 -5.9082 16.8945 -5.9082 Z"/>
  </g>
  <g id="Heavy-S" transform="matrix(1 0 0 1 2604.22 696)">
   <path d="M 16.0645 -6.39648 L 41.4551 -6.39648 C 45.166 -6.39648 47.6562 -8.49609 47.6562 -12.1582 C 47.6562 -15.7227 45.2637 -17.8223 41.4551 -17.8223 L 36.3281 -17.8223 L 43.7988 -52.5879 L 48.9258 -52.5879 C 52.6367 -52.5879 55.1758 -54.6387 55.1758 -58.3008 C 55.1758 -61.8652 52.7344 -64.0137 48.9258 -64.0137 L 23.5352 -64.0137 C 19.7266 -64.0137 17.2363 -61.8652 17.2363 -58.3008 C 17.2363 -54.6387 19.7754 -52.5879 23.5352 -52.5879 L 28.6621 -52.5879 L 21.1426 -17.8223 L 16.0156 -17.8223 C 12.207 -17.8223 9.76562 -15.7227 9.76562 -12.1582 C 9.76562 -8.49609 12.3047 -6.39648 16.0645 -6.39648 Z"/>
  </g>
  <g id="Bold-S" transform="matrix(1 0 0 1 2308.46 696)">
   <path d="M 15.0879 -6.93359 L 39.9902 -6.93359 C 43.1641 -6.93359 45.3125 -8.74023 45.3125 -11.8164 C 45.3125 -14.8926 43.2129 -16.6992 40.0391 -16.6992 L 33.9355 -16.6992 L 41.8945 -53.7598 L 47.998 -53.7598 C 51.123 -53.7598 53.2715 -55.5664 53.2715 -58.6426 C 53.2715 -61.6699 51.2207 -63.5254 47.998 -63.5254 L 23.0469 -63.5254 C 19.873 -63.5254 17.7734 -61.6699 17.7734 -58.6426 C 17.7734 -55.5664 19.9219 -53.7598 23.0957 -53.7598 L 29.1504 -53.7598 L 21.1914 -16.6992 L 15.0879 -16.6992 C 11.8652 -16.6992 9.76562 -14.8926 9.76562 -11.8164 C 9.76562 -8.74023 11.9141 -6.93359 15.0879 -6.93359 Z"/>
  </g>
  <g id="Semibold-S" transform="matrix(1 0 0 1 2012.38 696)">
   <path d="M 14.4531 -7.27539 L 39.0137 -7.27539 C 41.748 -7.27539 43.6523 -8.88672 43.6523 -11.6211 C 43.6523 -14.3066 41.8457 -15.918 39.0137 -15.918 L 32.2754 -15.918 L 40.5762 -54.5898 L 47.3633 -54.5898 C 50.0977 -54.5898 52.002 -56.2012 52.002 -58.8867 C 52.002 -61.5234 50.1465 -63.1836 47.3633 -63.1836 L 22.7539 -63.1836 C 19.9707 -63.1836 18.1152 -61.5234 18.1152 -58.8867 C 18.1152 -56.2012 20.0195 -54.5898 22.7539 -54.5898 L 29.541 -54.5898 L 21.1914 -15.918 L 14.4043 -15.918 C 11.6211 -15.918 9.76562 -14.3066 9.76562 -11.6211 C 9.76562 -8.88672 11.6699 -7.27539 14.4531 -7.27539 Z"/>
  </g>
  <g id="Medium-S" transform="matrix(1 0 0 1 1716.16 696)">
   <path d="M 13.916 -7.56836 L 38.2324 -7.56836 C 40.7227 -7.56836 42.4316 -9.0332 42.4316 -11.4746 C 42.4316 -13.8184 40.7715 -15.2832 38.2812 -15.2832 L 31.0059 -15.2832 L 39.5996 -55.1758 L 46.875 -55.1758 C 49.3164 -55.1758 51.0254 -56.6406 51.0254 -59.082 C 51.0254 -61.4258 49.3652 -62.8906 46.875 -62.8906 L 22.5098 -62.8906 C 20.0195 -62.8906 18.3594 -61.4258 18.3594 -59.082 C 18.3594 -56.6406 20.0684 -55.1758 22.5586 -55.1758 L 29.7852 -55.1758 L 21.1914 -15.2832 L 13.916 -15.2832 C 11.4258 -15.2832 9.76562 -13.8184 9.76562 -11.4746 C 9.76562 -9.0332 11.4746 -7.56836 13.916 -7.56836 Z"/>
  </g>
  <g id="Regular-S" transform="matrix(1 0 0 1 1420.08 696)">
   <path d="M 13.2812 -7.95898 L 37.2559 -7.95898 C 39.3555 -7.95898 40.7715 -9.22852 40.7715 -11.2793 C 40.7715 -13.2324 39.4043 -14.502 37.3047 -14.502 L 29.3457 -14.502 L 38.2812 -56.0059 L 46.2402 -56.0059 C 48.291 -56.0059 49.7559 -57.2754 49.7559 -59.3262 C 49.7559 -61.2793 48.3398 -62.5488 46.2891 -62.5488 L 22.168 -62.5488 C 20.1172 -62.5488 18.7012 -61.2793 18.7012 -59.3262 C 18.7012 -57.2754 20.166 -56.0059 22.2168 -56.0059 L 30.1758 -56.0059 L 21.1914 -14.502 L 13.2324 -14.502 C 11.1816 -14.502 9.76562 -13.2324 9.76562 -11.2793 C 9.76562 -9.22852 11.2305 -7.95898 13.2812 -7.95898 Z"/>
  </g>
  <g id="Light-S" transform="matrix(1 0 0 1 1123.71 696)">
   <path d="M 12.4512 -7.86133 L 36.8164 -7.86133 C 38.3789 -7.86133 39.502 -8.83789 39.502 -10.4492 C 39.502 -11.9629 38.4277 -12.9395 36.8164 -12.9395 L 27.7344 -12.9395 L 37.3047 -57.5684 L 46.3867 -57.5684 C 47.998 -57.5684 49.0723 -58.5449 49.0723 -60.1562 C 49.0723 -61.6699 47.998 -62.6465 46.4355 -62.6465 L 22.0215 -62.6465 C 20.459 -62.6465 19.3848 -61.6699 19.3848 -60.1562 C 19.3848 -58.5449 20.459 -57.5684 22.0703 -57.5684 L 31.1523 -57.5684 L 21.5332 -12.9395 L 12.4512 -12.9395 C 10.8398 -12.9395 9.76562 -11.9629 9.76562 -10.4492 C 9.76562 -8.83789 10.8887 -7.86133 12.4512 -7.86133 Z"/>
  </g>
  <g id="Thin-S" transform="matrix(1 0 0 1 827.418 696)">
   <path d="M 11.377 -7.76367 L 36.1816 -7.76367 C 37.1094 -7.76367 37.793 -8.34961 37.793 -9.32617 C 37.793 -10.2539 37.1582 -10.8398 36.1816 -10.8398 L 25.5859 -10.8398 L 36.0352 -59.668 L 46.6309 -59.668 C 47.5586 -59.668 48.2422 -60.3027 48.2422 -61.2305 C 48.2422 -62.1582 47.6074 -62.7441 46.6309 -62.7441 L 21.8262 -62.7441 C 20.8496 -62.7441 20.2148 -62.1582 20.2148 -61.2305 C 20.2148 -60.3027 20.8984 -59.668 21.8262 -59.668 L 32.4219 -59.668 L 21.9727 -10.8398 L 11.377 -10.8398 C 10.4492 -10.8398 9.76562 -10.2539 9.76562 -9.32617 C 9.76562 -8.34961 10.4492 -7.76367 11.377 -7.76367 Z"/>
  </g>
  <g id="Ultralight-S" transform="matrix(1 0 0 1 530.927 696)">
   <path d="M 10.8398 -7.66602 L 35.8398 -7.66602 C 36.4746 -7.66602 36.9141 -8.10547 36.9141 -8.74023 C 36.9141 -9.375 36.4746 -9.76562 35.8887 -9.76562 L 24.4629 -9.76562 L 35.3516 -60.7422 L 46.7285 -60.7422 C 47.3633 -60.7422 47.8027 -61.1816 47.8027 -61.7676 C 47.8027 -62.4512 47.3633 -62.8418 46.7285 -62.8418 L 21.7285 -62.8418 C 21.0938 -62.8418 20.6543 -62.4512 20.6543 -61.7676 C 20.6543 -61.1816 21.0938 -60.7422 21.7285 -60.7422 L 33.1055 -60.7422 L 22.2168 -9.76562 L 10.8398 -9.76562 C 10.2051 -9.76562 9.76562 -9.375 9.76562 -8.74023 C 9.76562 -8.10547 10.2051 -7.66602 10.8398 -7.66602 Z"/>
  </g>
 </g>
</svg>
